SplineFontDB: 3.0
FontName: F0nt
FullName: F0nt
FamilyName: F0nt
Weight: Regular
Copyright: Copyright 2015, Sungsit Sawaiwan
UComments: "2015-11-5: Created with FontForge (http://fontforge.org)"
Version: 0.1-alpha1
ItalicAngle: 0
UnderlinePosition: -120
UnderlineWidth: 60
Ascent: 960
Descent: 240
InvalidEm: 0
LayerCount: 12
Layer: 0 0 "Back" 1
Layer: 1 0 "Fore" 0
Layer: 2 0 "100" 0
Layer: 3 0 "200" 0
Layer: 4 0 "300" 0
Layer: 5 0 "400" 0
Layer: 6 0 "500" 0
Layer: 7 0 "600" 0
Layer: 8 0 "700" 0
Layer: 9 0 "800" 0
Layer: 10 0 "900" 0
Layer: 11 0 "1000" 0
XUID: [1021 282 -646183752 12330923]
StyleMap: 0x0000
FSType: 0
OS2Version: 0
OS2_WeightWidthSlopeOnly: 0
OS2_UseTypoMetrics: 1
CreationTime: 1446661322
ModificationTime: 1459514111
OS2TypoAscent: 0
OS2TypoAOffset: 1
OS2TypoDescent: 0
OS2TypoDOffset: 1
OS2TypoLinegap: 108
OS2WinAscent: 0
OS2WinAOffset: 1
OS2WinDescent: 0
OS2WinDOffset: 1
HheadAscent: 0
HheadAOffset: 1
HheadDescent: 0
HheadDOffset: 1
OS2Vendor: 'PfEd'
MarkAttachClasses: 1
DEI: 91125
LangName: 1033 "" "" "" "" "" "" "" "" "" "" "" "" "" "" "" "" "F0nt"
Encoding: UnicodeFull
Compacted: 1
UnicodeInterp: none
NameList: AGL For New Fonts
DisplaySize: -72
DisplayLayer: 11
AntiAlias: 1
FitToEm: 0
BeginPrivate: 0
EndPrivate
BeginChars: 1114121 123

StartChar: uni0E50
Encoding: 3664 3664 0
Width: 780
VWidth: 0
Flags: W
HStem: -24 128<180 513> 496 128<257 593>
VStem: -45 280<139 450> 545 280<151 462>
LayerCount: 12
Back
SplineSet
423 561 m 4
 570 561 685 462 685 316 c 4
 685 152 532 39 348 39 c 4
 207 39 95 139 95 279 c 4
 95 440 236 561 423 561 c 4
EndSplineSet
Layer: 2
SplineSet
338 -15 m 0
 162 -15 22 108 22 275 c 0
 22 478 208 615 431 615 c 0
 615 615 757 493 757 319 c 0
 757 100 540 -15 338 -15 c 0
340 4 m 0
 540 4 735 118 735 319 c 0
 735 486 600 596 428 596 c 0
 219 596 44 469 44 275 c 0
 44 115 176 4 340 4 c 0
EndSplineSet
Layer: 3
SplineSet
335 -16 m 4
 150 -16 15 109 15 273 c 4
 15 480 209 616 435 616 c 4
 628 616 765 492 765 321 c 4
 765 100 541 -16 335 -16 c 4
346 15 m 4
 534 15 714 128 714 317 c 4
 714 481 584 585 424 585 c 4
 229 585 66 461 66 277 c 4
 66 120 194 15 346 15 c 4
EndSplineSet
Layer: 4
SplineSet
332 -17 m 4
 138 -17 7 110 7 272 c 4
 7 482 210 617 438 617 c 4
 639 617 772 491 772 322 c 4
 772 99 542 -17 332 -17 c 4
351 26 m 4
 527 26 693 137 693 314 c 4
 693 475 565 574 418 574 c 4
 236 574 87 454 87 280 c 4
 87 125 211 26 351 26 c 4
EndSplineSet
Layer: 5
SplineSet
329 -18 m 4
 126 -18 0 111 0 270 c 4
 0 484 211 618 442 618 c 4
 652 618 780 490 780 324 c 4
 780 98 542 -18 329 -18 c 4
356 37 m 4
 521 37 672 148 672 312 c 4
 672 471 549 563 414 563 c 4
 246 563 108 447 108 282 c 4
 108 130 228 37 356 37 c 4
EndSplineSet
Layer: 6
SplineSet
325 -19 m 4
 113 -19 -8 113 -8 269 c 4
 -8 487 212 619 445 619 c 4
 664 619 787 489 787 326 c 4
 787 98 542 -19 325 -19 c 4
361 48 m 4
 514 48 651 158 651 310 c 4
 651 466 531 552 409 552 c 4
 255 552 129 440 129 285 c 4
 129 135 245 48 361 48 c 4
EndSplineSet
Layer: 7
SplineSet
322 -20 m 4
 100 -20 -15 113 -15 267 c 4
 -15 488 212 620 448 620 c 4
 675 620 795 488 795 327 c 4
 795 97 543 -20 322 -20 c 4
366 60 m 4
 507 60 629 167 629 307 c 4
 629 460 513 540 403 540 c 4
 262 540 150 432 150 287 c 4
 150 140 261 60 366 60 c 4
EndSplineSet
Layer: 8
SplineSet
318 -21 m 4
 87 -21 -23 115 -23 266 c 4
 -23 491 213 621 451 621 c 4
 687 621 802 487 802 329 c 4
 802 97 543 -21 318 -21 c 4
371 71 m 4
 500 71 608 177 608 305 c 4
 608 455 495 529 398 529 c 4
 271 529 171 425 171 290 c 4
 171 145 278 71 371 71 c 4
EndSplineSet
Layer: 9
SplineSet
315 -22 m 4
 75 -22 -30 116 -30 264 c 4
 -30 493 214 622 455 622 c 4
 700 622 810 486 810 331 c 4
 810 96 543 -22 315 -22 c 4
376 82 m 4
 494 82 587 188 587 303 c 4
 587 451 479 518 394 518 c 4
 281 518 192 418 192 292 c 4
 192 150 295 82 376 82 c 4
EndSplineSet
Layer: 10
SplineSet
312 -23 m 4
 63 -23 -38 117 -38 263 c 4
 -38 495 215 623 458 623 c 4
 711 623 817 485 817 332 c 4
 817 95 544 -23 312 -23 c 4
381 93 m 4
 487 93 566 197 566 300 c 4
 566 445 460 507 388 507 c 4
 288 507 213 411 213 295 c 4
 213 155 312 93 381 93 c 4
EndSplineSet
Layer: 11
SplineSet
309 -24 m 0
 51 -24 -45 118 -45 261 c 0
 -45 497 216 624 462 624 c 0
 724 624 825 484 825 334 c 0
 825 95 545 -24 309 -24 c 0
387 104 m 4
 481 104 545 207 545 298 c 0
 545 440 444 496 384 496 c 0
 298 496 235 403 235 297 c 0
 235 160 330 104 387 104 c 4
EndSplineSet
EndChar

StartChar: uni0E1F
Encoding: 3615 3615 1
Width: 930
VWidth: 0
Flags: W
VStem: 87 22<156.5 377>
LayerCount: 12
Back
SplineSet
133 587 m 4
 145 487 146 402 146 300 c 4
 146 162 156 45 170 45 c 4
 257 45 480 435 480 435 c 29
 480 435 570 45 620 45 c 4
 673 45 779 187 900 735 c 1028
EndSplineSet
Layer: 2
SplineSet
72 -1 m 1
 72 -1 87 141 87 270 c 0
 87 374 87 492 77 598 c 1
 99 600 l 1
 109 473 109 380 109 240 c 0
 109 172 101 78 97 30 c 1
 222 169 393 376 465 476 c 1
 482 480 l 1
 531 353 628 125 675 15 c 1
 702 52 825 277 934 748 c 1
 957 750 l 5
 822 171 687 -2 687 -2 c 1
 687 -2 681 -3 673 -3 c 0
 665 -3 659 -1 659 -1 c 1
 609 115 518 331 471 450 c 1
 375 326 222 142 94 -2 c 1
 94 -2 89 -3 83 -3 c 0
 77 -3 72 -1 72 -1 c 1
EndSplineSet
Layer: 3
SplineSet
65 -1 m 4
 66 9 80 146 80 273 c 4
 80 381 79 497 70 597 c 5
 78 597 113 599 121 600 c 5
 126 516 127 446 127 375 c 4
 127 328 127 280 127 227 c 4
 127 175 122 101 118 51 c 5
 237 187 396 386 458 473 c 5
 465 474 484 479 490 480 c 5
 531 371 623 145 669 34 c 5
 706 94 814 310 913 747 c 5
 922 748 956 750 965 750 c 5
 831 169 703 1 700 -2 c 4
 697 -3 687 -4 673 -4 c 4
 661 -4 646 -2 643 -2 c 4
 597 107 511 314 467 427 c 5
 377 309 232 133 113 -2 c 4
 111 -3 101 -4 90 -4 c 4
 80 -4 67 -2 65 -1 c 4
EndSplineSet
Layer: 4
SplineSet
57 -1 m 1
 59 19 72 153 72 277 c 0
 72 388 70 501 62 595 c 1
 78 595 125 598 141 600 c 1
 145 532 146 473 146 417 c 0
 146 347 144 283 144 213 c 0
 144 174 140 115 137 69 c 1
 251 203 398 394 452 470 c 1
 465 471 488 477 499 480 c 1
 534 390 619 167 665 53 c 1
 708 125 800 336 892 745 c 1
 910 747 954 750 972 750 c 1
 840 167 718 5 712 -2 c 0
 706 -3 691 -5 671 -5 c 0
 656 -5 634 -3 627 -2 c 1
 584 101 504 296 464 403 c 1
 380 291 243 123 132 -3 c 0
 129 -4 112 -5 96 -5 c 0
 81 -5 61 -2 57 -1 c 1
EndSplineSet
Layer: 5
SplineSet
50 -1 m 5
 52 29 65 158 65 280 c 4
 65 395 63 507 55 594 c 5
 78 594 140 598 163 600 c 5
 165 553 166 511 166 471 c 4
 166 369 161 286 161 200 c 4
 161 172 159 130 157 91 c 5
 265 223 399 402 445 467 c 5
 465 469 491 476 508 480 c 5
 536 405 615 190 660 73 c 5
 705 153 785 357 871 744 c 5
 897 748 953 750 980 750 c 5
 849 165 735 9 725 -1 c 5
 716 -3 696 -6 671 -6 c 4
 652 -6 621 -4 611 -3 c 5
 572 93 497 280 460 380 c 5
 382 275 253 114 151 -3 c 4
 146 -5 123 -6 102 -6 c 4
 83 -6 56 -3 50 -1 c 5
EndSplineSet
Layer: 6
SplineSet
42 -1 m 5
 45 39 57 164 57 283 c 4
 57 402 54 511 47 592 c 5
 78 592 153 597 184 600 c 5
 185 564 186 531 186 499 c 4
 186 372 178 277 178 187 c 4
 178 169 177 141 176 112 c 5
 278 242 401 409 439 464 c 5
 465 467 494 474 517 480 c 5
 540 421 612 216 656 96 c 5
 701 183 771 379 850 742 c 5
 885 747 951 750 987 750 c 5
 857 163 750 12 737 -1 c 5
 725 -4 700 -7 669 -7 c 4
 647 -7 608 -4 595 -3 c 5
 559 86 491 263 457 357 c 5
 385 258 263 104 170 -4 c 4
 163 -6 134 -7 108 -7 c 4
 85 -7 50 -3 42 -1 c 5
EndSplineSet
Layer: 7
SplineSet
35 0 m 1
 39 49 50 170 50 287 c 0
 50 409 46 516 40 591 c 1
 79 592 166 596 205 600 c 5
 206 574 206 550 206 526 c 0
 206 373 196 263 196 173 c 0
 196 164 196 149 195 133 c 1
 291 260 400 418 431 462 c 1
 464 465 497 473 525 480 c 1
 542 435 609 238 651 116 c 1
 695 207 755 396 829 741 c 1
 873 747 950 750 995 750 c 1
 867 161 766 16 750 -1 c 1
 736 -4 706 -8 669 -8 c 0
 643 -8 596 -6 579 -4 c 1
 547 79 484 245 454 333 c 1
 388 240 274 94 189 -4 c 1
 181 -7 145 -8 115 -8 c 0
 87 -8 46 -3 35 0 c 1
EndSplineSet
Layer: 8
SplineSet
27 0 m 1
 32 59 42 176 42 290 c 0
 42 416 37 520 32 589 c 1
 79 590 179 595 226 600 c 1
 226 582 226 566 226 549 c 0
 226 371 213 249 213 160 c 0
 213 159 213 157 213 155 c 1
 303 278 401 423 425 459 c 1
 464 463 500 471 534 480 c 1
 547 448 606 265 647 141 c 1
 688 236 741 418 808 739 c 1
 861 746 948 750 1002 750 c 1
 875 159 781 19 762 -1 c 1
 745 -5 710 -9 667 -9 c 0
 638 -9 583 -6 563 -4 c 1
 534 72 478 228 451 310 c 1
 391 223 284 84 208 -5 c 1
 198 -8 156 -9 121 -9 c 0
 89 -9 40 -3 27 0 c 1
EndSplineSet
Layer: 9
SplineSet
20 0 m 5
 25 69 35 181 35 293 c 4
 35 423 30 526 25 588 c 5
 79 589 194 595 248 600 c 5
 248 588 248 576 248 564 c 4
 248 388 235 265 231 180 c 5
 314 298 400 429 418 456 c 5
 464 461 503 470 543 480 c 5
 551 460 603 291 642 167 c 5
 680 264 725 438 787 738 c 5
 848 747 947 750 1010 750 c 5
 884 157 798 23 775 0 c 5
 755 -5 715 -10 667 -10 c 4
 634 -10 570 -7 547 -5 c 5
 522 64 471 212 447 287 c 5
 393 207 294 75 227 -5 c 5
 215 -9 167 -10 127 -10 c 4
 91 -10 35 -4 20 0 c 5
EndSplineSet
Layer: 10
SplineSet
12 0 m 1
 18 79 27 188 27 297 c 0
 27 430 21 530 17 586 c 1
 79 587 206 594 268 600 c 1
 268 593 268 587 268 581 c 0
 268 414 256 291 250 206 c 1
 325 317 400 433 412 453 c 1
 464 458 507 468 552 480 c 1
 556 471 601 319 637 197 c 1
 671 296 710 461 766 736 c 1
 836 746 945 750 1017 750 c 1
 893 155 813 27 787 0 c 1
 764 -5 719 -11 665 -11 c 0
 629 -11 558 -8 531 -5 c 1
 509 58 464 194 444 263 c 1
 396 189 305 65 246 -6 c 1
 233 -10 178 -11 133 -11 c 4
 92 -11 29 -4 12 0 c 1
EndSplineSet
Layer: 11
SplineSet
5 0 m 1
 12 89 20 193 20 300 c 0
 20 437 13 535 10 585 c 1
 80 586 220 593 290 600 c 1
 290 446 280 326 273 240 c 1
 338 341 398 437 405 450 c 1
 464 456 509 467 560 480 c 1
 560 480 598 346 632 228 c 1
 662 327 695 484 745 735 c 1
 824 746 944 750 1025 750 c 5
 902 153 829 30 800 0 c 1
 774 -6 725 -12 665 -12 c 0
 625 -12 545 -9 515 -6 c 1
 497 50 457 177 440 240 c 1
 398 172 315 56 265 -6 c 1
 250 -11 190 -12 140 -12 c 0
 95 -12 24 -5 5 0 c 1
EndSplineSet
EndChar

StartChar: uni0E2D
Encoding: 3629 3629 2
Width: 765
VWidth: 0
Flags: W
HStem: -15 16<198.175 410.353> 276 15<55 168.5> 599 16<246.5 592>
VStem: 18 20<110.5 266.5> 721 22<126.5 490.5>
LayerCount: 12
Back
SplineSet
135 435 m 4
 182 502 285 561 423 561 c 4
 570 561 685 462 685 316 c 4
 685 152 532 39 348 39 c 4
 197 39 105 139 105 240 c 4
 105 272 126 285 165 285 c 4
 220 285 274 279 300 275 c 1028
EndSplineSet
Layer: 2
SplineSet
18 229 m 0
 18 271 50 291 102 291 c 0
 170 291 235 284 268 279 c 1
 263 264 l 1
 233 269 167 276 102 276 c 0
 60 276 38 262 38 229 c 0
 38 114 148 1 324 1 c 0
 541 1 721 131 721 319 c 0
 721 487 585 599 414 599 c 0
 250 599 130 531 75 455 c 1
 56 462 l 1
 115 543 243 615 414 615 c 0
 599 615 743 494 743 319 c 4
 743 122 553 -15 324 -15 c 0
 134 -15 18 107 18 229 c 0
EndSplineSet
Layer: 3
SplineSet
56 246 m 4
 55 242 55 237 55 232 c 4
 57 117 164 12 329 12 c 4
 532 12 699 140 699 317 c 4
 699 482 568 588 409 588 c 4
 255 588 142 521 91 448 c 5
 86 448 53 457 48 459 c 5
 106 540 236 616 417 616 c 4
 611 616 750 493 750 321 c 4
 750 119 550 -16 320 -16 c 4
 123 -16 10 109 10 229 c 4
 10 278 51 298 107 298 c 4
 179 298 245 290 277 285 c 5
 276 282 268 262 267 259 c 4
 238 264 177 271 113 271 c 4
 83 271 64 263 56 246 c 4
EndSplineSet
Layer: 4
SplineSet
72 244 m 0
 72 241 72 238 72 235 c 0
 76 119 181 24 335 24 c 0
 525 24 679 148 679 314 c 0
 679 476 550 576 404 576 c 0
 260 576 156 510 109 441 c 1
 99 441 50 452 41 456 c 1
 97 537 231 617 422 617 c 0
 624 617 758 491 758 322 c 0
 758 116 549 -17 318 -17 c 4
 115 -17 3 111 3 228 c 0
 3 283 54 303 113 303 c 0
 189 303 256 294 287 289 c 1
 285 284 275 257 273 252 c 1
 244 257 188 264 125 264 c 0
 98 264 80 258 72 244 c 0
EndSplineSet
Layer: 5
SplineSet
90 255 m 1
 89 238 l 1
 95 122 197 35 340 35 c 0
 516 35 657 156 657 312 c 0
 657 471 533 565 399 565 c 0
 265 565 169 499 125 433 c 1
 110 433 46 446 32 453 c 1
 87 533 224 618 425 618 c 0
 636 618 765 491 765 324 c 0
 765 113 545 -18 314 -18 c 4
 104 -18 -5 113 -5 228 c 0
 -5 290 55 309 118 309 c 0
 197 309 265 300 295 295 c 1
 292 287 279 254 277 246 c 1
 249 251 184 259 121 259 c 0
 109 259 98 258 90 255 c 1
EndSplineSet
Layer: 6
SplineSet
106 251 m 5
 106 241 l 5
 114 125 214 47 346 47 c 4
 508 47 637 165 637 310 c 4
 637 466 517 553 395 553 c 4
 271 553 182 488 142 426 c 5
 122 426 43 441 25 450 c 5
 78 530 218 619 429 619 c 4
 648 619 773 490 773 326 c 4
 773 110 543 -19 311 -19 c 4
 95 -19 -12 114 -12 227 c 4
 -12 295 58 315 124 315 c 4
 207 315 276 305 305 300 c 5
 301 290 285 251 282 240 c 5
 254 245 190 253 128 253 c 4
 120 253 112 252 106 251 c 5
EndSplineSet
Layer: 7
SplineSet
122 247 m 2
 122 243 l 1
 132 126 228 58 350 58 c 0
 499 58 614 173 614 307 c 0
 614 461 497 542 388 542 c 0
 275 542 194 478 158 419 c 1
 133 419 39 436 16 447 c 1
 68 527 211 620 432 620 c 0
 660 620 780 488 780 327 c 0
 780 107 540 -20 307 -20 c 4
 84 -20 -20 117 -20 227 c 0
 -20 302 58 321 128 321 c 0
 215 321 284 310 313 304 c 1
 307 291 290 247 286 234 c 1
 259 239 195 248 134 248 c 0
 130 248 126 247 122 247 c 2
EndSplineSet
Layer: 8
SplineSet
138 242 m 1
 152 128 245 70 355 70 c 0
 490 70 593 182 593 305 c 0
 593 456 480 530 383 530 c 0
 280 530 206 467 174 412 c 1
 144 412 35 431 8 444 c 1
 58 524 204 621 435 621 c 0
 671 621 787 487 787 329 c 0
 787 104 537 -21 303 -21 c 4
 74 -21 -28 118 -28 226 c 0
 -28 307 60 327 133 327 c 0
 224 327 294 315 322 309 c 1
 315 294 295 244 290 228 c 1
 263 233 200 242 140 242 c 0
 139 242 139 242 138 242 c 1
EndSplineSet
Layer: 9
SplineSet
158 237 m 1
 177 129 265 81 361 81 c 0
 482 81 572 190 572 303 c 0
 572 451 464 519 379 519 c 0
 286 519 220 456 191 404 c 1
 156 404 32 425 0 441 c 1
 49 520 198 622 439 622 c 0
 684 622 795 487 795 331 c 0
 795 101 534 -22 300 -22 c 4
 64 -22 -35 120 -35 226 c 0
 -35 314 62 333 139 333 c 0
 233 333 304 321 331 315 c 1
 323 297 300 241 295 222 c 1
 271 227 215 236 158 237 c 1
EndSplineSet
Layer: 10
SplineSet
176 230 m 1
 200 129 283 93 366 93 c 0
 474 93 551 198 551 300 c 0
 551 445 445 507 373 507 c 0
 290 507 233 445 208 397 c 1
 168 397 28 420 -8 438 c 1
 39 517 192 623 443 623 c 0
 696 623 802 485 802 332 c 0
 802 98 532 -23 297 -23 c 4
 55 -23 -43 122 -43 225 c 0
 -43 319 64 338 144 338 c 0
 242 338 314 325 340 319 c 1
 331 299 306 236 300 215 c 1
 277 219 227 228 176 230 c 1
EndSplineSet
Layer: 11
SplineSet
197 224 m 1
 224 131 301 104 372 104 c 0
 466 104 530 207 530 298 c 0
 530 440 429 496 369 496 c 0
 296 496 246 435 225 390 c 1
 180 390 26 415 -15 435 c 1
 31 514 186 624 447 624 c 0
 709 624 810 484 810 334 c 4
 810 95 530 -24 294 -24 c 0
 45 -24 -50 124 -50 225 c 0
 -50 326 66 345 150 345 c 0
 252 345 325 331 350 325 c 1
 340 302 312 234 305 210 c 1
 285 214 243 221 197 224 c 1
EndSplineSet
EndChar

StartChar: uni0E19
Encoding: 3609 3609 3
Width: 795
VWidth: 0
Flags: HW
HStem: -24 105<553 709.5>
VStem: 285 125<255.04 433.774> 631 64<151.077 179.973> 695 180<60 212.5>
LayerCount: 12
Back
SplineSet
185 585 m 4
 161 420 133 104 133 30 c 5
 151 52 246 137 327 179 c 4
 426.658107439 230.674574228 520 255 630 255 c 4
 704.01171875 255 778 212 778 124 c 4
 778 42 704 15 644 15 c 4
 592 15 515 44 515 150 c 4
 515 249 539 389 595 590 c 1028
EndSplineSet
Layer: 2
SplineSet
72 -2 m 1
 72 165 90 431 114 604 c 1
 137 606 l 5
 116 439 96 171 94 18 c 1
 237 125 393 194 512 236 c 1
 522 374 552 508 586 604 c 1
 608 606 l 1
 573 501 545 375 534 243 c 1
 552 247 588 256 641 256 c 0
 725 256 807 208 807 110 c 0
 807 30 741 -15 654 -15 c 0
 594 -15 508 19 508 135 c 0
 508 162 509 190 511 217 c 1
 399 177 232 98 94 -2 c 1
 94 -2 90 -3 83 -3 c 0
 76 -3 72 -2 72 -2 c 1
656 0 m 0
 733 0 788 40 788 107 c 0
 788 196 713 241 639 241 c 0
 591 241 552 230 532 224 c 1
 530 196 529 165 529 137 c 0
 529 27 605 0 656 0 c 0
EndSplineSet
Layer: 3
SplineSet
65 -2 m 4
 65 160 84 434 107 602 c 5
 112 602 155 606 159 606 c 5
 139 451 118 193 115 37 c 5
 240 130 383 197 501 239 c 5
 512 373 541 505 574 603 c 5
 582 604 618 606 624 606 c 5
 589 500 560 379 549 253 c 5
 569 257 600 263 641 263 c 4
 734 263 815 212 815 114 c 4
 815 28 742 -16 652 -16 c 4
 581 -16 497 23 497 137 c 4
 497 161 498 185 499 210 c 5
 389 169 239 94 115 -2 c 4
 113 -2 101 -4 90 -4 c 4
 78 -4 68 -3 65 -2 c 4
656 9 m 4
 727 9 778 47 778 111 c 4
 778 196 709 238 636 238 c 4
 599 238 568 232 547 226 c 5
 544 199 540 168 540 138 c 4
 540 35 608 9 656 9 c 4
EndSplineSet
Layer: 4
SplineSet
57 -2 m 5
 57 155 77 438 100 601 c 5
 110 601 171 605 180 606 c 5
 161 463 140 213 135 54 c 5
 244 135 372 200 489 241 c 5
 499 371 528 502 560 602 c 5
 575 603 627 606 639 606 c 5
 605 500 575 381 563 262 c 5
 582 266 608 269 640 269 c 4
 742 269 822 217 822 119 c 4
 822 28 742 -17 649 -17 c 4
 567 -17 485 26 485 138 c 4
 485 160 486 182 487 204 c 5
 381 162 244 88 134 -3 c 4
 130 -4 112 -5 96 -5 c 4
 79 -5 63 -3 57 -2 c 5
656 18 m 4
 721 18 767 53 767 114 c 4
 767 194 703 235 631 235 c 4
 603 235 577 230 558 226 c 5
 554 200 549 171 549 140 c 4
 549 43 611 18 656 18 c 4
EndSplineSet
Layer: 5
SplineSet
50 -1 m 5
 50 151 71 442 93 599 c 5
 108 600 189 605 202 606 c 5
 184 473 163 235 157 74 c 5
 251 144 367 204 479 244 c 5
 490 370 517 498 548 601 c 5
 571 603 638 606 656 606 c 5
 622 500 591 384 578 271 c 5
 595 274 615 276 639 276 c 4
 751 276 830 221 830 123 c 4
 830 26 741 -18 646 -18 c 4
 553 -18 474 30 474 140 c 4
 474 159 474 179 475 198 c 5
 374 156 253 84 155 -3 c 4
 150 -4 122 -6 102 -6 c 4
 80 -6 59 -3 50 -1 c 5
656 27 m 4
 715 27 757 60 757 118 c 4
 757 194 699 232 628 232 c 4
 607 232 588 230 572 227 c 5
 567 202 560 172 560 141 c 4
 560 51 613 27 656 27 c 4
EndSplineSet
Layer: 6
SplineSet
42 -1 m 5
 42 146 64 446 85 598 c 5
 105 599 206 604 223 606 c 5
 207 483 185 254 177 93 c 5
 258 153 361 208 467 246 c 5
 477 369 503 495 534 600 c 5
 564 603 647 606 671 606 c 5
 637 499 606 386 592 279 c 5
 606 281 621 282 638 282 c 4
 759 282 837 226 837 128 c 4
 837 25 741 -19 643 -19 c 4
 539 -19 462 34 462 142 c 4
 462 158 462 174 463 190 c 5
 367 148 260 79 174 -4 c 4
 167 -6 132 -7 108 -7 c 4
 81 -7 54 -3 42 -1 c 5
655 36 m 4
 708 36 746 67 746 122 c 4
 746 193 694 229 624 229 c 4
 609 229 595 228 582 226 c 5
 576 202 569 174 569 143 c 4
 569 59 615 36 655 36 c 4
EndSplineSet
Layer: 7
SplineSet
35 -1 m 5
 35 142 58 449 79 596 c 5
 105 597 222 604 244 606 c 5
 228 492 207 273 199 112 c 5
 268 162 358 213 456 249 c 5
 466 368 492 493 522 599 c 5
 560 602 657 606 687 606 c 5
 654 499 621 389 607 288 c 5
 617 289 627 289 638 289 c 4
 768 289 845 231 845 132 c 4
 845 24 742 -20 641 -20 c 4
 527 -20 451 36 451 143 c 4
 451 156 452 169 452 182 c 5
 364 140 268 74 195 -4 c 5
 186 -6 144 -8 115 -8 c 4
 82 -8 49 -4 35 -1 c 5
656 45 m 4
 702 45 737 74 737 125 c 4
 737 192 688 227 620 227 c 4
 611 227 602 227 594 226 c 5
 587 203 580 174 580 144 c 4
 580 67 619 45 656 45 c 4
EndSplineSet
Layer: 8
SplineSet
27 -1 m 5
 27 137 51 453 71 595 c 5
 102 596 239 603 265 606 c 5
 251 501 229 293 219 132 c 5
 277 174 355 218 444 251 c 5
 454 367 478 490 508 598 c 5
 553 602 666 606 702 606 c 5
 669 498 636 391 621 295 c 5
 626 295 631 295 637 295 c 4
 776 295 852 236 852 137 c 4
 852 23 742 -21 638 -21 c 4
 513 -21 439 40 439 145 c 4
 439 154 439 164 439 173 c 5
 358 131 277 68 214 -5 c 5
 203 -8 154 -9 121 -9 c 4
 83 -9 44 -4 27 -1 c 5
655 54 m 4
 695 54 726 81 726 129 c 4
 726 191 683 224 616 224 c 4
 612 224 607 224 603 224 c 5
 596 202 589 175 589 146 c 4
 589 75 621 54 655 54 c 4
EndSplineSet
Layer: 9
SplineSet
20 0 m 1
 20 133 45 457 64 593 c 1
 100 595 257 603 287 606 c 1
 273 509 253 312 242 153 c 1
 291 188 356 224 433 254 c 1
 443 366 467 487 496 597 c 1
 549 602 677 606 719 606 c 1
 686 498 652 393 636 302 c 1
 785 302 860 240 860 141 c 0
 860 21 741 -22 635 -22 c 4
 499 -22 428 44 428 147 c 0
 428 153 428 158 428 164 c 1
 356 122 287 63 235 -5 c 1
 223 -8 164 -10 127 -10 c 0
 84 -10 40 -4 20 0 c 1
655 63 m 0
 689 63 716 88 716 133 c 0
 716 191 679 221 613 221 c 1
 606 200 600 175 600 147 c 0
 600 83 623 63 655 63 c 0
EndSplineSet
Layer: 10
SplineSet
12 0 m 5
 12 128 38 461 57 592 c 5
 98 594 273 602 308 606 c 5
 295 517 275 329 263 172 c 5
 303 200 357 230 421 256 c 5
 431 365 454 484 482 596 c 5
 542 601 686 606 734 606 c 5
 702 497 667 394 650 308 c 5
 798 304 867 242 867 146 c 4
 867 21 741 -23 632 -23 c 4
 485 -23 416 47 416 148 c 4
 416 150 416 152 416 154 c 5
 353 113 296 57 254 -6 c 5
 240 -10 175 -11 133 -11 c 4
 85 -11 35 -4 12 0 c 5
655 72 m 4
 683 72 705 94 705 136 c 4
 705 185 677 214 621 218 c 5
 614 198 609 174 609 149 c 4
 609 91 626 72 655 72 c 4
EndSplineSet
Layer: 11
SplineSet
5 0 m 1xd0
 5 123 32 464 50 590 c 1
 96 592 291 602 330 606 c 1
 318 525 297 347 285 193 c 1
 318 215 360 237 410 258 c 1
 420 364 443 482 470 595 c 1
 538 601 696 606 750 606 c 1
 718 496 683 395 666 314 c 1
 812 306 875 243 875 150 c 0
 875 19 742 -24 630 -24 c 4
 477 -24 409 47 405 141 c 1
 353 102 308 51 275 -6 c 1
 259 -10 186 -12 140 -12 c 0
 87 -12 31 -5 5 0 c 1xd0
631 213 m 1xe0
 625 194 620 173 620 150 c 0
 620 99 629 81 655 81 c 0
 677 81 695 101 695 140 c 0xd0
 695 182 676 207 631 213 c 1xe0
EndSplineSet
EndChar

StartChar: uni0E15
Encoding: 3605 3605 4
Width: 930
VWidth: 0
Flags: HW
HStem: -24 105<171 351.5> 243 102<288 334> 385 96<422 550>
VStem: 10 245<75 228> 360 210<70.5 235.5>
LayerCount: 12
Back
SplineSet
723 40 m 4
 774 291 797 496 797 595 c 5
 714 492 616 433 480 433 c 4
 343 433 265 512 213 590 c 5
 155 483 133 264 133 165 c 4
 133 46 227 15 291 15 c 4
 365 15 456 46 456 138 c 4
 456 237 376 285 246 285 c 4
 196 285 163 274 150 270 c 1028
EndSplineSet
Layer: 2
SplineSet
77 150 m 4
 77 321 113 485 155 604 c 5
 177 606 l 5
 231 517 338 440 492 440 c 4
 646 440 769 510 853 610 c 4
 855 611 869 612 872 612 c 5
 872 467 839 220 797 0 c 4
 795 0 777 -2 775 -3 c 5
 823 260 846 421 852 586 c 5
 764 486 640 426 482 426 c 4
 333 426 224 500 169 581 c 5
 138 483 113 374 103 253 c 5
 133 263 206 283 282 283 c 4
 413 283 502 236 502 140 c 4
 502 34 392 -15 277 -15 c 4
 188 -15 77 20 77 150 c 4
101 236 m 5
 99 208 98 179 98 150 c 4
 98 29 207 0 287 0 c 4
 380 0 481 50 481 135 c 4
 481 226 404 268 267 268 c 4
 208 268 134 248 101 236 c 5
EndSplineSet
Layer: 3
SplineSet
70 150 m 4
 70 316 106 480 147 603 c 5
 155 604 191 606 197 606 c 5
 250 518 353 445 496 445 c 4
 637 445 753 508 834 608 c 5
 842 610 871 612 880 612 c 5
 878 459 845 209 806 1 c 5
 801 1 762 -2 755 -4 c 5
 799 234 823 409 832 563 c 5
 747 476 630 421 479 421 c 4
 342 421 239 485 181 557 c 5
 154 467 132 372 123 267 c 5
 157 277 219 290 281 290 c 4
 421 290 510 240 510 143 c 4
 510 33 390 -16 274 -16 c 4
 177 -16 70 23 70 150 c 4
121 241 m 5
 119 212 116 181 116 150 c 4
 116 37 214 9 289 9 c 4
 375 9 468 57 468 137 c 4
 468 224 395 265 264 265 c 4
 216 265 156 251 121 241 c 5
EndSplineSet
Layer: 4
SplineSet
62 150 m 0
 62 312 96 475 137 602 c 1
 152 603 204 606 216 606 c 1
 269 518 368 449 500 449 c 0
 628 449 736 507 814 607 c 1
 828 609 872 612 887 612 c 1
 883 451 850 200 813 3 c 1
 806 3 746 -3 734 -5 c 1
 773 209 800 394 810 542 c 1
 728 466 618 417 475 417 c 0
 349 417 253 472 194 536 c 1
 170 454 152 369 143 279 c 1
 177 287 228 297 279 297 c 0
 428 297 517 244 517 146 c 0
 517 33 387 -17 271 -17 c 4
 167 -17 62 27 62 150 c 0
140 245 m 1
 137 215 133 181 133 150 c 0
 133 45 221 18 290 18 c 0
 369 18 454 64 454 139 c 0
 454 222 387 263 261 263 c 0
 222 263 174 254 140 245 c 1
EndSplineSet
Layer: 5
SplineSet
55 150 m 4
 55 307 89 470 129 601 c 5
 152 603 219 606 237 606 c 5
 289 519 384 454 504 454 c 4
 620 454 722 506 796 605 c 5
 816 608 875 612 895 612 c 5
 890 443 856 189 822 4 c 5
 812 4 731 -3 714 -6 c 5
 750 186 777 378 790 522 c 5
 710 455 607 412 472 412 c 4
 358 412 269 458 209 514 c 5
 189 441 174 367 165 291 c 5
 197 298 238 304 278 304 c 4
 436 304 525 248 525 148 c 4
 525 31 385 -18 268 -18 c 4
 156 -18 55 30 55 150 c 4
160 248 m 5
 156 218 151 182 151 150 c 4
 151 52 228 27 292 27 c 4
 365 27 441 72 441 142 c 4
 441 220 378 260 258 260 c 4
 227 260 190 254 160 248 c 5
EndSplineSet
Layer: 6
SplineSet
47 150 m 4
 47 302 79 465 119 600 c 5
 149 603 232 606 256 606 c 5
 308 519 399 458 508 458 c 4
 611 458 705 505 776 604 c 5
 802 608 876 612 902 612 c 5
 895 435 860 178 829 5 c 5
 816 5 715 -3 693 -7 c 5
 725 165 754 360 768 503 c 5
 692 446 595 408 468 408 c 4
 364 408 282 446 224 495 c 5
 207 431 194 367 185 302 c 5
 213 307 245 311 276 311 c 4
 443 311 532 252 532 151 c 4
 532 31 383 -19 265 -19 c 4
 145 -19 47 34 47 150 c 4
178 250 m 5
 174 219 168 181 168 150 c 4
 168 60 235 36 293 36 c 4
 359 36 427 79 427 144 c 4
 427 218 370 258 255 258 c 4
 231 258 203 255 178 250 c 5
EndSplineSet
Layer: 7
SplineSet
40 150 m 4
 40 298 72 461 111 599 c 5
 149 602 246 606 276 606 c 5
 327 520 414 463 512 463 c 4
 602 463 689 503 757 602 c 5
 789 606 878 612 910 612 c 5
 901 427 867 169 838 7 c 5
 823 7 700 -4 672 -8 c 5
 701 146 730 342 746 485 c 5
 674 435 583 403 464 403 c 4
 371 403 295 435 239 477 c 5
 225 421 213 367 205 312 c 5
 227 315 253 317 276 317 c 4
 452 317 540 256 540 154 c 4
 540 30 380 -20 262 -20 c 4
 135 -20 40 37 40 150 c 4
197 251 m 5
 192 219 185 181 185 150 c 4
 185 68 241 45 294 45 c 4
 353 45 414 85 414 146 c 4
 414 216 361 255 252 255 c 4
 235 255 216 253 197 251 c 5
EndSplineSet
Layer: 8
SplineSet
32 150 m 4
 32 293 62 456 101 598 c 5
 146 602 259 606 295 606 c 5
 346 520 429 467 516 467 c 4
 593 467 672 502 737 601 c 5
 775 606 879 612 917 612 c 5
 906 419 871 158 845 8 c 5
 827 8 684 -4 651 -9 c 5
 677 128 706 325 723 469 c 5
 655 427 570 399 460 399 c 4
 377 399 308 424 254 460 c 5
 242 412 233 366 226 321 c 5
 242 323 258 324 274 324 c 4
 459 324 547 260 547 157 c 4
 547 30 378 -21 259 -21 c 4
 124 -21 32 41 32 150 c 4
215 251 m 5
 209 219 202 180 202 150 c 4
 202 76 248 54 295 54 c 4
 347 54 400 92 400 148 c 4
 400 214 353 253 249 253 c 4
 238 253 227 252 215 251 c 5
EndSplineSet
Layer: 9
SplineSet
25 150 m 4
 25 288 55 451 93 597 c 5
 146 602 274 606 316 606 c 5
 366 521 445 472 520 472 c 4
 585 472 658 501 719 599 c 5
 763 605 882 612 925 612 c 5
 913 411 877 147 854 9 c 5
 833 9 669 -4 631 -10 c 5
 655 112 684 308 702 453 c 5
 637 417 558 394 457 394 c 4
 384 394 321 415 271 444 c 5
 261 405 253 367 247 330 c 5
 256 331 265 331 273 331 c 4
 467 331 555 264 555 159 c 4
 555 28 376 -22 256 -22 c 4
 113 -22 25 44 25 150 c 4
234 250 m 4
 228 218 220 180 220 150 c 4
 220 83 255 63 297 63 c 4
 343 63 387 100 387 151 c 4
 387 212 344 250 246 250 c 4
 242 250 238 250 234 250 c 4
EndSplineSet
Layer: 10
SplineSet
17 150 m 4
 17 284 45 446 83 596 c 5
 143 601 287 606 335 606 c 5
 385 521 460 476 524 476 c 4
 576 476 641 500 699 598 c 5
 749 604 883 612 932 612 c 5
 918 403 882 138 861 11 c 5
 838 11 653 -5 610 -11 c 5
 631 97 660 293 680 439 c 5
 619 409 545 390 453 390 c 4
 389 390 333 405 287 429 c 5
 279 397 272 367 267 338 c 5
 268 338 270 338 271 338 c 4
 474 338 562 268 562 162 c 4
 562 28 373 -23 253 -23 c 4
 103 -23 17 48 17 150 c 4
251 248 m 5
 244 216 237 179 237 150 c 4
 237 91 262 72 298 72 c 4
 337 72 373 107 373 153 c 4
 373 208 338 246 251 248 c 5
EndSplineSet
Layer: 11
SplineSet
10 150 m 4
 10 279 38 441 75 595 c 5
 143 601 301 606 355 606 c 5
 404 522 475 481 528 481 c 4
 567 481 625 498 680 596 c 5
 736 603 885 612 940 612 c 5
 924 395 888 127 870 12 c 5
 844 12 638 -5 590 -12 c 5
 609 83 638 277 658 425 c 5
 601 400 533 385 450 385 c 4
 394 385 346 397 304 416 c 5
 298 391 292 368 288 345 c 5
 487 341 570 269 570 165 c 4
 570 27 371 -24 250 -24 c 4
 92 -24 10 51 10 150 c 4
268 243 m 5
 261 212 255 177 255 150 c 4
 255 99 269 81 300 81 c 4
 332 81 360 114 360 155 c 4
 360 202 334 236 268 243 c 5
EndSplineSet
EndChar

StartChar: uni0E190E15.liga
Encoding: 1114112 -1 5
Width: 1325
VWidth: 0
Flags: HW
HStem: -15 15<592.5 781> 268 15<602 803.5> 426 14<730.5 1037>
VStem: 72 22<18 165> 472 21<29 179> 876 21<42 231>
LayerCount: 12
Back
SplineSet
187 585 m 0
 152 420 118 34 143 30 c 1
 161 52 226 141 327 194 c 0
 431 248 530 285 628 285 c 4
 758 285 838 237 838 138 c 0
 838 46 747 15 673 15 c 0
 609 15 515 46 515 165 c 0
 515 264 541 389 590 590 c 1024
EndSplineSet
Layer: 2
SplineSet
72 -2 m 5
 72 165 90 431 114 604 c 5
 137 606 l 5
 116 440 96 171 94 18 c 5
 235 128 342 190 476 245 c 5
 486 381 516 507 550 604 c 5
 572 606 l 5
 626 517 733 440 887 440 c 4
 1041 440 1164 510 1248 610 c 4
 1250 611 1264 612 1267 612 c 5
 1267 467 1234 220 1192 0 c 4
 1190 0 1172 -2 1170 -3 c 5
 1218 260 1241 421 1247 586 c 5
 1159 486 1035 426 877 426 c 4
 728 426 619 500 564 581 c 5
 533 483 508 374 498 253 c 5
 528 263 601 283 677 283 c 4
 808 283 897 236 897 140 c 4
 897 34 787 -15 672 -15 c 4
 583 -15 472 20 472 150 c 4
 472 176 472 202 474 227 c 5
 351 173 235 110 94 -2 c 5
 94 -2 90 -3 83 -3 c 4
 76 -3 72 -2 72 -2 c 5
496 236 m 5
 494 208 493 179 493 150 c 4
 493 29 602 0 682 0 c 4
 775 0 876 50 876 135 c 4
 876 226 799 268 662 268 c 4
 603 268 529 248 496 236 c 5
EndSplineSet
Layer: 3
SplineSet
65 -2 m 4
 65 160 84 434 107 602 c 5
 112 602 155 606 159 606 c 5
 139 452 118 194 115 37 c 5
 238 133 341 197 469 249 c 5
 480 380 509 505 542 603 c 5
 550 604 586 606 592 606 c 5
 645 518 748 445 891 445 c 4
 1032 445 1148 508 1229 608 c 5
 1237 610 1266 612 1275 612 c 5
 1273 459 1240 209 1201 1 c 5
 1196 1 1157 -2 1150 -4 c 5
 1194 234 1218 409 1227 563 c 5
 1142 476 1025 421 874 421 c 4
 737 421 634 485 576 557 c 5
 549 467 527 372 518 267 c 5
 552 277 614 290 676 290 c 4
 816 290 905 240 905 143 c 4
 905 33 785 -16 669 -16 c 4
 572 -16 465 23 465 150 c 4
 465 174 466 198 467 222 c 5
 351 170 242 104 115 -2 c 4
 113 -2 101 -4 90 -4 c 4
 78 -4 68 -3 65 -2 c 4
516 241 m 5
 514 212 511 181 511 150 c 4
 511 37 609 9 684 9 c 4
 770 9 863 57 863 137 c 4
 863 224 790 265 659 265 c 4
 611 265 551 251 516 241 c 5
EndSplineSet
Layer: 4
SplineSet
57 -2 m 5
 57 155 77 438 100 601 c 5
 110 601 171 605 180 606 c 5
 161 463 140 214 135 55 c 5
 241 139 339 205 461 254 c 5
 471 380 500 502 532 602 c 5
 547 603 599 606 611 606 c 5
 664 518 763 449 895 449 c 4
 1023 449 1131 507 1209 607 c 5
 1223 609 1267 612 1282 612 c 5
 1278 451 1245 200 1208 3 c 5
 1201 3 1141 -3 1129 -5 c 5
 1168 209 1195 394 1205 542 c 5
 1123 466 1013 417 870 417 c 4
 744 417 648 472 589 536 c 5
 565 454 547 369 538 279 c 5
 572 287 623 297 674 297 c 4
 823 297 912 244 912 146 c 4
 912 33 782 -17 666 -17 c 4
 562 -17 457 27 457 150 c 4
 457 172 458 195 459 217 c 5
 350 167 247 97 134 -3 c 4
 130 -4 112 -5 96 -5 c 4
 79 -5 63 -3 57 -2 c 5
535 245 m 5
 532 215 528 181 528 150 c 4
 528 45 616 18 685 18 c 4
 764 18 849 64 849 139 c 4
 849 222 782 263 656 263 c 4
 617 263 569 254 535 245 c 5
EndSplineSet
Layer: 5
SplineSet
50 -1 m 5
 50 151 71 442 93 599 c 5
 108 600 189 605 202 606 c 5
 184 473 163 237 157 76 c 5
 247 148 340 212 455 258 c 5
 466 380 493 500 524 601 c 5
 547 603 614 606 632 606 c 5
 684 519 779 454 899 454 c 4
 1015 454 1117 506 1191 605 c 5
 1211 608 1270 612 1290 612 c 5
 1285 443 1251 189 1217 4 c 5
 1207 4 1126 -3 1109 -6 c 5
 1145 186 1172 378 1185 522 c 5
 1105 455 1002 412 867 412 c 4
 753 412 664 458 604 514 c 5
 584 441 569 367 560 291 c 5
 592 298 633 304 673 304 c 4
 831 304 920 248 920 148 c 4
 920 31 780 -18 663 -18 c 4
 551 -18 450 30 450 150 c 4
 450 171 451 191 452 212 c 5
 351 163 255 91 155 -3 c 4
 150 -4 122 -6 102 -6 c 4
 80 -6 59 -3 50 -1 c 5
555 248 m 5
 551 218 546 182 546 150 c 4
 546 52 623 27 687 27 c 4
 760 27 836 72 836 142 c 4
 836 220 773 260 653 260 c 4
 622 260 585 254 555 248 c 5
EndSplineSet
Layer: 6
SplineSet
42 -1 m 5
 42 146 64 446 85 598 c 5
 105 599 206 604 223 606 c 5
 207 483 185 256 177 95 c 5
 254 158 340 219 447 263 c 5
 458 380 484 498 514 600 c 5
 544 603 627 606 651 606 c 5
 703 519 794 458 903 458 c 4
 1006 458 1100 505 1171 604 c 5
 1197 608 1271 612 1297 612 c 5
 1290 435 1255 178 1224 5 c 5
 1211 5 1110 -3 1088 -7 c 5
 1120 165 1149 360 1163 503 c 5
 1087 446 990 408 863 408 c 4
 759 408 677 446 619 495 c 5
 602 431 589 367 580 302 c 5
 608 307 640 311 671 311 c 4
 838 311 927 252 927 151 c 4
 927 31 778 -19 660 -19 c 4
 540 -19 442 34 442 150 c 4
 442 168 442 187 443 206 c 5
 350 157 261 84 174 -4 c 4
 167 -6 132 -7 108 -7 c 4
 81 -7 54 -3 42 -1 c 5
573 250 m 5
 569 219 563 181 563 150 c 4
 563 60 630 36 688 36 c 4
 754 36 822 79 822 144 c 4
 822 218 765 258 650 258 c 4
 626 258 598 255 573 250 c 5
EndSplineSet
Layer: 7
SplineSet
35 -1 m 5
 35 142 58 449 79 596 c 5
 105 597 222 604 244 606 c 5
 228 493 208 276 199 115 c 5
 264 169 343 225 441 266 c 5
 452 380 477 496 506 599 c 5
 544 602 641 606 671 606 c 5
 722 520 809 463 907 463 c 4
 997 463 1084 503 1152 602 c 5
 1184 606 1273 612 1305 612 c 5
 1296 427 1262 169 1233 7 c 5
 1218 7 1095 -4 1067 -8 c 5
 1096 146 1125 342 1141 485 c 5
 1069 435 978 403 859 403 c 4
 766 403 690 435 634 477 c 5
 620 421 608 367 600 312 c 5
 622 315 648 317 671 317 c 4
 847 317 935 256 935 154 c 4
 935 30 775 -20 657 -20 c 4
 530 -20 435 37 435 150 c 4
 435 166 435 183 436 200 c 5
 350 152 270 79 195 -4 c 5
 186 -6 144 -8 115 -8 c 4
 82 -8 49 -4 35 -1 c 5
592 251 m 5
 587 219 580 181 580 150 c 4
 580 68 636 45 689 45 c 4
 748 45 809 85 809 146 c 4
 809 216 756 255 647 255 c 4
 630 255 611 253 592 251 c 5
EndSplineSet
Layer: 8
SplineSet
27 -1 m 5
 27 137 51 453 71 595 c 5
 102 596 239 603 265 606 c 5
 251 502 229 295 219 135 c 5
 274 181 345 233 433 271 c 5
 444 381 468 495 496 598 c 5
 541 602 654 606 690 606 c 5
 741 520 824 467 911 467 c 4
 988 467 1067 502 1132 601 c 5
 1170 606 1274 612 1312 612 c 5
 1301 419 1266 158 1240 8 c 5
 1222 8 1079 -4 1046 -9 c 5
 1072 128 1101 325 1118 469 c 5
 1050 427 965 399 855 399 c 4
 772 399 703 424 649 460 c 5
 637 412 628 366 621 321 c 5
 637 323 653 324 669 324 c 4
 854 324 942 260 942 157 c 4
 942 30 773 -21 654 -21 c 4
 519 -21 427 41 427 150 c 4
 427 164 427 178 428 192 c 5
 350 143 277 72 214 -5 c 5
 203 -8 154 -9 121 -9 c 4
 83 -9 44 -4 27 -1 c 5
610 251 m 5
 604 219 597 180 597 150 c 4
 597 76 643 54 690 54 c 4
 742 54 795 92 795 148 c 4
 795 214 748 253 644 253 c 4
 633 253 622 252 610 251 c 5
EndSplineSet
Layer: 9
SplineSet
20 0 m 5
 20 133 45 457 64 593 c 5
 100 595 257 603 287 606 c 5
 273 510 253 316 242 158 c 5
 289 197 351 241 427 275 c 5
 438 381 461 493 488 597 c 5
 541 602 669 606 711 606 c 5
 761 521 840 472 915 472 c 4
 980 472 1053 501 1114 599 c 5
 1158 605 1277 612 1320 612 c 5
 1308 411 1272 147 1249 9 c 5
 1228 9 1064 -4 1026 -10 c 5
 1050 112 1079 308 1097 453 c 5
 1032 417 953 394 852 394 c 4
 779 394 716 415 666 444 c 5
 656 405 648 367 642 330 c 5
 651 331 660 331 668 331 c 4
 862 331 950 264 950 159 c 4
 950 28 771 -22 651 -22 c 4
 508 -22 420 44 420 150 c 4
 420 161 421 172 421 183 c 5
 351 134 288 65 235 -5 c 5
 223 -8 164 -10 127 -10 c 4
 84 -10 40 -4 20 0 c 5
629 250 m 4
 623 218 615 180 615 150 c 4
 615 83 650 63 692 63 c 4
 738 63 782 100 782 151 c 4
 782 212 739 250 641 250 c 4
 637 250 633 250 629 250 c 4
EndSplineSet
Layer: 10
SplineSet
12 0 m 5
 12 128 38 461 57 592 c 5
 98 594 273 602 308 606 c 5
 296 518 275 335 263 179 c 5
 303 212 355 250 419 280 c 5
 430 382 452 492 478 596 c 5
 538 601 682 606 730 606 c 5
 780 521 855 476 919 476 c 4
 971 476 1036 500 1094 598 c 5
 1144 604 1278 612 1327 612 c 5
 1313 403 1277 138 1256 11 c 5
 1233 11 1048 -5 1005 -11 c 5
 1026 97 1055 293 1075 439 c 5
 1014 409 940 390 848 390 c 4
 784 390 728 405 682 429 c 5
 674 397 667 367 662 338 c 5
 663 338 665 338 666 338 c 4
 869 338 957 268 957 162 c 4
 957 28 768 -23 648 -23 c 4
 498 -23 412 48 412 150 c 4
 412 157 412 165 412 172 c 5
 351 123 296 58 254 -6 c 5
 240 -10 175 -11 133 -11 c 4
 85 -11 35 -4 12 0 c 5
646 248 m 5
 639 216 632 179 632 150 c 4
 632 91 657 72 693 72 c 4
 732 72 768 107 768 153 c 4
 768 208 733 246 646 248 c 5
EndSplineSet
Layer: 11
SplineSet
5 0 m 5
 5 123 32 464 50 590 c 5
 96 592 291 602 330 606 c 5
 318 526 298 354 286 202 c 5
 319 229 362 259 413 284 c 5
 424 383 445 491 470 595 c 5
 538 601 696 606 750 606 c 5
 799 522 870 481 923 481 c 4
 962 481 1020 498 1075 596 c 5
 1131 603 1280 612 1335 612 c 5
 1319 395 1283 127 1265 12 c 5
 1239 12 1033 -5 985 -12 c 5
 1004 83 1033 277 1053 425 c 5
 996 400 928 385 845 385 c 4
 789 385 741 397 699 416 c 5
 693 391 687 368 683 345 c 5
 882 341 965 269 965 165 c 4
 965 27 766 -24 645 -24 c 4
 487 -24 405 51 405 150 c 4
 405 153 405 156 405 159 c 5
 353 111 308 51 275 -6 c 5
 259 -10 186 -12 140 -12 c 4
 87 -12 31 -5 5 0 c 5
663 243 m 5
 656 212 650 177 650 150 c 4
 650 99 664 81 695 81 c 4
 727 81 755 114 755 155 c 4
 755 202 729 236 663 243 c 5
EndSplineSet
Colour: ff0000
EndChar

StartChar: uni0E4C
Encoding: 3660 3660 7
Width: 0
VWidth: 0
Flags: HW
HStem: 873 16<-212 -50>
VStem: -443 20<680 742>
LayerCount: 12
Back
SplineSet
-375 690 m 4
 -375 737 -339 782 -295 810 c 4
 -240 844 -155 864 -15 860 c 1028
EndSplineSet
Layer: 2
SplineSet
-397 675 m 5
 -397 742 -365 778 -315 807 c 0
 -259 840 -167 855 -46 855 c 0
 -34 855 -17 855 -7 854 c 0
 -7 852 -9 840 -10 838 c 0
 -21 839 -35 839 -47 839 c 0
 -168 839 -253 823 -303 794 c 0
 -348 768 -376 731 -376 677 c 1
 -379 677 -394 676 -397 675 c 5
EndSplineSet
Layer: 3
SplineSet
-405 675 m 1
 -405 740 -373 779 -320 810 c 0
 -260 846 -166 860 -44 860 c 0
 -31 860 -11 860 0 859 c 5
 -1 854 -6 835 -8 831 c 1
 -20 832 -36 832 -48 832 c 0
 -164 832 -242 817 -289 790 c 0
 -331 766 -359 730 -359 678 c 1
 -367 678 -397 677 -405 675 c 1
EndSplineSet
Layer: 4
SplineSet
-412 675 m 5
 -412 738 -381 779 -325 812 c 4
 -262 850 -163 865 -40 865 c 4
 -27 865 -5 865 8 864 c 5
 6 856 -1 832 -5 825 c 5
 -17 826 -36 826 -48 826 c 4
 -158 826 -230 810 -274 785 c 4
 -313 763 -341 729 -341 680 c 5
 -354 680 -399 677 -412 675 c 5
EndSplineSet
Layer: 5
SplineSet
-420 675 m 5
 -420 735 -388 780 -330 815 c 4
 -263 856 -162 870 -38 870 c 4
 -24 870 1 870 15 869 c 5
 12 858 1 827 -4 818 c 5
 -17 819 -36 819 -48 819 c 4
 -153 819 -220 805 -261 781 c 4
 -296 761 -323 728 -323 681 c 5
 -341 681 -401 678 -420 675 c 5
EndSplineSet
Layer: 6
SplineSet
-427 675 m 5
 -427 733 -396 780 -335 817 c 4
 -264 860 -159 875 -34 875 c 4
 -20 875 7 875 23 874 c 5
 19 860 6 823 -1 812 c 5
 -14 813 -36 813 -48 813 c 4
 -147 813 -208 799 -246 777 c 4
 -278 759 -305 728 -305 683 c 5
 -328 683 -403 678 -427 675 c 5
EndSplineSet
Layer: 7
SplineSet
-435 675 m 5
 -435 731 -404 781 -340 820 c 0
 -266 866 -159 880 -32 880 c 0
 -17 880 13 880 30 879 c 1
 26 863 9 819 1 805 c 1
 -13 805 -36 806 -49 806 c 0
 -143 806 -197 792 -232 772 c 0
 -261 755 -288 726 -288 684 c 1
 -317 684 -406 679 -435 675 c 5
EndSplineSet
Layer: 8
SplineSet
-442 675 m 5
 -442 729 -412 781 -345 822 c 4
 -267 870 -156 885 -28 885 c 4
 -13 885 19 885 38 884 c 5
 33 865 14 815 4 799 c 5
 -10 799 -36 800 -49 800 c 4
 -137 800 -185 786 -217 768 c 4
 -243 753 -270 726 -270 686 c 5
 -304 686 -408 679 -442 675 c 5
EndSplineSet
Layer: 9
SplineSet
-450 675 m 5
 -450 726 -419 782 -350 825 c 4
 -268 876 -155 890 -26 890 c 4
 -10 890 25 890 45 889 c 5
 39 867 16 810 5 792 c 5
 -10 792 -36 793 -49 793 c 4
 -132 793 -175 781 -204 764 c 4
 -226 751 -252 725 -252 687 c 5
 -291 687 -410 680 -450 675 c 5
EndSplineSet
Layer: 10
SplineSet
-457 675 m 5
 -457 724 -427 782 -355 827 c 4
 -270 880 -152 895 -22 895 c 4
 -6 895 31 895 53 894 c 5
 46 869 21 807 8 786 c 5
 -7 786 -36 787 -49 787 c 4
 -126 787 -163 774 -189 759 c 4
 -208 748 -234 724 -234 689 c 5
 -278 689 -412 680 -457 675 c 5
EndSplineSet
Layer: 11
SplineSet
-379 926 m 5
 -379 968 -352 1024 -284 1066 c 4
 -204 1116 -96 1129 22 1129 c 4
 37 1129 73 1129 94 1128 c 5
 87 1103 62 1041 49 1020 c 5
 35 1020 7 1021 -5 1021 c 4
 -70 1021 -97 1010 -118 998 c 4
 -132 990 -156 970 -156 940 c 5
 -200 940 -334 931 -379 926 c 5
EndSplineSet
EndChar

StartChar: uni0E40
Encoding: 3648 3648 9
Width: 345
VWidth: 0
Flags: W
LayerCount: 12
Layer: 2
SplineSet
150 -2 m 5
 150 165 168 431 192 604 c 5
 215 606 l 5
 193 432 172 147 172 -2 c 5
 172 -2 168 -3 161 -3 c 4
 154 -3 150 -2 150 -2 c 5
EndSplineSet
Layer: 3
SplineSet
135 -2 m 4
 135 160 154 434 177 602 c 5
 182 602 225 606 229 606 c 5
 207 438 185 147 185 -2 c 5
 183 -2 171 -4 160 -4 c 4
 148 -4 138 -3 135 -2 c 4
EndSplineSet
Layer: 4
SplineSet
120 -2 m 5
 120 155 140 438 163 601 c 5
 173 601 234 605 243 606 c 5
 222 444 197 146 197 -3 c 5
 193 -4 175 -5 159 -5 c 4
 142 -5 126 -3 120 -2 c 5
EndSplineSet
Layer: 5
SplineSet
105 -1 m 5
 105 151 126 442 148 599 c 5
 163 600 244 605 257 606 c 5
 236 449 210 147 210 -3 c 5
 205 -4 177 -6 157 -6 c 4
 135 -6 114 -3 105 -1 c 5
EndSplineSet
Layer: 6
SplineSet
90 -1 m 5
 90 146 112 446 133 598 c 5
 153 599 254 604 271 606 c 5
 251 455 222 146 222 -4 c 5
 215 -6 180 -7 156 -7 c 4
 129 -7 102 -3 90 -1 c 5
EndSplineSet
Layer: 7
SplineSet
75 -1 m 5
 75 142 98 449 119 596 c 5
 145 597 262 604 284 606 c 5
 264 461 235 146 235 -4 c 5
 226 -6 184 -8 155 -8 c 4
 122 -8 89 -4 75 -1 c 5
EndSplineSet
Layer: 8
SplineSet
60 -1 m 5
 60 137 84 453 104 595 c 5
 135 596 272 603 298 606 c 5
 279 467 247 145 247 -5 c 5
 236 -8 187 -9 154 -9 c 4
 116 -9 77 -4 60 -1 c 5
EndSplineSet
Layer: 9
SplineSet
45 0 m 5
 45 133 70 457 89 593 c 5
 125 595 282 603 312 606 c 5
 293 472 260 146 260 -5 c 5
 248 -8 189 -10 152 -10 c 4
 109 -10 65 -4 45 0 c 5
EndSplineSet
Layer: 10
SplineSet
30 0 m 5
 30 128 56 461 75 592 c 5
 116 594 291 602 326 606 c 5
 308 478 272 145 272 -6 c 5
 258 -10 193 -11 151 -11 c 4
 103 -11 53 -4 30 0 c 5
EndSplineSet
Layer: 11
SplineSet
15 0 m 5
 15 123 42 464 60 590 c 5
 106 592 301 602 340 606 c 5
 322 484 285 145 285 -6 c 5
 269 -10 196 -12 150 -12 c 4
 97 -12 41 -5 15 0 c 5
EndSplineSet
EndChar

StartChar: uni0E41
Encoding: 3649 3649 10
Width: 675
VWidth: 0
Flags: W
VStem: 150 22<-2 147> 470 22<-2 147>
LayerCount: 12
Layer: 2
SplineSet
150 -2 m 5
 150 165 168 431 192 604 c 5
 215 606 l 5
 193 432 172 147 172 -2 c 5
 172 -2 168 -3 161 -3 c 4
 154 -3 150 -2 150 -2 c 5
470 -2 m 1
 470 165 488 431 512 604 c 1
 535 606 l 1
 513 432 492 147 492 -2 c 1
 492 -2 488 -3 481 -3 c 0
 474 -3 470 -2 470 -2 c 1
EndSplineSet
Layer: 3
SplineSet
135 -2 m 4
 135 160 154 434 177 602 c 5
 182 602 225 606 229 606 c 5
 207 438 185 147 185 -2 c 5
 183 -2 171 -4 160 -4 c 4
 148 -4 138 -3 135 -2 c 4
456 -2 m 0
 456 160 475 434 498 602 c 1
 503 602 546 606 550 606 c 1
 528 438 506 147 506 -2 c 1
 504 -2 492 -4 481 -4 c 0
 469 -4 459 -3 456 -2 c 0
EndSplineSet
Layer: 4
SplineSet
120 -2 m 5
 120 155 140 438 163 601 c 5
 173 601 234 605 243 606 c 5
 222 444 197 146 197 -3 c 5
 193 -4 175 -5 159 -5 c 4
 142 -5 126 -3 120 -2 c 5
442 -2 m 1
 442 155 462 438 485 601 c 1
 495 601 556 605 565 606 c 1
 544 444 519 146 519 -3 c 1
 515 -4 497 -5 481 -5 c 0
 464 -5 448 -3 442 -2 c 1
EndSplineSet
Layer: 5
SplineSet
105 -1 m 5
 105 151 126 442 148 599 c 5
 163 600 244 605 257 606 c 5
 236 449 210 147 210 -3 c 5
 205 -4 177 -6 157 -6 c 4
 135 -6 114 -3 105 -1 c 5
428 -1 m 1
 428 151 449 442 471 599 c 1
 486 600 567 605 580 606 c 1
 559 449 533 147 533 -3 c 1
 528 -4 501 -6 481 -6 c 0
 459 -6 437 -3 428 -1 c 1
EndSplineSet
Layer: 6
SplineSet
90 -1 m 5
 90 146 112 446 133 598 c 5
 153 599 254 604 271 606 c 5
 251 455 222 146 222 -4 c 5
 215 -6 180 -7 156 -7 c 4
 129 -7 102 -3 90 -1 c 5
414 -1 m 1
 414 146 437 446 458 598 c 1
 478 599 578 604 595 606 c 1
 575 455 547 146 547 -4 c 1
 540 -6 505 -7 481 -7 c 0
 454 -7 426 -3 414 -1 c 1
EndSplineSet
Layer: 7
SplineSet
75 -1 m 5
 75 142 98 449 119 596 c 5
 145 597 262 604 284 606 c 5
 264 461 235 146 235 -4 c 5
 226 -6 184 -8 155 -8 c 4
 122 -8 89 -4 75 -1 c 5
401 -1 m 1
 401 142 423 449 444 596 c 1
 470 597 588 604 610 606 c 1
 590 461 560 146 560 -4 c 1
 551 -6 509 -8 480 -8 c 0
 447 -8 415 -4 401 -1 c 1
EndSplineSet
Layer: 8
SplineSet
60 -1 m 5
 60 137 84 453 104 595 c 5
 135 596 272 603 298 606 c 5
 279 467 247 145 247 -5 c 5
 236 -8 187 -9 154 -9 c 4
 116 -9 77 -4 60 -1 c 5
387 -1 m 1
 387 137 411 453 431 595 c 1
 462 596 599 603 625 606 c 1
 606 467 574 145 574 -5 c 1
 563 -8 513 -9 480 -9 c 0
 442 -9 404 -4 387 -1 c 1
EndSplineSet
Layer: 9
SplineSet
45 0 m 5
 45 133 70 457 89 593 c 5
 125 595 282 603 312 606 c 5
 293 472 260 146 260 -5 c 5
 248 -8 189 -10 152 -10 c 4
 109 -10 65 -4 45 0 c 5
373 0 m 1
 373 133 398 457 417 593 c 1
 453 595 610 603 640 606 c 1
 621 472 588 146 588 -5 c 1
 576 -8 517 -10 480 -10 c 0
 437 -10 393 -4 373 0 c 1
EndSplineSet
Layer: 10
SplineSet
30 0 m 5
 30 128 56 461 75 592 c 5
 116 594 291 602 326 606 c 5
 308 478 272 145 272 -6 c 5
 258 -10 193 -11 151 -11 c 4
 103 -11 53 -4 30 0 c 5
359 0 m 5
 359 128 385 461 404 592 c 5
 445 594 620 602 655 606 c 5
 637 478 601 145 601 -6 c 5
 587 -10 522 -11 480 -11 c 4
 432 -11 382 -4 359 0 c 5
EndSplineSet
Layer: 11
SplineSet
15 0 m 1
 15 123 42 464 60 590 c 1
 106 592 301 602 340 606 c 1
 322 484 285 145 285 -6 c 1
 269 -10 196 -12 150 -12 c 0
 97 -12 41 -5 15 0 c 1
345 0 m 1
 345 123 372 464 390 590 c 1
 436 592 631 602 670 606 c 5
 652 484 615 145 615 -6 c 1
 599 -10 526 -12 480 -12 c 0
 427 -12 371 -5 345 0 c 1
EndSplineSet
EndChar

StartChar: uni0E1E
Encoding: 3614 3614 11
Width: 930
VWidth: 0
Flags: W
VStem: 87 22<156.5 377>
LayerCount: 12
Back
SplineSet
133 587 m 0
 145 487 146 402 146 300 c 0
 146 162 156 45 170 45 c 0
 257 45 480 435 480 435 c 25
 480 435 570 45 620 45 c 4
 668 45 759 160 865 585 c 1028
EndSplineSet
Layer: 2
SplineSet
72 -1 m 5
 72 -1 87 141 87 270 c 4
 87 374 87 492 77 598 c 5
 99 600 l 5
 109 473 109 380 109 240 c 4
 109 172 101 78 97 30 c 5
 222 169 393 376 465 476 c 5
 482 480 l 5
 531 353 628 125 675 15 c 5
 700 48 805 230 904 601 c 5
 927 603 l 5
 805 140 687 -2 687 -2 c 5
 687 -2 681 -3 673 -3 c 4
 665 -3 659 -1 659 -1 c 5
 609 115 518 331 471 450 c 5
 375 326 222 142 94 -2 c 5
 94 -2 89 -3 83 -3 c 4
 77 -3 72 -1 72 -1 c 5
EndSplineSet
Layer: 3
SplineSet
65 -1 m 4
 66 9 80 146 80 273 c 4
 80 381 79 497 70 597 c 5
 78 597 113 599 121 600 c 5
 126 516 127 446 127 375 c 4
 127 328 127 280 127 227 c 4
 127 175 122 101 118 51 c 5
 237 187 396 386 458 473 c 5
 465 474 484 479 490 480 c 5
 531 371 623 145 669 34 c 5
 703 86 795 260 883 600 c 5
 888 600 928 603 935 603 c 5
 815 139 703 1 700 -2 c 4
 697 -3 687 -4 673 -4 c 4
 661 -4 646 -2 643 -2 c 4
 597 107 511 314 467 427 c 5
 377 309 232 133 113 -2 c 4
 111 -3 101 -4 90 -4 c 4
 80 -4 67 -2 65 -1 c 4
EndSplineSet
Layer: 4
SplineSet
57 -1 m 5
 59 19 72 153 72 277 c 4
 72 388 70 501 62 595 c 5
 78 595 125 598 141 600 c 5
 145 532 146 473 146 417 c 4
 146 347 144 283 144 213 c 4
 144 174 140 115 137 69 c 5
 251 203 398 394 452 470 c 5
 465 471 488 477 499 480 c 5
 534 389 620 167 665 53 c 5
 704 116 783 286 862 600 c 5
 872 601 929 603 942 603 c 5
 824 138 718 4 712 -2 c 4
 706 -3 691 -5 671 -5 c 4
 656 -5 634 -3 627 -2 c 5
 584 101 504 296 464 403 c 5
 380 291 243 123 132 -3 c 4
 129 -4 112 -5 96 -5 c 4
 81 -5 61 -2 57 -1 c 5
EndSplineSet
Layer: 5
SplineSet
50 -1 m 5
 52 29 65 158 65 280 c 4
 65 395 63 507 55 594 c 5
 78 594 140 598 163 600 c 5
 165 553 166 511 166 471 c 4
 166 369 161 286 161 200 c 4
 161 172 159 130 157 91 c 5
 265 223 399 402 445 467 c 5
 465 469 491 476 508 480 c 5
 536 405 615 190 660 73 c 5
 700 142 768 304 841 599 c 5
 856 600 930 603 950 603 c 5
 834 137 734 8 725 -1 c 5
 716 -3 696 -6 671 -6 c 4
 652 -6 621 -4 611 -3 c 5
 572 93 497 280 460 380 c 5
 382 275 253 114 151 -3 c 4
 146 -5 123 -6 102 -6 c 4
 83 -6 56 -3 50 -1 c 5
EndSplineSet
Layer: 6
SplineSet
42 -1 m 5
 45 39 57 164 57 283 c 4
 57 402 54 511 47 592 c 5
 78 592 153 597 184 600 c 5
 185 564 186 531 186 499 c 4
 186 372 178 277 178 187 c 4
 178 169 177 141 176 112 c 5
 278 242 401 409 439 464 c 5
 465 467 494 474 517 480 c 5
 540 421 612 215 656 95 c 5
 696 170 754 326 820 599 c 5
 840 600 930 603 957 603 c 5
 843 136 749 11 737 -1 c 5
 725 -4 700 -7 669 -7 c 4
 647 -7 608 -4 595 -3 c 5
 559 86 491 263 457 357 c 5
 385 258 263 104 170 -4 c 4
 163 -6 134 -7 108 -7 c 4
 85 -7 50 -3 42 -1 c 5
EndSplineSet
Layer: 7
SplineSet
35 0 m 1
 39 49 50 170 50 287 c 0
 50 409 46 516 40 591 c 1
 79 592 166 596 205 600 c 1
 206 574 206 550 206 526 c 0
 206 373 196 263 196 173 c 0
 196 164 196 149 195 133 c 1
 291 260 400 418 431 462 c 1
 464 465 497 473 525 480 c 1
 542 435 609 237 651 115 c 1
 689 193 740 342 799 598 c 1
 824 600 932 603 965 603 c 1
 853 136 765 14 750 -1 c 1
 736 -4 706 -8 669 -8 c 0
 643 -8 596 -6 579 -4 c 1
 547 79 484 245 454 333 c 1
 388 240 274 94 189 -4 c 1
 181 -7 145 -8 115 -8 c 4
 87 -8 46 -3 35 0 c 1
EndSplineSet
Layer: 8
SplineSet
27 0 m 5
 32 59 42 176 42 290 c 4
 42 416 37 520 32 589 c 5
 79 590 179 595 226 600 c 5
 226 582 226 566 226 549 c 4
 226 371 213 249 213 160 c 4
 213 159 213 157 213 155 c 5
 303 278 401 423 425 459 c 5
 464 463 500 471 534 480 c 5
 547 448 606 265 647 141 c 5
 682 221 725 364 778 598 c 5
 808 600 932 603 972 603 c 5
 862 135 780 17 762 -1 c 5
 745 -5 710 -9 667 -9 c 4
 638 -9 583 -6 563 -4 c 5
 534 72 478 228 451 310 c 5
 391 223 284 84 208 -5 c 5
 198 -8 156 -9 121 -9 c 4
 89 -9 40 -3 27 0 c 5
EndSplineSet
Layer: 9
SplineSet
20 0 m 5
 25 69 35 181 35 293 c 4
 35 423 30 526 25 588 c 5
 79 589 194 595 248 600 c 5
 248 588 248 576 248 564 c 4
 248 388 235 265 231 180 c 5
 314 298 400 429 418 456 c 5
 464 461 503 470 543 480 c 5
 551 460 603 291 642 167 c 5
 674 248 710 382 757 597 c 5
 792 599 933 603 980 603 c 5
 872 134 796 21 775 0 c 5
 755 -5 715 -10 667 -10 c 4
 634 -10 570 -7 547 -5 c 5
 522 64 471 212 447 287 c 5
 393 207 294 75 227 -5 c 5
 215 -9 167 -10 127 -10 c 4
 91 -10 35 -4 20 0 c 5
EndSplineSet
Layer: 10
SplineSet
12 0 m 5
 18 79 27 188 27 297 c 4
 27 430 21 530 17 586 c 5
 79 587 206 594 268 600 c 5
 268 593 268 587 268 581 c 4
 268 414 256 291 250 206 c 5
 325 317 400 433 412 453 c 5
 464 458 507 468 552 480 c 5
 556 471 601 320 637 198 c 5
 665 279 696 404 736 597 c 5
 776 600 934 603 987 603 c 5
 881 133 811 24 787 0 c 5
 764 -5 719 -11 665 -11 c 4
 629 -11 558 -8 531 -5 c 5
 509 58 464 194 444 263 c 5
 396 189 305 65 246 -6 c 5
 233 -10 178 -11 133 -11 c 4
 92 -11 29 -4 12 0 c 5
EndSplineSet
Layer: 11
SplineSet
5 0 m 1
 12 89 20 193 20 300 c 0
 20 437 13 535 10 585 c 1
 80 586 220 593 290 600 c 1
 290 446 280 326 273 240 c 1
 338 341 398 437 405 450 c 1
 464 456 509 467 560 480 c 1
 560 480 598 348 632 230 c 1
 655 309 681 425 715 596 c 1
 760 599 935 603 995 603 c 5
 891 132 827 27 800 0 c 1
 774 -6 725 -12 665 -12 c 0
 625 -12 545 -9 515 -6 c 1
 497 50 457 177 440 240 c 1
 398 172 315 56 265 -6 c 1
 250 -11 190 -12 140 -12 c 0
 95 -12 24 -5 5 0 c 1
EndSplineSet
EndChar

StartChar: uni0E14
Encoding: 3604 3604 19
Width: 900
VWidth: 0
Flags: W
HStem: -24 105<171 351.5> 498 126<337 668>
VStem: 10 245<75 215.5> 360 210<70.5 236.5> 632 278<278 519.5>
LayerCount: 12
Back
SplineSet
713 27 m 4
 746 184 767 298 767 390 c 4
 767 520 664 561 475 561 c 4
 276 561 185 504 160 390 c 4
 146 328 133 264 133 165 c 4
 133 46 227 15 291 15 c 4
 365 15 456 46 456 138 c 4
 456 237 376 285 246 285 c 4
 196 285 163 274 150 270 c 1028
EndSplineSet
Layer: 11
SplineSet
10 150 m 0
 10 251 19 318 35 380 c 0
 88 587 314 624 518 624 c 0
 767 624 910 555 910 408 c 0
 910 279 873 92 860 12 c 1
 821 7 651 -12 580 -12 c 1
 600 117 632 277 632 375 c 0
 632 484 569 498 440 498 c 0
 360 498 315 469 298 400 c 0
 294 383 289 364 284 345 c 1
 486 342 570 270 570 165 c 0
 570 27 371 -24 250 -24 c 4
 92 -24 10 51 10 150 c 0
263 244 m 1
 258 212 255 180 255 150 c 0
 255 99 269 81 300 81 c 0
 332 81 360 114 360 155 c 0
 360 203 333 238 263 244 c 1
EndSplineSet
EndChar

StartChar: uni0E190E14.liga
Encoding: 1114113 -1 20
Width: 1295
VWidth: 0
Flags: W
HStem: -24 105<566 746.5> 498 126<732 1063>
VStem: 755 210<70.5 236.5> 1027 278<278 519.5>
LayerCount: 12
Layer: 11
SplineSet
5 0 m 5
 5 123 32 464 50 590 c 5
 96 592 291 602 330 606 c 5
 318 526 298 354 286 202 c 5
 319 229 362 258 412 283 c 5
 416 319 422 350 430 380 c 4
 483 587 709 624 913 624 c 4
 1162 624 1305 555 1305 408 c 4
 1305 279 1268 92 1255 12 c 5
 1216 7 1046 -12 975 -12 c 5
 995 117 1027 277 1027 375 c 4
 1027 484 964 498 835 498 c 4
 755 498 710 469 693 400 c 4
 689 383 684 364 679 345 c 5
 881 342 965 270 965 165 c 4
 965 27 766 -24 645 -24 c 4
 487 -24 405 51 405 150 c 4
 405 153 405 156 405 159 c 5
 353 111 308 51 275 -6 c 5
 259 -10 186 -12 140 -12 c 4
 87 -12 31 -5 5 0 c 5
658 244 m 5
 653 212 650 180 650 150 c 4
 650 99 664 81 695 81 c 4
 727 81 755 114 755 155 c 4
 755 203 728 238 658 244 c 5
EndSplineSet
Colour: ff0000
EndChar

StartChar: uni0E47
Encoding: 3655 3655 21
Width: 0
VWidth: 0
Flags: W
HStem: 660 93<-438 -283.5> 753 82<-351.47 -264.149>
VStem: -570 216<734 855.5>
LayerCount: 12
Back
SplineSet
-87 700 m 1
 -87 700 -151 735 -194 777 c 1
 -208 754 -262 700 -340 700 c 0
 -399 700 -450 732 -450 790 c 0
 -450 857 -371 888 -302 888 c 0
 -238 888 -186 891 -159 893 c 0
 -98 897 -60 903 -48 910 c 1029
EndSplineSet
Fore
SplineSet
368 720 m 5
 356 706 l 5
 356 706 300 743 259 787 c 5
 238 756 186 705 115 705 c 4
 52 705 0 745 0 815 c 6
 0 826 l 5
 6 903 87 937 154 937 c 4
 216 937 266 941 292 943 c 4
 351 948 388 955 395 960 c 5
 405 949 l 5
 389 938 351 932 292 927 c 4
 266 925 214 921 152 921 c 4
 90 921 24 890 19 826 c 5
 19 818 l 6
 19 755 66 721 118 721 c 4
 187 721 237 779 250 804 c 4
 257 818 265 807 265 807 c 5
 306 760 368 720 368 720 c 5
EndSplineSet
Layer: 11
SplineSet
-540 784 m 0xa0
 -540 896 -416 929 -281 935 c 0
 -214 938 -165 939 -144 940 c 0
 -102 941 -51 947 -18 960 c 1
 30 875 l 1
 -26 853 -85 849 -160 845 c 0
 -210 842 -257 839 -281 835 c 0x60
 -312 831 -324 815 -324 794 c 0
 -324 761 -302 753 -281 753 c 0
 -241 753 -229 784 -223 803 c 1
 -200 804 -126 810 -102 813 c 1
 -82 788 1 710 19 691 c 1
 -1 684 -121 668 -149 665 c 1
 -160 677 -173 689 -186 701 c 1
 -218 678 -266 660 -343 660 c 4
 -473 660 -540 707 -540 784 c 0xa0
EndSplineSet
EndChar

StartChar: uni0E32
Encoding: 3634 3634 22
Width: 435
VWidth: 0
Flags: HW
HStem: 492 126<16.5 237.5>
VStem: 142 278<292 514>
LayerCount: 12
Back
SplineSet
-70 510 m 1
 -30 529 44 555 130 555 c 4
 254 555 320 514 320 384 c 0
 320 292 303 166 275 15 c 1025
EndSplineSet
Layer: 2
SplineSet
-52 577 m 5
 -5 593 58 609 126 609 c 4
 274 609 353 560 353 411 c 4
 353 308 334 168 304 -1 c 4
 301 -2 284 -3 281 -3 c 5
 311 166 332 308 332 409 c 4
 332 550 263 594 124 594 c 4
 58 594 -2 578 -47 563 c 4
 -48 565 -51 575 -52 577 c 5
EndSplineSet
Layer: 3
SplineSet
-60 575 m 5
 -12 592 54 610 126 610 c 4
 281 610 360 557 360 410 c 4
 360 308 341 167 311 0 c 5
 302 -2 272 -4 260 -4 c 5
 290 163 310 304 310 404 c 4
 310 543 243 583 116 583 c 4
 52 583 -9 565 -50 551 c 5
 -52 555 -58 570 -60 575 c 5
EndSplineSet
Layer: 4
SplineSet
-67 573 m 5
 -19 591 50 611 127 611 c 4
 290 611 368 555 368 409 c 4
 368 308 350 166 320 1 c 5
 306 -2 261 -4 240 -5 c 5
 270 160 290 301 290 399 c 4
 290 537 223 571 108 571 c 4
 46 571 -14 552 -52 539 c 5
 -55 546 -63 566 -67 573 c 5
EndSplineSet
Layer: 5
SplineSet
-75 572 m 5
 -26 591 46 612 127 612 c 4
 297 612 375 552 375 408 c 4
 375 308 356 164 327 1 c 5
 307 -2 251 -5 220 -6 c 5
 249 157 268 298 268 395 c 4
 268 531 204 560 100 560 c 4
 39 560 -21 539 -55 527 c 5
 -59 536 -70 562 -75 572 c 5
EndSplineSet
Layer: 6
SplineSet
-82 570 m 5
 -32 590 42 613 128 613 c 4
 306 613 383 549 383 407 c 4
 383 308 364 163 335 2 c 5
 309 -2 240 -6 200 -7 c 5
 229 154 248 294 248 390 c 4
 248 524 184 549 92 549 c 4
 33 549 -27 526 -57 515 c 5
 -62 527 -76 557 -82 570 c 5
EndSplineSet
Layer: 7
SplineSet
-90 568 m 5
 -40 590 38 614 128 614 c 4
 313 614 390 547 390 406 c 4
 390 307 372 163 343 3 c 5
 312 -2 228 -6 179 -8 c 5
 208 150 226 291 226 385 c 4
 226 518 164 537 84 537 c 4
 27 537 -33 513 -60 502 c 5
 -66 516 -82 553 -90 568 c 5
EndSplineSet
Layer: 8
SplineSet
-97 566 m 5
 -46 589 34 615 129 615 c 4
 322 615 398 544 398 405 c 4
 398 307 380 162 351 4 c 5
 314 -2 217 -7 159 -9 c 5
 188 147 206 287 206 380 c 4
 206 511 144 526 76 526 c 4
 21 526 -39 500 -62 490 c 5
 -69 507 -88 548 -97 566 c 5
EndSplineSet
Layer: 9
SplineSet
-105 565 m 1
 -53 589 30 616 129 616 c 0
 329 616 405 541 405 404 c 0
 405 307 386 160 358 4 c 1
 315 -2 207 -8 139 -10 c 5
 167 144 184 284 184 376 c 0
 184 505 125 515 68 515 c 0
 14 515 -46 487 -65 478 c 1
 -73 497 -95 544 -105 565 c 1
EndSplineSet
Layer: 10
SplineSet
-113 563 m 5
 -61 588 25 617 129 617 c 4
 337 617 412 539 412 403 c 4
 412 307 394 159 366 5 c 5
 318 -2 195 -8 118 -11 c 5
 146 141 163 281 163 371 c 4
 163 499 104 503 59 503 c 4
 7 503 -52 474 -68 466 c 5
 -77 488 -101 540 -113 563 c 5
EndSplineSet
Layer: 11
SplineSet
-120 561 m 1
 -67 587 22 618 130 618 c 4
 345 618 420 536 420 402 c 0
 420 307 402 158 374 6 c 1
 320 -2 184 -9 98 -12 c 1
 126 138 142 277 142 366 c 0
 142 492 85 492 52 492 c 0
 2 492 -58 461 -70 454 c 1
 -80 478 -107 535 -120 561 c 1
EndSplineSet
EndChar

StartChar: uni0E31
Encoding: 3633 3633 23
Width: 0
VWidth: 0
Flags: HW
HStem: 675 107<-360.5 -122.5>
LayerCount: 12
Back
SplineSet
75 900 m 5
 -107 648 -394 710 -330 870 c 1029
EndSplineSet
Layer: 2
SplineSet
-397 831 m 4
 -397 846 -393 864 -387 880 c 4
 -384 880 -369 881 -366 881 c 5
 -373 863 -377 846 -377 831 c 4
 -377 760 -299 734 -227 734 c 4
 -135 734 -7 771 94 900 c 4
 98 900 110 898 113 897 c 5
 11 764 -121 720 -228 720 c 4
 -312 720 -397 750 -397 831 c 4
EndSplineSet
Layer: 3
SplineSet
-405 828 m 4
 -405 843 -401 862 -395 878 c 5
 -390 878 -354 881 -350 881 c 5
 -357 863 -361 847 -361 832 c 4
 -361 765 -289 739 -223 739 c 4
 -136 739 -16 776 80 900 c 5
 89 900 112 898 120 896 c 5
 21 767 -112 715 -231 715 c 4
 -322 715 -405 748 -405 828 c 4
EndSplineSet
Layer: 4
SplineSet
-412 826 m 4
 -412 842 -408 860 -402 876 c 5
 -396 876 -339 880 -333 880 c 5
 -340 863 -344 847 -344 833 c 4
 -344 770 -279 745 -219 745 c 4
 -138 745 -24 782 67 900 c 5
 80 900 116 897 128 895 c 5
 33 771 -102 710 -234 710 c 4
 -333 710 -412 747 -412 826 c 4
EndSplineSet
Layer: 5
SplineSet
-420 823 m 4
 -420 839 -416 857 -410 874 c 5
 -402 874 -325 879 -318 880 c 5
 -325 863 -328 847 -328 833 c 4
 -328 774 -270 750 -215 750 c 4
 -139 750 -34 787 53 900 c 5
 71 900 118 896 135 893 c 5
 43 773 -93 705 -237 705 c 4
 -343 705 -420 746 -420 823 c 4
EndSplineSet
Layer: 6
SplineSet
-427 821 m 0
 -427 837 -423 855 -417 872 c 1
 -407 872 -310 879 -301 880 c 1
 -308 864 -311 848 -311 834 c 0
 -311 779 -260 755 -211 755 c 0
 -141 755 -42 793 40 900 c 1
 62 900 121 895 143 892 c 1
 54 776 -84 700 -240 700 c 4
 -354 700 -427 745 -427 821 c 0
EndSplineSet
Layer: 7
SplineSet
-435 818 m 0
 -435 835 -431 853 -424 870 c 1
 -413 870 -295 878 -285 879 c 1
 -291 863 -294 848 -294 835 c 0
 -294 784 -250 761 -207 761 c 0
 -142 761 -52 798 25 900 c 5
 52 899 124 895 150 891 c 1
 65 780 -74 695 -243 695 c 0
 -364 695 -435 743 -435 818 c 0
EndSplineSet
Layer: 8
SplineSet
-442 816 m 0
 -442 833 -438 851 -431 868 c 1
 -418 868 -280 878 -268 879 c 1
 -274 864 -277 849 -277 836 c 0
 -277 789 -240 766 -203 766 c 0
 -144 766 -60 804 12 900 c 1
 43 899 127 894 158 890 c 1
 76 783 -65 690 -246 690 c 4
 -375 690 -442 742 -442 816 c 0
EndSplineSet
Layer: 9
SplineSet
-450 813 m 0
 -450 830 -446 848 -439 866 c 1
 -424 866 -266 877 -253 879 c 1
 -259 864 -261 849 -261 836 c 0
 -261 793 -231 771 -199 771 c 0
 -145 771 -70 809 -2 900 c 1
 34 899 129 893 165 888 c 1
 86 785 -56 685 -249 685 c 4
 -385 685 -450 741 -450 813 c 0
EndSplineSet
Layer: 10
SplineSet
-457 811 m 0
 -457 829 -453 846 -446 864 c 1
 -430 864 -251 876 -236 878 c 1
 -242 864 -244 849 -244 837 c 0
 -244 798 -221 777 -195 777 c 0
 -147 777 -78 815 -15 900 c 1
 25 899 133 892 173 887 c 1
 98 789 -46 680 -252 680 c 4
 -396 680 -457 740 -457 811 c 0
EndSplineSet
Layer: 11
SplineSet
-465 808 m 4
 -465 826 -461 844 -454 862 c 5
 -436 862 -236 876 -220 878 c 5
 -226 864 -228 850 -228 838 c 4
 -228 803 -211 782 -191 782 c 4
 -148 782 -87 820 -29 900 c 5
 16 899 135 892 180 886 c 5
 108 792 -37 675 -255 675 c 4
 -406 675 -465 738 -465 808 c 4
EndSplineSet
EndChar

StartChar: uni0E190E32.liga
Encoding: 1114114 -1 24
Width: 1210
VWidth: 0
Flags: W
HStem: -24 105<553 709.5> 492 126<709.5 988.5>
VStem: 695 180<60 212.5> 917 278<292 514>
LayerCount: 12
Layer: 11
SplineSet
873 -12 m 1
 901 138 917 277 917 366 c 0
 917 492 860 492 805 492 c 0
 771 492 739 490 708 487 c 1
 690 424 675 365 665 314 c 1
 811 306 875 243 875 150 c 0
 875 19 742 -24 630 -24 c 0
 477 -24 409 47 405 141 c 1
 353 102 308 51 275 -6 c 1
 259 -10 186 -12 140 -12 c 0
 87 -12 31 -5 5 0 c 1
 5 123 32 464 50 590 c 1
 96 592 291 602 330 606 c 1
 318 525 297 347 285 193 c 1
 318 215 361 237 411 258 c 1
 420 356 440 463 465 570 c 1
 539 591 648 618 880 618 c 4
 1097 618 1195 536 1195 402 c 0
 1195 307 1177 158 1149 6 c 1
 1095 -2 959 -9 873 -12 c 1
631 213 m 1
 625 194 620 173 620 150 c 0
 620 99 629 81 655 81 c 0
 677 81 695 101 695 140 c 0
 695 182 676 207 631 213 c 1
EndSplineSet
EndChar

StartChar: uni0E49
Encoding: 3657 3657 25
Width: 0
VWidth: 0
Flags: HW
LayerCount: 12
Back
SplineSet
-379 849 m 4
 -356 858 -336 861 -319 861 c 4
 -237 861 -243 770 -240 684 c 5
 -190 726 -92 807 0 867 c 1028
EndSplineSet
Layer: 11
SplineSet
-362 1112 m 5
 -308 1131 -253 1148 -200 1148 c 4
 -140 1148 -96 1129 -96 1071 c 6
 -96 1049 l 5
 -62 1081 -19 1122 21 1156 c 5
 54 1144 144 1091 152 1080 c 5
 48 1025 -92 937 -128 914 c 5
 -176 916 -226 926 -244 940 c 5
 -243 959 -242 990 -242 1012 c 4
 -242 1033 -248 1045 -258 1053 c 5
 -269 1050 -302 1041 -316 1035 c 5
 -327 1056 -347 1090 -362 1112 c 5
EndSplineSet
EndChar

StartChar: uni0E38
Encoding: 3640 3640 26
Width: 0
VWidth: 0
Flags: HW
VStem: -313 208<-202.5 -107>
LayerCount: 12
Back
SplineSet
-315 -117 m 1
 -290 -108 -269 -105 -252 -105 c 4
 -170 -105 -210 -199 -225 -285 c 1025
EndSplineSet
Layer: 2
SplineSet
-337 -84 m 5
 -303 -73 -268 -69 -244 -69 c 4
 -192 -69 -172 -98 -172 -138 c 4
 -172 -183 -195 -243 -203 -290 c 4
 -207 -291 -218 -291 -222 -291 c 5
 -209 -231 -190 -180 -190 -138 c 4
 -190 -106 -202 -82 -242 -82 c 4
 -263 -82 -300 -85 -332 -96 c 5
 -332 -94 -336 -85 -337 -84 c 5
EndSplineSet
Layer: 3
SplineSet
-345 -86 m 1
 -308 -74 -270 -68 -242 -68 c 0
 -189 -68 -165 -96 -165 -138 c 0
 -165 -184 -188 -242 -196 -290 c 1
 -203 -291 -223 -292 -234 -292 c 5
 -222 -236 -203 -184 -203 -144 c 0
 -203 -115 -214 -91 -250 -91 c 0
 -270 -91 -306 -95 -336 -106 c 1
 -337 -102 -342 -90 -345 -86 c 1
EndSplineSet
Layer: 4
SplineSet
-352 -88 m 1
 -312 -75 -272 -67 -239 -67 c 0
 -184 -67 -157 -94 -157 -138 c 0
 -157 -184 -179 -242 -188 -291 c 1
 -199 -293 -228 -293 -245 -293 c 5
 -234 -240 -215 -188 -215 -150 c 0
 -215 -123 -225 -100 -257 -100 c 0
 -276 -101 -311 -106 -339 -116 c 1
 -341 -109 -348 -94 -352 -88 c 1
EndSplineSet
Layer: 5
SplineSet
-360 -89 m 1
 -317 -75 -273 -66 -236 -66 c 0
 -180 -66 -150 -92 -150 -139 c 0
 -150 -186 -172 -241 -181 -291 c 1
 -195 -293 -233 -294 -257 -294 c 5
 -247 -245 -228 -191 -228 -155 c 0
 -228 -131 -236 -111 -265 -110 c 0
 -283 -111 -317 -116 -343 -126 c 1
 -346 -117 -354 -98 -360 -89 c 1
EndSplineSet
Layer: 6
SplineSet
-367 -91 m 1
 -321 -76 -274 -65 -233 -65 c 0
 -176 -65 -142 -90 -142 -139 c 0
 -142 -187 -163 -240 -173 -291 c 1
 -191 -293 -237 -295 -268 -295 c 5
 -259 -249 -240 -195 -240 -161 c 0
 -240 -139 -247 -120 -272 -119 c 0
 -289 -120 -322 -127 -346 -136 c 1
 -350 -125 -360 -102 -367 -91 c 1
EndSplineSet
Layer: 7
SplineSet
-375 -93 m 1
 -325 -76 -277 -64 -231 -64 c 0
 -172 -64 -135 -88 -135 -139 c 0
 -135 -187 -155 -241 -165 -292 c 1
 -186 -295 -242 -296 -279 -296 c 5
 -270 -254 -253 -200 -253 -167 c 0
 -253 -148 -259 -129 -280 -128 c 0
 -297 -130 -328 -136 -351 -145 c 1
 -357 -131 -366 -107 -375 -93 c 1
EndSplineSet
Layer: 8
SplineSet
-382 -95 m 1
 -329 -77 -278 -63 -228 -63 c 0
 -168 -63 -127 -86 -127 -139 c 0
 -127 -188 -146 -240 -157 -292 c 1
 -182 -295 -246 -297 -290 -297 c 5
 -282 -258 -265 -204 -265 -173 c 0
 -265 -156 -270 -138 -287 -137 c 0
 -303 -139 -333 -147 -354 -155 c 1
 -361 -139 -372 -111 -382 -95 c 1
EndSplineSet
Layer: 9
SplineSet
-390 -96 m 1
 -334 -77 -279 -62 -225 -62 c 0
 -164 -62 -120 -84 -120 -140 c 0
 -120 -190 -139 -239 -150 -292 c 1
 -178 -295 -251 -298 -302 -298 c 5
 -295 -263 -278 -207 -278 -178 c 0
 -278 -164 -281 -149 -295 -147 c 0
 -310 -149 -339 -157 -358 -165 c 1
 -366 -147 -378 -115 -390 -96 c 1
EndSplineSet
Layer: 10
SplineSet
-397 -98 m 5
 -338 -78 -281 -61 -222 -61 c 4
 -159 -61 -112 -82 -112 -140 c 4
 -112 -190 -130 -239 -142 -293 c 5
 -174 -297 -256 -299 -313 -299 c 5
 -307 -267 -290 -211 -290 -184 c 4
 -290 -172 -292 -158 -302 -156 c 5
 -316 -159 -344 -168 -361 -175 c 5
 -370 -154 -384 -119 -397 -98 c 5
EndSplineSet
Layer: 11
SplineSet
-405 -100 m 1
 -343 -79 -283 -60 -220 -60 c 4
 -156 -60 -105 -80 -105 -140 c 0
 -105 -191 -123 -238 -135 -293 c 1
 -170 -297 -261 -300 -325 -300 c 1
 -320 -272 -303 -215 -303 -190 c 0
 -303 -181 -304 -167 -310 -165 c 0
 -323 -168 -350 -178 -365 -185 c 1
 -375 -162 -390 -124 -405 -100 c 1
EndSplineSet
EndChar

StartChar: uni0E34
Encoding: 3636 3636 27
Width: 0
VWidth: 0
Flags: HW
HStem: 730 160<-500.5 -213.895>
LayerCount: 12
Back
SplineSet
-85 750 m 4
 -156 780 -290 822 -440 822 c 4
 -509 822 -556 813 -625 795 c 1028
EndSplineSet
Layer: 11
SplineSet
-645 860 m 5
 -583 883 -505 890 -435 890 c 4
 -243 890 -110 854 -15 810 c 5
 -34 778 -66 704 -75 675 c 5
 -141 697 -232 730 -405 730 c 4
 -466 730 -541 725 -600 705 c 5
 -613 734 -637 813 -645 860 c 5
EndSplineSet
EndChar

StartChar: uni0E21
Encoding: 3617 3617 28
Width: 810
VWidth: 0
Flags: HW
HStem: -24 105<51.5 206> 215 99<126 175>
VStem: -70 178<70.5 220.5> 185 238<398.5 533>
LayerCount: 12
Back
SplineSet
146 593 m 21
 268 593 305 558 305 480 c 4
 305 410 298 246 285 155 c 4
 270 49 188 20 128 20 c 4
 74 20 14 60 14 125 c 4
 14 221 93 260 177 260 c 4
 287 260 350 236 439 184 c 4
 511 142 589 57 602 35 c 5
 611 109 654 425 666 590 c 1029
EndSplineSet
Layer: 2
SplineSet
132 596 m 5
 134 613 l 5
 134 613 201 618 218 618 c 4
 303 618 357 576 357 489 c 4
 357 417 347 328 336 241 c 5
 493 201 604 100 661 22 c 5
 679 151 721 452 732 604 c 5
 732 604 741 606 752 606 c 5
 738 428 687 78 677 -2 c 5
 677 -2 665 -2 657 -3 c 5
 603 76 494 183 334 225 c 5
 330 195 326 166 322 138 c 4
 304 20 208 -15 135 -15 c 4
 68 -15 -3 33 -3 106 c 4
 -3 211 85 259 191 259 c 4
 236 259 278 254 317 245 c 5
 328 332 337 439 337 488 c 4
 337 569 294 602 216 602 c 4
 200 602 132 596 132 596 c 5
315 230 m 5
 276 239 235 244 190 244 c 4
 100 244 17 205 17 107 c 4
 17 41 81 1 136 1 c 4
 199 1 286 29 303 139 c 4
 308 177 311 197 315 230 c 5
EndSplineSet
Layer: 3
SplineSet
126 584 m 5
 130 612 l 5
 130 612 200 618 219 618 c 4
 307 618 365 577 365 489 c 4
 365 417 355 329 344 245 c 5
 482 206 584 119 645 41 c 5
 663 177 701 458 712 602 c 5
 723 603 740 606 760 606 c 5
 746 429 696 78 686 -1 c 5
 679 -1 653 -2 639 -4 c 5
 588 74 485 174 340 218 c 5
 336 191 333 166 329 141 c 4
 311 25 214 -16 133 -16 c 4
 60 -16 -10 34 -10 107 c 4
 -10 218 89 265 193 265 c 4
 231 265 268 262 302 255 c 5
 312 336 321 433 321 481 c 4
 321 560 280 590 205 590 c 4
 189 590 126 584 126 584 c 5
299 229 m 5
 264 237 226 241 187 241 c 4
 103 241 28 203 28 111 c 4
 28 48 86 10 138 10 c 4
 197 10 275 39 290 141 c 4
 294 177 296 199 299 229 c 5
EndSplineSet
Layer: 4
SplineSet
118 572 m 5
 124 612 l 5
 124 612 199 618 220 618 c 4
 311 618 372 577 372 488 c 4
 372 415 361 329 350 248 c 5
 472 211 567 136 629 60 c 5
 648 200 681 464 691 601 c 5
 714 604 737 606 767 606 c 5
 753 430 705 79 695 0 c 5
 682 0 640 -3 620 -5 c 5
 571 72 477 166 345 211 c 5
 342 188 338 166 335 144 c 4
 318 30 218 -17 130 -17 c 4
 51 -17 -18 35 -18 108 c 4
 -18 225 91 271 193 271 c 4
 225 271 256 268 285 263 c 5
 294 339 303 428 303 474 c 4
 303 550 265 578 194 578 c 4
 178 578 118 572 118 572 c 5
282 228 m 5
 251 234 218 238 184 238 c 4
 106 238 37 200 37 114 c 4
 37 54 90 19 138 19 c 4
 193 19 263 49 276 143 c 4
 279 179 280 200 282 228 c 5
EndSplineSet
Layer: 5
SplineSet
112 559 m 1
 120 611 l 1
 120 611 199 618 221 618 c 0
 314 618 379 578 379 488 c 0
 379 414 369 330 358 252 c 1
 465 217 551 151 613 79 c 1
 632 222 662 469 672 599 c 1
 706 603 736 605 775 606 c 1
 762 432 714 79 704 1 c 1
 684 0 629 -3 602 -6 c 1
 556 70 468 156 350 202 c 1
 347 183 345 165 342 147 c 0
 325 34 224 -18 128 -18 c 4
 42 -18 -25 37 -25 110 c 0
 -25 232 94 278 195 278 c 0
 221 278 246 276 271 272 c 1
 279 342 287 422 287 467 c 0
 287 541 251 565 183 565 c 0
 167 565 112 559 112 559 c 1
267 226 m 1
 240 231 211 234 181 234 c 0
 109 234 48 197 48 118 c 0
 48 60 95 28 140 28 c 0
 191 28 251 57 262 144 c 0
 264 177 266 200 267 226 c 1
EndSplineSet
Layer: 6
SplineSet
104 547 m 1
 114 611 l 1
 114 611 197 618 221 618 c 0
 317 618 386 578 386 487 c 0
 386 413 375 331 364 255 c 1
 457 222 536 164 596 97 c 1
 614 242 642 474 651 598 c 1
 697 604 734 605 782 606 c 1
 769 433 723 79 713 2 c 1
 686 1 616 -4 583 -7 c 1
 540 67 460 148 355 194 c 1
 353 179 350 164 348 150 c 0
 331 39 229 -19 125 -19 c 4
 33 -19 -33 38 -33 111 c 0
 -33 239 97 284 196 284 c 0
 216 284 235 283 254 281 c 1
 261 346 269 417 269 460 c 0
 269 531 236 553 171 553 c 0
 155 553 104 547 104 547 c 1
251 225 m 1
 227 229 202 231 177 231 c 0
 111 231 57 194 57 121 c 0
 57 66 99 37 140 37 c 0
 187 37 239 67 248 146 c 0
 250 177 251 200 251 225 c 1
EndSplineSet
Layer: 7
SplineSet
98 535 m 5
 110 610 l 5
 110 610 197 618 223 618 c 4
 322 618 394 579 394 487 c 4
 394 413 383 332 371 258 c 5
 452 227 523 176 580 115 c 5
 598 260 622 478 631 596 c 5
 688 603 732 605 790 606 c 5
 777 434 731 79 722 2 c 5
 689 1 603 -4 564 -8 c 5
 523 63 452 138 359 184 c 5
 357 173 355 163 354 153 c 4
 338 44 234 -20 123 -20 c 4
 25 -20 -40 38 -40 112 c 4
 -40 246 100 290 197 290 c 4
 211 290 225 289 239 288 c 5
 246 347 253 411 253 452 c 4
 253 521 222 541 161 541 c 4
 144 541 98 535 98 535 c 5
235 223 m 5
 215 226 196 228 175 228 c 4
 115 228 68 192 68 125 c 4
 68 73 104 45 142 45 c 4
 184 45 227 77 235 148 c 4
 235 158 235 167 235 176 c 4
 235 193 235 208 235 223 c 5
EndSplineSet
Layer: 8
SplineSet
90 523 m 5
 104 610 l 5
 104 610 195 618 223 618 c 4
 325 618 401 579 401 486 c 4
 401 411 389 332 377 260 c 5
 446 232 509 187 562 133 c 5
 579 277 602 482 610 595 c 5
 679 604 730 605 797 606 c 5
 784 435 740 79 731 3 c 5
 691 2 590 -5 545 -9 c 5
 507 59 444 128 363 173 c 5
 362 167 361 162 360 156 c 4
 344 49 239 -21 120 -21 c 4
 16 -21 -48 39 -48 113 c 4
 -48 253 103 296 198 296 c 4
 206 296 214 295 222 295 c 5
 228 348 235 405 235 445 c 4
 235 511 207 529 149 529 c 4
 132 529 90 523 90 523 c 5
220 222 m 5
 204 224 188 225 171 225 c 4
 117 225 77 189 77 128 c 4
 77 79 108 54 142 54 c 4
 180 54 215 87 221 150 c 4
 221 158 221 166 221 173 c 4
 221 191 221 206 220 222 c 5
EndSplineSet
Layer: 9
SplineSet
84 510 m 5
 100 609 l 5
 100 609 195 618 224 618 c 4
 328 618 408 580 408 486 c 4
 408 410 397 331 385 262 c 5
 443 236 498 198 546 151 c 5
 562 293 583 486 591 593 c 5
 671 603 729 604 805 606 c 5
 793 437 749 79 740 4 c 5
 693 2 579 -5 527 -10 c 5
 493 54 437 117 367 161 c 5
 367 160 367 160 367 159 c 4
 351 53 245 -22 118 -22 c 4
 7 -22 -55 41 -55 115 c 4
 -55 260 106 303 200 303 c 4
 203 303 205 303 207 303 c 4
 212 350 219 400 219 438 c 4
 219 502 193 516 138 516 c 4
 121 516 84 510 84 510 c 5
206 219 m 5
 194 220 181 221 168 221 c 4
 120 221 88 186 88 132 c 4
 88 85 113 63 144 63 c 4
 178 63 203 95 207 151 c 4
 207 158 207 165 207 172 c 4
 207 189 207 204 206 219 c 5
EndSplineSet
Layer: 10
SplineSet
76 498 m 5
 94 609 l 5
 94 609 194 618 225 618 c 4
 332 618 415 580 415 485 c 4
 415 409 403 331 391 264 c 5
 440 241 486 209 529 169 c 5
 544 309 562 490 570 592 c 5
 662 604 726 604 812 606 c 5
 800 438 758 80 749 5 c 5
 696 3 566 -6 508 -11 c 5
 477 49 429 106 370 148 c 5
 348 51 243 -23 115 -23 c 4
 -2 -23 -63 42 -63 116 c 4
 -63 262 97 306 191 309 c 5
 196 351 201 395 201 431 c 4
 201 492 178 504 127 504 c 4
 110 504 76 498 76 498 c 5
191 217 m 5
 183 218 174 218 165 218 c 4
 123 218 97 183 97 135 c 4
 97 91 117 72 144 72 c 4
 174 72 191 105 193 153 c 4
 193 159 193 166 193 172 c 4
 193 188 192 202 191 217 c 5
EndSplineSet
Layer: 11
SplineSet
70 486 m 1
 90 608 l 1
 90 608 193 618 226 618 c 0
 336 618 423 581 423 485 c 0
 423 408 410 331 398 265 c 1
 437 245 476 217 512 185 c 1
 526 322 543 492 550 590 c 1
 653 603 725 604 820 606 c 1
 808 439 767 80 758 6 c 1
 698 4 554 -6 490 -12 c 1
 463 43 421 94 372 134 c 1
 341 46 240 -24 113 -24 c 4
 -10 -24 -70 43 -70 117 c 0
 -70 259 80 307 175 314 c 1
 180 351 185 390 185 424 c 0
 185 483 164 492 116 492 c 0
 99 492 70 486 70 486 c 1
177 215 m 1
 172 215 167 215 162 215 c 0
 126 215 108 181 108 139 c 0
 108 98 122 81 146 81 c 0
 172 81 180 115 180 155 c 0
 180 177 179 196 177 215 c 1
EndSplineSet
EndChar

StartChar: uni0E25
Encoding: 3621 3621 29
Width: 765
VWidth: 0
Flags: HW
HStem: 135 180<282 352> 496 128<241 560>
VStem: 0 278<67 197.5> 517 278<222 502>
LayerCount: 12
Back
SplineSet
150 20 m 5
 150 20 139 65.9915260323 139 125 c 4
 139 180 148 260 209 260 c 4
 280 260 321 225 383 163 c 4
 446 98 501 40 518 30 c 5
 586 59 649 197 649 328 c 4
 649 502 537 561 410 561 c 4
 301 561 181 509 109 427 c 1029
EndSplineSet
Layer: 2
SplineSet
52 462 m 5
 111 541 246 615 419 615 c 4
 585 615 727 539 727 340 c 4
 727 188 643 26 567 -2 c 5
 552 -3 l 5
 459 100 326 263 177 263 c 5
 129 259 106 209 106 140 c 4
 106 72 119 -6 119 -6 c 5
 98 -9 l 5
 98 -9 85 61 85 130 c 4
 85 245 129 280 187 280 c 4
 337 280 470 117 561 14 c 5
 634 57 706 194 706 338 c 4
 706 530 571 599 416 599 c 4
 252 599 126 528 71 455 c 4
 67 456 56 459 52 462 c 5
EndSplineSet
Layer: 3
SplineSet
45 459 m 5
 103 538 240 616 423 616 c 4
 596 616 735 538 735 341 c 4
 735 188 654 31 578 -2 c 4
 572 -2 550 -3 543 -4 c 5
 458 91 331 249 189 249 c 5
 146 245 126 198 126 134 c 4
 126 71 138 -3 139 -5 c 5
 131 -5 97 -9 89 -10 c 5
 88 -6 76 62 76 129 c 4
 76 248 127 284 192 284 c 4
 346 284 474 125 557 29 c 5
 623 76 685 197 685 335 c 4
 685 524 553 588 411 588 c 4
 257 588 140 518 89 448 c 5
 80 449 53 454 45 459 c 5
EndSplineSet
Layer: 4
SplineSet
37 456 m 1
 93 535 232 617 425 617 c 4
 604 617 742 536 742 341 c 0
 742 188 664 36 588 -2 c 1
 577 -2 548 -4 533 -5 c 1
 457 81 336 235 200 235 c 1
 162 230 144 187 144 129 c 0
 144 71 156 -1 157 -5 c 1
 141 -5 95 -9 79 -11 c 1
 78 -3 66 63 66 128 c 0
 66 252 123 288 195 288 c 0
 352 288 475 136 552 45 c 1
 611 95 664 201 664 332 c 0
 664 519 535 576 405 576 c 0
 261 576 152 508 105 441 c 1
 92 442 49 449 37 456 c 1
EndSplineSet
Layer: 5
SplineSet
30 453 m 1
 85 532 227 618 429 618 c 4
 615 618 750 534 750 342 c 0
 750 188 673 40 598 -3 c 1
 581 -3 545 -4 523 -6 c 1
 455 72 341 220 212 220 c 1
 179 215 164 176 164 123 c 0
 164 70 175 2 177 -4 c 1
 153 -4 95 -9 71 -12 c 1
 69 0 57 64 57 127 c 0
 57 255 121 292 200 292 c 0
 358 292 475 149 547 62 c 1
 599 112 643 206 643 329 c 0
 643 513 518 565 401 565 c 0
 267 565 167 497 123 433 c 1
 105 434 46 444 30 453 c 1
EndSplineSet
Layer: 6
SplineSet
22 450 m 1
 75 529 219 619 431 619 c 4
 624 619 757 533 757 343 c 0
 757 188 683 45 608 -3 c 1
 585 -3 542 -5 513 -7 c 1
 454 62 346 206 223 206 c 1
 195 201 182 166 182 118 c 0
 182 70 193 5 195 -3 c 1
 163 -3 93 -9 61 -13 c 1
 58 3 47 65 47 126 c 0
 47 259 118 296 204 296 c 0
 360 296 474 164 541 80 c 1
 586 129 622 211 622 326 c 0
 622 508 499 553 395 553 c 0
 271 553 179 487 139 426 c 1
 117 427 42 439 22 450 c 1
EndSplineSet
Layer: 7
SplineSet
15 447 m 1
 67 526 213 620 435 620 c 4
 634 620 765 531 765 343 c 0
 765 188 694 51 619 -3 c 1
 591 -4 541 -5 504 -8 c 1
 453 53 352 192 236 192 c 1
 213 186 202 154 202 112 c 0
 202 68 212 8 215 -3 c 1
 176 -3 92 -9 52 -14 c 1
 49 5 38 64 38 124 c 0
 38 261 116 299 208 299 c 0
 363 299 472 180 536 99 c 1
 573 145 601 216 601 322 c 0
 601 501 482 542 390 542 c 0
 277 542 193 476 157 419 c 1
 130 419 40 435 15 447 c 1
EndSplineSet
Layer: 8
SplineSet
7 444 m 5
 57 523 205 621 437 621 c 4
 643 621 772 530 772 344 c 4
 772 188 704 56 629 -3 c 5
 595 -4 538 -6 494 -9 c 5
 452 43 357 178 247 178 c 5
 229 172 220 144 220 107 c 4
 220 68 230 11 233 -2 c 5
 186 -2 90 -9 42 -15 c 5
 38 8 28 65 28 123 c 4
 28 265 113 303 212 303 c 4
 362 303 467 197 529 119 c 5
 559 162 580 224 580 319 c 4
 580 496 463 530 384 530 c 4
 281 530 205 466 173 412 c 5
 142 412 36 430 7 444 c 5
EndSplineSet
Layer: 9
SplineSet
0 441 m 1
 49 520 200 622 441 622 c 4
 654 622 780 528 780 345 c 0
 780 188 713 60 639 -4 c 1
 599 -5 535 -6 484 -10 c 1
 450 34 362 163 259 163 c 1
 246 157 240 133 240 101 c 0
 240 67 249 14 253 -1 c 1
 198 -1 90 -9 34 -16 c 1
 29 11 19 66 19 122 c 0
 19 268 111 307 217 307 c 0
 361 307 462 215 522 141 c 1
 544 179 559 234 559 316 c 0
 559 490 446 519 380 519 c 0
 287 519 220 455 191 404 c 1
 155 404 33 425 0 441 c 1
EndSplineSet
Layer: 10
SplineSet
-7 438 m 5
 40 517 193 623 444 623 c 4
 663 623 788 526 788 345 c 4
 788 188 724 65 650 -4 c 5
 605 -5 534 -7 475 -11 c 5
 450 24 368 149 271 149 c 5
 263 142 259 122 259 96 c 4
 259 67 268 16 272 -1 c 5
 209 -1 89 -9 25 -17 c 5
 20 14 10 67 10 121 c 4
 10 272 108 311 221 311 c 4
 358 311 454 232 514 163 c 5
 529 197 539 244 539 313 c 4
 539 485 429 507 375 507 c 4
 292 507 233 445 208 397 c 5
 168 397 30 420 -7 438 c 5
EndSplineSet
Layer: 11
SplineSet
-15 435 m 5
 31 514 186 624 447 624 c 4
 673 624 795 525 795 346 c 4
 795 188 734 70 660 -4 c 5
 609 -5 531 -7 465 -12 c 5
 448 15 372 135 282 135 c 5
 279 128 278 111 278 90 c 4
 278 66 286 19 291 0 c 5
 220 0 87 -9 15 -18 c 5
 9 17 0 68 0 120 c 4
 0 275 105 315 225 315 c 4
 352 315 444 251 503 188 c 5
 512 217 517 256 517 310 c 4
 517 479 410 496 369 496 c 4
 296 496 246 435 225 390 c 5
 180 390 26 415 -15 435 c 5
EndSplineSet
EndChar

StartChar: uni0E210E32.liga
Encoding: 1114115 -1 30
Width: 1225
VWidth: 0
Flags: W
HStem: -24 105<51.5 206> 215 99<126 175> 492 126<810 875>
VStem: -70 178<70.5 220.5> 185 238<398.5 533> 932 278<292 514>
LayerCount: 12
Layer: 11
SplineSet
180 155 m 4
 180 177 178 197 176 215 c 5
 171 215 167 215 162 215 c 4
 126 215 108 181 108 139 c 4
 108 98 122 81 146 81 c 4
 172 81 180 115 180 155 c 4
175 314 m 5
 180 351 185 390 185 424 c 4
 185 483 164 492 116 492 c 4
 99 492 70 486 70 486 c 5
 90 608 l 5
 90 608 193 618 226 618 c 4
 336 618 423 581 423 485 c 4
 423 407 410 330 398 264 c 5
 437 243 476 218 512 185 c 5
 526 315 543 474 550 570 c 5
 622 589 735 618 895 618 c 4
 1112 618 1210 536 1210 402 c 4
 1210 307 1192 158 1164 6 c 5
 1110 -2 974 -9 888 -12 c 5
 916 138 932 277 932 366 c 4
 932 492 875 492 820 492 c 4
 817 492 813 492 810 492 c 4
 793 312 765 66 758 6 c 5
 698 4 554 -6 490 -12 c 5
 463 43 421 93 372 133 c 5
 342 45 240 -24 113 -24 c 4
 -10 -24 -70 43 -70 117 c 4
 -70 260 80 307 175 314 c 5
EndSplineSet
EndChar

StartChar: uni0E48
Encoding: 3656 3656 31
Width: 0
VWidth: 0
Flags: HW
LayerCount: 12
Back
SplineSet
-180 690 m 4
 -173 757 -154 850 -150 900 c 1029
EndSplineSet
Layer: 2
SplineSet
-189 720 m 5
 -181 775 -163 873 -159 909 c 4
 -157 909 -144 910 -141 910 c 5
 -146 869 -164 774 -171 721 c 4
 -173 721 -187 720 -189 720 c 5
EndSplineSet
Layer: 3
SplineSet
-200 715 m 5
 -192 771 -174 870 -170 908 c 5
 -165 908 -135 910 -130 910 c 5
 -135 867 -153 770 -160 717 c 4
 -164 717 -195 715 -200 715 c 5
EndSplineSet
Layer: 4
SplineSet
-211 710 m 5
 -203 767 -186 866 -181 907 c 5
 -174 907 -127 909 -119 910 c 5
 -124 865 -142 766 -149 713 c 5
 -156 712 -204 710 -211 710 c 5
EndSplineSet
Layer: 5
SplineSet
-222 705 m 5
 -214 762 -197 863 -192 906 c 5
 -182 906 -117 909 -107 910 c 5
 -113 863 -130 762 -137 709 c 5
 -146 708 -212 705 -222 705 c 5
EndSplineSet
Layer: 6
SplineSet
-233 700 m 5
 -225 758 -209 859 -203 905 c 5
 -191 905 -108 909 -96 910 c 5
 -102 861 -119 758 -126 705 c 5
 -137 704 -221 700 -233 700 c 5
EndSplineSet
Layer: 7
SplineSet
-244 695 m 5
 -235 754 -220 856 -214 904 c 5
 -199 904 -100 908 -85 910 c 5
 -91 859 -108 754 -115 701 c 5
 -129 699 -229 695 -244 695 c 5
EndSplineSet
Layer: 8
SplineSet
-255 690 m 5
 -246 750 -232 852 -225 903 c 5
 -208 903 -91 908 -74 910 c 5
 -80 857 -97 750 -104 697 c 5
 -120 695 -238 690 -255 690 c 5
EndSplineSet
Layer: 9
SplineSet
-266 685 m 5
 -257 745 -243 849 -236 902 c 5
 -216 902 -81 908 -62 910 c 5
 -69 855 -85 746 -92 693 c 5
 -110 691 -246 685 -266 685 c 5
EndSplineSet
Layer: 10
SplineSet
-277 680 m 5
 -268 741 -255 845 -247 901 c 5
 -225 901 -73 907 -51 910 c 5
 -58 853 -74 742 -81 689 c 5
 -102 686 -255 680 -277 680 c 5
EndSplineSet
Layer: 11
SplineSet
-216 927 m 5
 -208 983 -196 1077 -189 1129 c 5
 -167 1129 -14 1135 8 1138 c 5
 2 1085 -13 984 -19 936 c 5
 -40 933 -194 927 -216 927 c 5
EndSplineSet
EndChar

StartChar: uni0E23
Encoding: 3619 3619 33
Width: 585
VWidth: 0
Flags: HW
HStem: -24 120<181.5 328.5> 499 125<217 418>
VStem: -35 274<395 526> 300 278<66.5 204.5>
LayerCount: 12
Back
SplineSet
530 504 m 5
 445 544 370 561 290 561 c 4
 165 561 75 512 75 450 c 4
 75 403 141 352 262 309 c 4
 398 261 439 209 439 150 c 4
 439 86 354 39 275 39 c 4
 220 39 160 53 120 84 c 1029
EndSplineSet
Layer: 2
SplineSet
32 476 m 4
 32 571 180 615 303 615 c 4
 401 615 493 595 597 547 c 5
 594 544 587 537 585 533 c 5
 484 579 395 598 301 598 c 4
 184 598 52 556 52 477 c 4
 52 428 126 368 273 318 c 4
 438 262 492 197 492 124 c 4
 492 32 366 -15 283 -15 c 4
 215 -15 140 2 89 40 c 5
 92 44 100 50 105 52 c 5
 151 17 221 2 285 2 c 4
 361 2 471 49 471 123 c 4
 471 188 425 247 263 303 c 4
 117 354 32 415 32 476 c 4
EndSplineSet
Layer: 3
SplineSet
25 471 m 0
 25 570 181 616 309 616 c 0
 409 616 502 596 605 548 c 1
 598 542 584 527 579 520 c 1
 482 565 393 587 299 587 c 0
 192 587 73 548 73 476 c 0
 73 429 142 373 283 324 c 0
 446 268 500 202 500 129 c 0
 500 31 365 -16 276 -16 c 4
 204 -16 129 2 78 40 c 1
 85 47 102 59 111 63 c 1
 155 28 221 12 282 12 c 0
 352 12 451 56 451 124 c 0
 451 185 408 241 251 296 c 0
 107 347 25 409 25 471 c 0
EndSplineSet
Layer: 4
SplineSet
17 466 m 4
 17 570 181 617 314 617 c 4
 416 617 510 596 612 549 c 5
 601 540 580 517 572 507 c 5
 479 550 389 576 295 576 c 4
 198 576 93 540 93 475 c 4
 93 430 158 378 293 331 c 4
 455 274 508 207 508 134 c 4
 508 30 363 -17 269 -17 c 4
 194 -17 119 1 67 40 c 5
 78 50 104 67 117 74 c 5
 159 39 219 23 278 23 c 4
 341 23 430 62 430 125 c 4
 430 182 390 235 238 289 c 4
 96 340 17 402 17 466 c 4
EndSplineSet
Layer: 5
SplineSet
10 461 m 0
 10 569 181 618 320 618 c 0
 424 618 519 596 620 549 c 1
 606 537 576 508 565 494 c 1
 476 536 386 565 293 565 c 0
 207 565 115 532 115 474 c 0
 115 432 174 383 303 337 c 0
 463 280 516 212 516 139 c 0
 516 29 362 -18 262 -18 c 4
 183 -18 108 2 56 41 c 1
 71 54 107 76 123 85 c 1
 163 50 219 33 275 33 c 0
 332 33 409 69 409 126 c 0
 409 179 373 229 226 282 c 0
 87 332 10 396 10 461 c 0
EndSplineSet
Layer: 6
SplineSet
2 456 m 0
 2 569 181 619 325 619 c 0
 431 619 527 597 627 550 c 1
 609 535 572 498 558 481 c 1
 473 521 382 554 289 554 c 0
 213 554 135 524 135 473 c 0
 135 433 190 387 313 343 c 0
 471 286 523 217 523 144 c 0
 523 28 360 -19 255 -19 c 4
 172 -19 97 1 45 41 c 1
 64 57 109 85 129 96 c 1
 167 61 217 44 271 44 c 0
 322 44 388 76 388 127 c 0
 388 176 355 223 213 275 c 0
 76 325 2 389 2 456 c 0
EndSplineSet
Layer: 7
SplineSet
-5 452 m 4
 -5 569 183 620 332 620 c 4
 439 620 536 597 635 551 c 5
 613 532 570 487 552 467 c 5
 472 506 380 543 287 543 c 4
 221 543 156 517 156 472 c 4
 156 434 205 393 323 350 c 4
 480 292 532 221 532 148 c 4
 532 27 359 -20 248 -20 c 4
 162 -20 87 1 34 41 c 5
 56 60 111 93 135 107 c 5
 171 71 218 54 269 54 c 4
 313 54 368 83 368 129 c 4
 368 175 339 217 201 268 c 4
 66 318 -5 384 -5 452 c 4
EndSplineSet
Layer: 8
SplineSet
-13 447 m 4
 -13 569 183 621 337 621 c 4
 446 621 544 598 642 552 c 5
 616 530 566 477 545 454 c 5
 469 491 376 532 283 532 c 4
 227 532 176 509 176 471 c 4
 176 435 221 397 333 356 c 4
 488 298 539 226 539 153 c 4
 539 26 357 -21 241 -21 c 4
 151 -21 76 0 23 41 c 5
 49 63 113 102 141 118 c 5
 175 82 216 65 265 65 c 4
 303 65 347 90 347 130 c 4
 347 172 321 211 188 261 c 4
 55 311 -13 377 -13 447 c 4
EndSplineSet
Layer: 9
SplineSet
-20 442 m 4
 -20 568 183 622 343 622 c 4
 454 622 553 598 650 552 c 5
 621 527 562 468 538 441 c 5
 466 477 373 521 281 521 c 4
 236 521 198 501 198 470 c 4
 198 437 237 402 343 362 c 4
 496 304 547 231 547 158 c 4
 547 25 356 -22 234 -22 c 4
 140 -22 65 1 12 42 c 5
 42 67 116 111 147 129 c 5
 179 93 216 75 262 75 c 4
 294 75 326 97 326 131 c 4
 326 169 304 205 176 254 c 4
 46 303 -20 371 -20 442 c 4
EndSplineSet
Layer: 10
SplineSet
-28 437 m 4
 -28 568 183 623 348 623 c 4
 461 623 561 598 657 553 c 5
 624 525 558 458 531 428 c 5
 463 462 369 510 277 510 c 4
 242 510 218 493 218 469 c 4
 218 438 253 407 353 369 c 4
 505 310 555 236 555 163 c 4
 555 24 354 -23 227 -23 c 4
 130 -23 55 0 1 42 c 5
 35 70 118 119 153 140 c 5
 183 104 214 86 258 86 c 4
 283 86 305 103 305 132 c 4
 305 166 286 199 163 247 c 4
 35 296 -28 364 -28 437 c 4
EndSplineSet
Layer: 11
SplineSet
-35 432 m 4
 -35 567 184 624 354 624 c 4
 469 624 570 599 665 554 c 5
 628 523 555 448 525 415 c 5
 461 448 367 499 275 499 c 4
 250 499 239 485 239 468 c 4
 239 439 269 412 363 375 c 4
 513 316 563 241 563 168 c 4
 563 23 353 -24 220 -24 c 4
 119 -24 44 0 -10 42 c 5
 28 73 120 128 159 151 c 5
 187 115 214 96 255 96 c 4
 274 96 285 110 285 133 c 4
 285 163 269 193 151 240 c 4
 25 289 -35 358 -35 432 c 4
EndSplineSet
EndChar

StartChar: uni0E35
Encoding: 3637 3637 34
Width: 0
VWidth: 0
Flags: HW
HStem: 715 160<-507 -324>
LayerCount: 12
Back
SplineSet
-135 885 m 29
 -153 720 l 4
 -217 764 -332 807 -456 807 c 4
 -518 807 -568 798 -630 780 c 1028
EndSplineSet
Fore
SplineSet
-144 885 m 5
 -126 885 l 5
 -144 720 l 4
 -144 720 -144 711 -151 711 c 4
 -153 711 -156 712 -159 714 c 4
 -221 757 -334 799 -456 799 c 4
 -517 799 -567 790 -628 772 c 5
 -632 788 l 5
 -569 806 -519 815 -456 815 c 4
 -338 815 -229 777 -160 735 c 5
 -144 885 l 5
EndSplineSet
Layer: 11
SplineSet
-620 690 m 1
 -632 719 -652 798 -660 845 c 1
 -601 868 -526 875 -460 875 c 0
 -354 875 -284 841 -224 800 c 1
 -224 828 -223 862 -220 900 c 1
 -191 904 -64 910 -15 910 c 1
 -32 843 -53 735 -60 680 c 1
 -101 676 -181 665 -205 660 c 5
 -253 686 -294 715 -430 715 c 0
 -488 715 -564 710 -620 690 c 1
EndSplineSet
EndChar

StartChar: uni0E4D
Encoding: 3661 3661 35
Width: 0
VWidth: 0
Flags: HW
HStem: 645 91<-303 -163> 844 92<-270.5 -125.5>
VStem: -415 157<727.5 845.5> -167 157<732 852.5>
LayerCount: 12
Back
SplineSet
-201 890 m 4
 -139 890 -90 852 -90 796 c 4
 -90 733 -155 690 -233 690 c 4
 -293 690 -340 728 -340 782 c 4
 -340 844 -280 890 -201 890 c 4
EndSplineSet
Layer: 2
SplineSet
-235 663 m 4
 -312 663 -370 711 -370 780 c 4
 -370 868 -288 918 -195 918 c 4
 -116 918 -55 870 -55 799 c 4
 -55 718 -137 663 -235 663 c 4
-233 677 m 4
 -143 677 -74 727 -74 797 c 4
 -74 861 -129 904 -197 904 c 4
 -283 904 -351 853 -351 782 c 4
 -351 721 -298 677 -233 677 c 4
EndSplineSet
Layer: 3
SplineSet
-236 661 m 4
 -317 661 -375 710 -375 779 c 4
 -375 868 -289 920 -194 920 c 4
 -111 920 -50 871 -50 800 c 4
 -50 716 -138 661 -236 661 c 4
-231 684 m 4
 -147 684 -84 732 -84 796 c 4
 -84 858 -137 897 -199 897 c 4
 -278 897 -341 849 -341 783 c 4
 -341 724 -290 684 -231 684 c 4
EndSplineSet
Layer: 4
SplineSet
-237 659 m 4
 -323 659 -380 710 -380 778 c 0
 -380 869 -291 922 -193 922 c 0
 -105 922 -45 870 -45 800 c 0
 -45 713 -139 659 -237 659 c 4
-229 690 m 0
 -151 690 -95 736 -95 795 c 0
 -95 855 -145 891 -201 891 c 0
 -274 891 -330 845 -330 784 c 0
 -330 727 -282 690 -229 690 c 0
EndSplineSet
Layer: 5
SplineSet
-238 657 m 4
 -328 657 -385 710 -385 778 c 0
 -385 870 -292 924 -192 924 c 0
 -100 924 -40 871 -40 801 c 0
 -40 711 -140 657 -238 657 c 4
-227 697 m 0
 -155 697 -105 741 -105 794 c 0
 -105 852 -153 884 -203 884 c 0
 -269 884 -320 841 -320 785 c 0
 -320 730 -275 697 -227 697 c 0
EndSplineSet
Layer: 6
SplineSet
-239 655 m 4
 -333 655 -390 710 -390 777 c 0
 -390 871 -293 926 -191 926 c 0
 -94 926 -35 871 -35 802 c 0
 -35 709 -141 655 -239 655 c 4
-225 703 m 0
 -159 703 -115 745 -115 793 c 0
 -115 849 -161 877 -205 877 c 0
 -265 877 -310 837 -310 786 c 0
 -310 733 -267 703 -225 703 c 0
EndSplineSet
Layer: 7
SplineSet
-241 653 m 4
 -340 653 -395 709 -395 776 c 4
 -395 871 -294 928 -189 928 c 4
 -88 928 -30 871 -30 802 c 4
 -30 706 -142 653 -241 653 c 4
-223 710 m 4
 -164 710 -126 749 -126 791 c 4
 -126 845 -168 871 -207 871 c 4
 -260 871 -299 833 -299 786 c 4
 -299 735 -259 710 -223 710 c 4
EndSplineSet
Layer: 8
SplineSet
-242 651 m 4
 -345 651 -400 709 -400 775 c 4
 -400 872 -295 930 -188 930 c 4
 -82 930 -25 871 -25 803 c 4
 -25 704 -143 651 -242 651 c 4
-221 716 m 4
 -168 716 -136 753 -136 790 c 4
 -136 842 -176 864 -209 864 c 4
 -256 864 -289 829 -289 787 c 4
 -289 738 -251 716 -221 716 c 4
EndSplineSet
Layer: 9
SplineSet
-243 649 m 0
 -350 649 -405 709 -405 775 c 0
 -405 873 -296 932 -187 932 c 4
 -77 932 -20 872 -20 804 c 0
 -20 702 -144 649 -243 649 c 0
-219 723 m 0
 -172 723 -146 758 -146 789 c 0
 -146 839 -184 857 -211 857 c 0
 -251 857 -279 825 -279 788 c 0
 -279 741 -244 723 -219 723 c 0
EndSplineSet
Layer: 10
SplineSet
-244 647 m 0
 -356 647 -410 709 -410 774 c 0
 -410 874 -298 934 -186 934 c 4
 -71 934 -15 871 -15 804 c 0
 -15 699 -145 647 -244 647 c 0
-217 729 m 0
 -176 729 -157 762 -157 788 c 0
 -157 836 -192 851 -213 851 c 0
 -247 851 -268 821 -268 789 c 0
 -268 744 -236 729 -217 729 c 0
EndSplineSet
Layer: 11
SplineSet
-215 844 m 0
 -242 844 -258 817 -258 790 c 0
 -258 747 -228 736 -215 736 c 0
 -180 736 -167 767 -167 787 c 0
 -167 833 -200 844 -215 844 c 0
-185 936 m 4
 -66 936 -10 872 -10 805 c 0
 -10 697 -146 645 -245 645 c 0
 -361 645 -415 708 -415 773 c 0
 -415 874 -299 936 -185 936 c 4
EndSplineSet
EndChar

StartChar: period
Encoding: 46 46 36
Width: 330
VWidth: 0
Flags: W
HStem: -12 230<89 234>
VStem: 20 290<38 165>
LayerCount: 12
Layer: 11
SplineSet
181 218 m 4
 253 218 310 174 310 110 c 4
 310 38 234 -12 144 -12 c 4
 75 -12 20 32 20 94 c 4
 20 165 89 218 181 218 c 4
EndSplineSet
EndChar

StartChar: uni0E3A
Encoding: 3642 3642 37
Width: 0
VWidth: 0
Flags: W
LayerCount: 12
Layer: 11
SplineSet
-219 -60 m 4
 -147 -60 -90 -104 -90 -168 c 4
 -90 -240 -166 -290 -256 -290 c 4
 -325 -290 -380 -246 -380 -184 c 4
 -380 -113 -311 -60 -219 -60 c 4
EndSplineSet
EndChar

StartChar: uni0E1A
Encoding: 3610 3610 38
Width: 810
VWidth: 0
Flags: HW
HStem: -24 126<233 511.5>
VStem: 10 278<65.5 258>
LayerCount: 12
Back
SplineSet
676 591 m 5
 676 492 661 228 648 166 c 4
 629 78 557 39 386 39 c 4
 224 39 144 62 144 166 c 4
 144 258 174 464 186 591 c 1029
EndSplineSet
Layer: 2
SplineSet
78 133 m 4
 78 237 115 463 130 605 c 5
 135 605 147 605 152 606 c 5
 137 464 100 236 100 135 c 4
 100 25 188 1 387 1 c 4
 594 1 675 43 697 135 c 4
 713 203 731 498 731 607 c 5
 735 608 748 609 753 609 c 5
 753 498 735 203 719 133 c 4
 694 29 597 -15 385 -15 c 4
 186 -15 78 12 78 133 c 4
EndSplineSet
Layer: 3
SplineSet
70 135 m 0
 70 238 106 462 121 603 c 1
 132 603 160 604 171 606 c 1
 156 466 120 240 120 140 c 0
 120 34 201 12 391 12 c 0
 582 12 656 51 676 137 c 0
 691 204 710 496 710 605 c 1
 721 607 748 609 760 609 c 1
 760 499 743 208 727 138 c 0
 702 27 589 -16 381 -16 c 4
 182 -16 70 14 70 135 c 0
EndSplineSet
Layer: 4
SplineSet
63 136 m 4
 63 238 99 462 113 602 c 5
 130 602 174 604 191 606 c 5
 177 467 142 244 142 146 c 4
 142 44 216 23 397 23 c 4
 573 23 639 59 657 139 c 4
 672 204 689 494 689 603 c 5
 707 606 749 609 768 609 c 5
 768 500 750 213 735 143 c 4
 710 26 582 -17 378 -17 c 4
 179 -17 63 14 63 136 c 4
EndSplineSet
Layer: 5
SplineSet
55 138 m 0
 55 239 90 461 104 600 c 1
 128 600 188 603 211 606 c 1
 197 469 162 248 162 151 c 0
 162 52 229 35 401 35 c 0
 561 35 619 67 636 141 c 0
 650 205 668 492 668 601 c 1
 693 605 750 608 775 609 c 1
 775 501 758 218 743 148 c 0
 718 24 573 -18 374 -18 c 4
 175 -18 55 16 55 138 c 0
EndSplineSet
Layer: 6
SplineSet
47 140 m 0
 47 240 82 460 95 598 c 1
 125 598 201 602 230 606 c 1
 216 470 183 252 183 157 c 0
 183 62 242 46 405 46 c 0
 550 46 600 75 615 143 c 0
 628 205 646 490 646 599 c 1
 678 604 750 608 782 609 c 1
 782 502 764 222 750 153 c 0
 725 23 565 -19 370 -19 c 4
 171 -19 47 17 47 140 c 0
EndSplineSet
Layer: 7
SplineSet
40 141 m 0
 40 241 74 461 87 597 c 1
 123 598 215 602 250 606 c 1
 237 472 204 256 204 162 c 0
 204 71 258 57 411 57 c 0
 540 57 583 85 596 146 c 0
 608 207 626 489 626 598 c 1
 665 604 751 608 790 609 c 1
 790 503 773 227 759 158 c 0
 733 21 557 -20 366 -20 c 4
 167 -20 40 18 40 141 c 0
EndSplineSet
Layer: 8
SplineSet
33 143 m 0
 33 242 67 460 79 595 c 1
 121 596 229 601 270 606 c 1
 257 473 226 260 226 168 c 0
 226 81 272 68 416 68 c 0
 530 68 564 93 576 148 c 0
 588 207 605 487 605 596 c 1
 651 603 752 608 798 609 c 1
 798 504 780 232 767 163 c 0
 741 20 550 -21 363 -21 c 4
 164 -21 33 19 33 143 c 0
EndSplineSet
Layer: 9
SplineSet
25 145 m 4
 25 243 58 459 70 593 c 5
 119 594 243 600 290 606 c 5
 277 475 246 264 246 173 c 4
 246 89 285 80 420 80 c 4
 518 80 545 101 555 150 c 4
 566 208 584 485 584 594 c 5
 637 602 753 607 805 609 c 5
 805 505 787 237 775 168 c 4
 749 18 541 -22 359 -22 c 4
 160 -22 25 21 25 145 c 4
EndSplineSet
Layer: 10
SplineSet
17 146 m 0
 17 243 50 459 61 592 c 1
 116 593 256 600 309 606 c 1
 297 476 267 268 267 179 c 0
 267 99 299 91 425 91 c 0
 508 91 527 109 535 152 c 0
 545 209 562 483 562 592 c 1
 622 601 753 607 812 609 c 1
 812 506 794 242 782 173 c 0
 756 17 533 -23 355 -23 c 4
 156 -23 17 21 17 146 c 0
EndSplineSet
Layer: 11
SplineSet
10 148 m 4
 10 244 42 458 53 590 c 5
 114 591 270 599 329 606 c 5
 317 478 288 272 288 184 c 4
 288 108 313 102 430 102 c 4
 497 102 509 117 515 154 c 4
 525 209 542 481 542 590 c 5
 609 600 754 607 820 609 c 5
 820 507 802 247 791 178 c 4
 764 15 526 -24 352 -24 c 4
 153 -24 10 23 10 148 c 4
EndSplineSet
EndChar

StartChar: uni0E210E19.liga
Encoding: 1114116 -1 39
Width: 1280
VWidth: 0
Flags: HW
HStem: -24 105<51.5 207.5 1037 1194.5> 215 99<126 175> 492 126<107.5 281>
VStem: -70 178<70.5 220> 185 238<399 533> 1180 180<60 212.5>
LayerCount: 12
Layer: 2
SplineSet
133 596 m 5
 135 613 l 5
 135 613 202 618 219 618 c 4
 304 618 358 576 358 489 c 4
 358 415 348 324 336 235 c 5
 466 190 563 93 616 20 c 5
 633 147 672 451 683 604 c 5
 683 604 692 606 703 606 c 5
 690 440 649 123 635 17 c 5
 775 124 883 194 998 236 c 5
 1008 374 1038 508 1072 604 c 5
 1094 606 l 5
 1059 501 1031 375 1020 243 c 5
 1038 247 1074 256 1127 256 c 4
 1211 256 1293 208 1293 110 c 4
 1293 30 1227 -15 1140 -15 c 4
 1080 -15 994 19 994 135 c 4
 994 162 995 190 997 217 c 5
 888 177 771 98 633 -2 c 5
 633 -2 621 -2 613 -3 c 5
 563 70 466 172 334 219 c 5
 330 191 327 164 323 138 c 4
 305 20 209 -15 136 -15 c 4
 69 -15 -2 33 -2 106 c 4
 -2 211 86 259 192 259 c 4
 236 259 278 253 317 241 c 5
 328 329 338 438 338 488 c 4
 338 569 295 602 217 602 c 4
 201 602 133 596 133 596 c 5
1018 224 m 5
 1016 196 1015 165 1015 137 c 4
 1015 27 1091 0 1142 0 c 4
 1219 0 1274 40 1274 107 c 4
 1274 196 1199 241 1125 241 c 4
 1077 241 1038 230 1018 224 c 5
315 225 m 5
 276 237 235 244 191 244 c 4
 101 244 18 205 18 107 c 4
 18 41 82 1 137 1 c 4
 200 1 287 29 304 139 c 4
 308 175 311 195 315 225 c 5
EndSplineSet
Layer: 3
SplineSet
126 584 m 5
 130 612 l 5
 130 612 200 618 219 618 c 4
 307 618 365 577 365 489 c 4
 365 415 355 324 343 238 c 5
 460 196 550 111 606 37 c 5
 623 171 658 456 669 602 c 5
 680 603 694 606 714 606 c 5
 702 450 665 157 650 36 c 5
 771 129 873 197 986 239 c 5
 997 373 1026 505 1059 603 c 5
 1067 604 1103 606 1109 606 c 5
 1074 500 1045 379 1034 253 c 5
 1054 257 1085 263 1126 263 c 4
 1219 263 1300 212 1300 114 c 4
 1300 28 1227 -16 1137 -16 c 4
 1066 -16 982 23 982 137 c 4
 982 161 983 186 984 210 c 5
 880 168 769 93 645 -2 c 5
 638 -2 615 -3 601 -4 c 5
 554 68 461 165 339 212 c 5
 336 188 332 164 329 141 c 4
 311 25 214 -16 133 -16 c 4
 60 -16 -10 34 -10 107 c 4
 -10 218 89 265 193 265 c 4
 231 265 267 260 301 251 c 5
 311 333 321 432 321 481 c 4
 321 560 280 590 205 590 c 4
 189 590 126 584 126 584 c 5
1032 226 m 5
 1029 199 1025 168 1025 138 c 4
 1025 35 1093 9 1141 9 c 4
 1212 9 1263 47 1263 111 c 4
 1263 196 1194 238 1121 238 c 4
 1084 238 1053 232 1032 226 c 5
298 226 m 5
 263 236 226 241 187 241 c 4
 103 241 28 203 28 111 c 4
 28 48 86 10 138 10 c 4
 197 10 275 39 290 141 c 4
 293 176 295 198 298 226 c 5
EndSplineSet
Layer: 4
SplineSet
118 572 m 5
 124 612 l 5
 124 612 199 618 220 618 c 4
 311 618 372 577 372 488 c 4
 372 414 361 325 349 242 c 5
 453 203 539 128 596 56 c 5
 614 195 645 463 655 601 c 5
 678 604 696 606 726 606 c 5
 714 459 680 187 664 56 c 5
 768 136 865 200 974 241 c 5
 984 371 1013 501 1045 602 c 5
 1060 603 1112 606 1124 606 c 5
 1090 500 1060 381 1048 262 c 5
 1067 266 1093 269 1125 269 c 4
 1228 269 1307 217 1307 119 c 4
 1307 28 1227 -17 1134 -17 c 4
 1052 -17 970 26 970 138 c 4
 970 160 971 181 972 203 c 5
 873 161 767 88 657 -3 c 5
 644 -3 608 -4 588 -5 c 5
 543 67 457 157 344 205 c 5
 341 184 338 163 335 144 c 4
 318 30 218 -17 130 -17 c 4
 51 -17 -18 35 -18 108 c 4
 -18 225 91 271 193 271 c 4
 225 271 256 267 285 261 c 5
 294 338 303 427 303 474 c 4
 303 550 265 578 194 578 c 4
 178 578 118 572 118 572 c 5
1043 226 m 5
 1039 200 1034 171 1034 140 c 4
 1034 43 1096 18 1141 18 c 4
 1206 18 1252 53 1252 114 c 4
 1252 194 1188 235 1116 235 c 4
 1088 235 1062 230 1043 226 c 5
282 226 m 5
 251 234 218 238 184 238 c 4
 106 238 37 200 37 114 c 4
 37 54 90 19 138 19 c 4
 193 19 263 49 276 143 c 4
 279 178 280 199 282 226 c 5
EndSplineSet
Layer: 5
SplineSet
112 559 m 1
 120 611 l 1
 120 611 199 618 221 618 c 0
 314 618 379 578 379 488 c 0
 379 413 369 326 357 246 c 1
 451 208 530 142 587 72 c 1
 604 214 632 467 642 599 c 1
 676 603 699 605 738 606 c 1
 728 467 697 212 680 75 c 1
 769 144 858 204 963 244 c 1
 974 370 1002 498 1033 601 c 1
 1056 603 1123 606 1141 606 c 1
 1107 500 1076 384 1063 271 c 1
 1080 274 1100 276 1124 276 c 0
 1236 276 1315 221 1315 123 c 0
 1315 26 1226 -18 1131 -18 c 0
 1038 -18 959 30 959 140 c 0
 959 159 959 178 960 197 c 1
 865 154 768 83 670 -3 c 1
 650 -3 604 -4 577 -6 c 1
 534 65 453 149 349 196 c 1
 346 179 344 163 342 147 c 0
 325 34 224 -18 128 -18 c 4
 42 -18 -25 37 -25 110 c 0
 -25 232 94 278 195 278 c 0
 221 278 246 276 271 271 c 1
 279 341 287 422 287 467 c 0
 287 541 251 565 183 565 c 0
 167 565 112 559 112 559 c 1
1057 227 m 1
 1052 202 1045 172 1045 141 c 0
 1045 51 1098 27 1141 27 c 0
 1200 27 1242 60 1242 118 c 0
 1242 194 1184 232 1113 232 c 0
 1092 232 1073 230 1057 227 c 1
267 224 m 1
 239 230 211 234 181 234 c 0
 109 234 48 197 48 118 c 0
 48 60 95 28 140 28 c 0
 191 28 251 57 262 144 c 0
 264 176 266 199 267 224 c 1
EndSplineSet
Layer: 6
SplineSet
104 547 m 1
 114 611 l 1
 114 611 197 618 221 618 c 0
 317 618 386 578 386 487 c 0
 386 411 375 326 363 249 c 1
 446 214 520 156 576 91 c 1
 593 235 619 472 628 598 c 1
 674 604 702 605 750 606 c 1
 740 475 711 236 694 95 c 1
 769 154 853 207 951 245 c 1
 961 368 988 495 1019 600 c 1
 1049 603 1132 606 1156 606 c 1
 1122 499 1091 386 1077 279 c 1
 1091 281 1106 282 1123 282 c 0
 1244 282 1322 227 1322 128 c 0
 1322 25 1226 -19 1128 -19 c 0
 1024 -19 947 34 947 142 c 0
 947 158 947 173 948 189 c 1
 858 146 767 78 682 -4 c 1
 655 -4 597 -5 564 -7 c 1
 523 63 448 140 354 187 c 1
 352 174 350 162 348 150 c 0
 331 39 229 -19 125 -19 c 4
 33 -19 -33 38 -33 111 c 0
 -33 239 97 284 196 284 c 0
 216 284 235 283 254 280 c 1
 261 345 269 416 269 460 c 0
 269 531 236 553 171 553 c 0
 155 553 104 547 104 547 c 1
1067 226 m 1
 1061 202 1054 174 1054 143 c 0
 1054 59 1100 36 1140 36 c 0
 1193 36 1231 68 1231 122 c 0
 1231 193 1178 229 1109 229 c 0
 1094 229 1080 228 1067 226 c 1
251 223 m 1
 227 228 202 231 177 231 c 0
 111 231 57 194 57 121 c 0
 57 66 99 37 140 37 c 0
 187 37 239 67 248 146 c 0
 250 176 251 199 251 223 c 1
EndSplineSet
Layer: 7
SplineSet
98 535 m 1
 110 610 l 1
 110 610 197 618 223 618 c 0
 322 618 394 579 394 487 c 0
 394 411 382 328 370 253 c 1
 445 220 512 168 567 107 c 1
 583 252 605 475 614 596 c 1
 671 603 704 605 762 606 c 1
 753 481 726 257 709 114 c 1
 772 163 850 212 941 248 c 1
 951 368 977 493 1007 599 c 1
 1045 602 1142 606 1172 606 c 1
 1139 499 1106 389 1092 288 c 1
 1102 289 1112 289 1123 289 c 0
 1253 289 1330 231 1330 132 c 0
 1330 23 1227 -20 1126 -20 c 0
 1012 -20 936 36 936 143 c 0
 936 155 937 168 937 181 c 1
 853 139 769 73 695 -4 c 1
 662 -4 592 -6 553 -8 c 1
 515 60 445 132 358 179 c 1
 357 170 355 161 354 153 c 0
 338 44 234 -20 123 -20 c 4
 25 -20 -40 38 -40 112 c 0
 -40 246 100 290 197 290 c 0
 211 290 225 289 239 288 c 1
 246 347 253 411 253 452 c 0
 253 521 222 541 161 541 c 0
 144 541 98 535 98 535 c 1
1079 226 m 1
 1072 203 1065 175 1065 144 c 0
 1065 67 1104 45 1141 45 c 0
 1187 45 1222 74 1222 125 c 0
 1222 192 1173 227 1105 227 c 0
 1096 227 1087 227 1079 226 c 1
235 223 m 1
 215 226 195 228 175 228 c 0
 115 228 68 192 68 125 c 0
 68 73 104 45 142 45 c 0
 184 45 227 77 235 148 c 0
 235 158 235 166 235 175 c 0
 235 192 235 208 235 223 c 1
EndSplineSet
Layer: 8
SplineSet
91 523 m 1
 105 610 l 1
 105 610 196 618 224 618 c 0
 326 618 402 579 402 486 c 0
 402 410 390 329 378 256 c 1
 444 226 504 181 556 126 c 1
 571 270 593 480 601 595 c 1
 670 604 708 605 775 606 c 1
 766 488 742 278 725 134 c 1
 779 175 847 217 930 250 c 1
 940 366 964 490 994 598 c 1
 1039 602 1152 606 1188 606 c 1
 1155 498 1122 391 1107 295 c 1
 1112 295 1117 295 1123 295 c 0
 1263 295 1338 236 1338 137 c 0
 1338 23 1228 -21 1124 -21 c 0
 999 -21 925 40 925 145 c 0
 925 154 925 163 925 172 c 1
 847 130 770 68 708 -5 c 1
 668 -5 586 -7 541 -9 c 1
 505 56 441 123 363 169 c 1
 362 164 362 160 361 156 c 0
 345 49 240 -21 121 -21 c 4
 17 -21 -47 39 -47 113 c 0
 -47 253 104 296 199 296 c 0
 207 296 215 295 223 295 c 1
 229 348 236 405 236 445 c 0
 236 511 208 529 150 529 c 0
 133 529 91 523 91 523 c 1
1089 224 m 0
 1082 202 1075 175 1075 146 c 0
 1075 75 1107 54 1141 54 c 0
 1181 54 1212 81 1212 129 c 0
 1212 191 1169 224 1102 224 c 0
 1098 224 1093 224 1089 224 c 0
220 221 m 1
 204 223 188 225 172 225 c 0
 118 225 78 189 78 128 c 0
 78 79 109 54 143 54 c 0
 181 54 216 87 222 150 c 0
 222 177 221 199 220 221 c 1
EndSplineSet
Layer: 9
SplineSet
84 510 m 1
 100 609 l 1
 100 609 195 618 224 618 c 0
 328 618 408 580 408 486 c 0
 408 409 396 329 384 259 c 1
 442 231 497 191 545 141 c 1
 560 284 579 483 587 593 c 1
 667 603 710 604 786 606 c 1
 778 494 756 297 739 154 c 1
 785 188 845 224 918 253 c 1
 928 365 952 487 981 597 c 1
 1034 602 1162 606 1204 606 c 1
 1171 498 1137 393 1121 302 c 1
 1270 302 1345 240 1345 141 c 0
 1345 21 1227 -22 1120 -22 c 0
 984 -22 913 44 913 147 c 0
 913 153 913 158 913 164 c 1
 841 122 772 63 720 -5 c 1
 673 -5 581 -7 529 -10 c 1
 496 53 437 115 367 159 c 1
 367 159 l 0
 351 53 245 -22 118 -22 c 4
 7 -22 -55 41 -55 115 c 0
 -55 260 106 303 200 303 c 0
 203 303 205 303 207 303 c 0
 212 350 219 400 219 438 c 0
 219 502 193 516 138 516 c 0
 121 516 84 510 84 510 c 1
1098 221 m 1
 1091 200 1085 175 1085 147 c 0
 1085 83 1109 63 1140 63 c 0
 1174 63 1201 88 1201 133 c 0
 1201 191 1164 221 1098 221 c 1
205 219 m 1
 193 220 181 221 168 221 c 0
 120 221 88 186 88 132 c 0
 88 85 113 63 144 63 c 0
 178 63 203 95 207 151 c 0
 207 176 206 198 205 219 c 1
EndSplineSet
Layer: 10
SplineSet
76 498 m 5
 94 609 l 5
 94 609 194 618 225 618 c 4
 332 618 415 580 415 485 c 4
 415 408 403 330 391 262 c 5
 442 237 490 203 534 159 c 5
 548 300 565 487 573 592 c 5
 665 604 712 604 798 606 c 5
 790 500 770 315 753 173 c 5
 792 201 844 230 906 255 c 5
 916 364 939 484 967 596 c 5
 1027 601 1171 606 1219 606 c 5
 1187 497 1152 394 1135 308 c 5
 1283 304 1352 242 1352 146 c 4
 1352 20 1226 -23 1117 -23 c 4
 970 -23 901 47 901 148 c 4
 901 150 901 153 901 155 c 5
 836 114 775 58 732 -6 c 5
 679 -6 574 -8 516 -11 c 5
 485 49 433 107 371 149 c 5
 349 51 243 -23 115 -23 c 4
 -2 -23 -63 42 -63 116 c 4
 -63 262 97 306 191 309 c 5
 196 351 201 395 201 431 c 4
 201 492 178 504 127 504 c 4
 110 504 76 498 76 498 c 5
1106 218 m 5
 1099 198 1094 174 1094 149 c 4
 1094 91 1112 72 1140 72 c 4
 1168 72 1190 94 1190 136 c 4
 1190 185 1162 214 1106 218 c 5
190 217 m 5
 182 218 173 218 165 218 c 4
 123 218 97 183 97 135 c 4
 97 91 117 72 144 72 c 4
 174 72 191 105 193 153 c 4
 193 177 192 197 190 217 c 5
EndSplineSet
Layer: 11
SplineSet
1115 213 m 5
 1109 194 1105 173 1105 150 c 4
 1105 99 1114 81 1140 81 c 4
 1162 81 1180 101 1180 140 c 4
 1180 182 1161 207 1115 213 c 5
1115 -24 m 4
 960 -24 892 48 890 144 c 5
 831 104 779 53 745 -6 c 5
 685 -6 569 -9 505 -12 c 5
 477 45 430 99 374 139 c 5
 346 48 243 -24 113 -24 c 4
 -10 -24 -70 43 -70 117 c 4
 -70 260 80 307 175 314 c 5
 180 351 185 390 185 424 c 4
 185 483 164 492 116 492 c 4
 99 492 70 486 70 486 c 5
 90 608 l 5
 90 608 193 618 226 618 c 4
 336 618 423 581 423 485 c 4
 423 408 410 331 398 265 c 5
 442 242 484 212 524 174 c 5
 537 312 553 490 560 590 c 5
 663 603 715 604 810 606 c 5
 803 505 784 330 768 191 c 5
 801 213 844 237 895 258 c 5
 905 364 928 482 955 595 c 5
 1023 601 1181 606 1235 606 c 5
 1203 496 1168 395 1151 314 c 5
 1296 306 1360 243 1360 150 c 4
 1360 19 1227 -24 1115 -24 c 4
162 215 m 4
 126 215 108 181 108 139 c 4
 108 98 122 81 146 81 c 4
 172 81 180 115 180 155 c 4
 180 177 178 197 176 215 c 5
 171 215 167 215 162 215 c 4
EndSplineSet
EndChar

StartChar: uni0E22
Encoding: 3618 3618 40
Width: 795
VWidth: 0
Flags: HW
HStem: -24 126<226.5 491.5> 255 100<367 407.753> 510 114<223 374.5>
VStem: -5 278<71 222.5> 10 250<373.5 532.5>
LayerCount: 12
Back
SplineSet
436 549 m 5
 419 559 371 579 318 579 c 4
 234 579 145 549 145 464 c 4
 145 351 302 322 369 310 c 1
 352 306 144 293 144 166 c 0
 144 77 224 39 386 39 c 0
 557 39 629 78 648 166 c 0
 661 228 676 492 676 591 c 1025
EndSplineSet
Layer: 2
SplineSet
77 477 m 4
 77 589 200 615 288 615 c 4
 337 615 385 603 409 594 c 5
 406 589 404 582 402 577 c 5
 383 586 337 599 285 599 c 4
 155 599 99 550 99 479 c 4
 99 359 291 324 374 310 c 5
 370 295 l 5
 348 295 84 277 84 142 c 4
 84 48 173 1 371 1 c 4
 578 1 659 43 681 135 c 4
 697 203 715 498 715 607 c 5
 719 608 732 609 737 609 c 5
 737 498 719 203 703 133 c 4
 678 29 581 -15 369 -15 c 4
 169 -15 62 33 62 139 c 4
 62 248 224 294 307 306 c 5
 204 328 77 379 77 477 c 4
EndSplineSet
Layer: 3
SplineSet
70 473 m 4
 70 586 198 616 295 616 c 4
 345 616 392 605 416 596 c 5
 412 588 407 574 404 566 c 5
 385 575 337 589 286 589 c 4
 168 589 117 544 117 478 c 4
 117 361 300 329 382 315 c 5
 374 291 l 5
 347 291 105 272 105 146 c 4
 105 56 189 12 375 12 c 4
 566 12 641 51 661 137 c 4
 676 204 695 496 695 605 c 5
 706 607 733 609 745 609 c 5
 745 499 727 208 712 138 c 4
 687 27 574 -16 366 -16 c 4
 166 -16 55 32 55 140 c 4
 55 242 201 290 288 306 c 5
 185 330 70 379 70 473 c 4
EndSplineSet
Layer: 4
SplineSet
62 469 m 4
 62 584 195 617 301 617 c 4
 352 617 398 605 422 597 c 5
 417 587 410 565 406 555 c 5
 387 565 336 579 286 579 c 4
 180 579 135 538 135 477 c 4
 135 363 308 333 389 320 c 5
 387 314 380 292 378 286 c 5
 345 286 126 267 126 150 c 4
 126 63 204 23 378 23 c 4
 554 23 623 59 641 139 c 4
 656 204 673 494 673 603 c 5
 691 606 733 609 752 609 c 5
 752 500 734 213 719 143 c 4
 694 26 566 -17 362 -17 c 4
 162 -17 47 31 47 141 c 4
 47 236 174 285 263 305 c 5
 163 330 62 380 62 469 c 4
EndSplineSet
Layer: 5
SplineSet
55 465 m 4
 55 581 193 618 307 618 c 4
 359 618 406 607 430 599 c 5
 423 586 412 558 408 545 c 5
 388 555 336 569 287 569 c 4
 193 569 153 533 153 476 c 4
 153 364 316 338 396 325 c 5
 393 316 385 290 382 282 c 5
 344 282 147 264 147 155 c 4
 147 72 221 35 383 35 c 4
 543 35 604 67 621 141 c 4
 635 205 653 492 653 601 c 5
 678 605 735 608 760 609 c 5
 760 501 742 218 728 148 c 4
 702 24 558 -18 359 -18 c 4
 159 -18 40 30 40 142 c 4
 40 231 155 281 245 304 c 5
 147 329 55 378 55 465 c 4
EndSplineSet
Layer: 6
SplineSet
47 461 m 4
 47 579 190 619 313 619 c 4
 366 619 412 608 436 601 c 5
 428 585 415 550 410 534 c 5
 390 544 335 559 287 559 c 4
 205 559 170 527 170 475 c 4
 170 366 324 342 403 330 c 5
 399 318 389 288 385 277 c 5
 342 277 168 259 168 159 c 4
 168 80 236 46 386 46 c 4
 531 46 585 75 600 143 c 4
 613 205 631 490 631 599 c 5
 663 604 735 608 767 609 c 5
 767 502 749 223 735 153 c 4
 709 23 550 -19 355 -19 c 4
 155 -19 32 29 32 143 c 4
 32 227 135 278 225 303 c 5
 131 329 47 378 47 461 c 4
EndSplineSet
Layer: 7
SplineSet
40 458 m 4
 40 577 188 620 320 620 c 4
 375 620 419 609 443 602 c 5
 434 584 418 541 412 523 c 5
 392 534 334 550 288 550 c 4
 218 550 189 521 189 474 c 4
 189 368 334 347 411 335 c 5
 407 320 395 287 390 273 c 5
 341 273 189 254 189 163 c 4
 189 87 252 57 390 57 c 4
 519 57 568 85 581 146 c 4
 594 207 611 489 611 598 c 5
 650 604 736 608 775 609 c 5
 775 503 757 227 744 158 c 4
 718 21 542 -20 351 -20 c 4
 152 -20 25 27 25 144 c 4
 25 223 116 275 206 303 c 5
 116 330 40 378 40 458 c 4
EndSplineSet
Layer: 8
SplineSet
32 454 m 4
 32 575 185 621 326 621 c 4
 382 621 425 610 449 604 c 5
 439 583 421 533 414 512 c 5
 394 523 333 540 288 540 c 4
 230 540 206 515 206 473 c 4
 206 370 342 351 418 340 c 5
 413 322 399 285 393 268 c 5
 339 268 210 249 210 167 c 4
 210 95 267 68 393 68 c 4
 507 68 549 93 560 148 c 4
 572 207 589 487 589 596 c 5
 635 603 736 608 782 609 c 5
 782 504 764 232 751 163 c 4
 725 20 534 -21 347 -21 c 4
 148 -21 17 26 17 145 c 4
 17 219 99 271 187 301 c 5
 101 329 32 377 32 454 c 4
EndSplineSet
Layer: 9
SplineSet
25 450 m 4
 25 572 183 622 332 622 c 4
 389 622 433 612 457 606 c 5
 445 582 423 526 416 502 c 5
 395 513 333 530 289 530 c 4
 243 530 224 510 224 472 c 4
 224 371 350 356 425 345 c 5
 419 324 404 283 397 264 c 5
 338 264 231 246 231 172 c 4
 231 104 284 80 398 80 c 4
 496 80 530 101 540 150 c 4
 551 208 569 485 569 594 c 5
 622 602 738 607 790 609 c 5
 790 505 772 237 760 168 c 4
 733 18 526 -22 344 -22 c 4
 145 -22 10 25 10 146 c 4
 10 216 84 268 171 300 c 5
 89 328 25 375 25 450 c 4
EndSplineSet
Layer: 10
SplineSet
18 446 m 4
 18 570 181 623 339 623 c 4
 397 623 440 612 464 607 c 5
 451 581 427 517 419 491 c 5
 398 503 333 520 290 520 c 4
 256 520 243 504 243 471 c 4
 243 373 359 360 433 350 c 5
 426 326 410 281 402 259 c 5
 337 259 253 241 253 176 c 4
 253 111 300 91 402 91 c 4
 485 91 513 109 521 152 c 4
 532 208 548 483 548 592 c 5
 608 601 739 607 798 609 c 5
 798 506 780 242 768 173 c 4
 741 17 519 -23 341 -23 c 4
 142 -23 3 24 3 147 c 4
 3 212 68 265 153 299 c 5
 76 328 18 374 18 446 c 4
EndSplineSet
Layer: 11
SplineSet
805 609 m 1xf0
 805 507 787 247 776 178 c 0
 749 15 511 -24 337 -24 c 0
 138 -24 -5 23 -5 148 c 0xf0
 -5 209 53 262 137 298 c 1
 64 327 10 372 10 442 c 0
 10 567 178 624 345 624 c 0
 404 624 446 614 470 609 c 5
 456 580 429 509 420 480 c 1
 399 492 332 510 290 510 c 0
 268 510 260 498 260 470 c 0xe8
 260 375 367 365 440 355 c 1
 432 328 414 280 405 255 c 1
 335 255 273 236 273 180 c 0
 273 119 315 102 405 102 c 0
 472 102 494 117 500 154 c 0
 510 209 527 481 527 590 c 1
 594 600 739 607 805 609 c 1xf0
EndSplineSet
EndChar

StartChar: uni0E29
Encoding: 3625 3625 41
Width: 825
VWidth: 0
Flags: HW
HStem: -24 126<233 511.5>
VStem: 10 278<65.5 258>
LayerCount: 12
Back
SplineSet
445 335 m 4
 469 318 520 300 586 300 c 4
 667 300 755 313 814 327 c 1028
EndSplineSet
Layer: 2
SplineSet
483 331 m 4
 484 333 491 345 491 347 c 5
 520 328 559 309 631 309 c 4
 660 309 689 310 717 313 c 5
 725 420 731 544 731 607 c 5
 735 608 748 609 753 609 c 5
 753 546 747 422 739 315 c 5
 784 320 825 328 858 336 c 5
 858 334 857 322 857 321 c 4
 824 313 782 306 738 301 c 5
 732 226 725 161 719 133 c 4
 694 29 597 -15 385 -15 c 4
 186 -15 78 12 78 133 c 4
 78 237 115 463 130 605 c 5
 135 605 147 605 152 606 c 5
 137 464 100 236 100 135 c 4
 100 25 188 1 387 1 c 4
 594 1 675 43 697 135 c 4
 703 162 710 226 716 299 c 5
 687 296 658 295 629 295 c 4
 558 295 509 313 483 331 c 4
EndSplineSet
Layer: 3
SplineSet
470 326 m 5
 472 330 483 351 484 355 c 5
 515 334 554 315 629 315 c 4
 651 315 674 316 696 318 c 5
 704 423 710 543 710 605 c 5
 721 607 748 609 760 609 c 5
 760 547 755 428 747 323 c 5
 791 328 831 336 860 343 c 5
 860 338 858 318 857 315 c 4
 827 308 788 301 745 296 c 5
 740 226 733 165 727 138 c 4
 702 27 589 -16 381 -16 c 4
 182 -16 70 14 70 135 c 4
 70 238 106 462 121 603 c 5
 132 603 160 604 171 606 c 5
 156 466 120 240 120 140 c 4
 120 34 201 12 391 12 c 4
 582 12 656 51 676 137 c 4
 682 163 688 223 694 292 c 5
 671 290 647 289 624 289 c 4
 550 289 498 307 470 326 c 5
EndSplineSet
Layer: 4
SplineSet
458 321 m 5
 460 327 477 357 478 363 c 5
 511 341 551 321 629 321 c 4
 645 321 660 321 676 322 c 5
 683 425 689 542 689 603 c 5
 707 606 749 609 768 609 c 5
 768 548 763 433 755 330 c 5
 798 335 837 342 863 349 c 5
 863 342 860 315 859 310 c 5
 833 303 795 296 752 291 c 5
 747 225 741 169 735 143 c 4
 710 26 582 -17 378 -17 c 4
 179 -17 63 14 63 136 c 4
 63 238 99 462 113 602 c 5
 130 602 174 604 191 606 c 5
 177 467 142 244 142 146 c 4
 142 44 216 23 397 23 c 4
 573 23 639 59 657 139 c 4
 663 163 669 219 674 285 c 5
 656 284 638 283 620 283 c 4
 542 283 488 302 458 321 c 5
EndSplineSet
Layer: 5
SplineSet
445 316 m 5
 448 324 468 362 470 371 c 5
 505 347 546 328 627 328 c 4
 636 328 645 329 655 329 c 5
 662 429 668 541 668 601 c 5
 693 605 750 608 775 609 c 5
 775 550 770 438 763 338 c 5
 805 343 841 350 865 356 c 5
 865 346 861 311 859 304 c 5
 835 298 800 292 759 287 c 5
 754 225 748 173 743 148 c 4
 718 24 573 -18 374 -18 c 4
 175 -18 55 16 55 138 c 4
 55 239 90 461 104 600 c 5
 128 600 188 603 211 606 c 5
 197 469 162 248 162 151 c 4
 162 52 229 35 401 35 c 4
 561 35 619 67 636 141 c 4
 641 164 647 216 652 278 c 5
 640 278 628 277 616 277 c 4
 535 277 477 296 445 316 c 5
EndSplineSet
Layer: 6
SplineSet
432 311 m 5
 436 321 460 368 463 379 c 5
 500 354 541 334 625 334 c 4
 628 334 631 334 634 334 c 4
 641 432 646 541 646 599 c 5
 678 604 750 608 782 609 c 5
 782 551 777 443 770 345 c 5
 811 350 846 357 867 362 c 5
 867 349 863 307 860 298 c 5
 839 292 805 286 765 281 c 5
 760 224 755 176 750 153 c 4
 725 23 565 -19 370 -19 c 4
 171 -19 47 17 47 140 c 4
 47 240 82 460 95 598 c 5
 125 598 201 602 230 606 c 5
 216 470 183 252 183 157 c 4
 183 62 242 46 405 46 c 4
 550 46 600 75 615 143 c 4
 620 164 624 213 629 271 c 5
 623 271 617 271 611 271 c 4
 527 271 466 291 432 311 c 5
EndSplineSet
Layer: 7
SplineSet
420 305 m 5
 424 318 454 375 457 388 c 5
 493 362 536 342 615 340 c 5
 621 436 626 541 626 598 c 5
 665 604 751 608 790 609 c 5
 790 553 786 448 779 352 c 5
 818 358 851 364 870 369 c 5
 870 354 864 303 861 293 c 5
 843 288 812 281 773 276 c 5
 769 223 764 180 759 158 c 4
 733 21 557 -20 366 -20 c 4
 167 -20 40 18 40 141 c 4
 40 241 74 461 87 597 c 5
 123 598 215 602 250 606 c 5
 237 472 204 256 204 162 c 4
 204 71 258 57 411 57 c 4
 540 57 583 85 596 146 c 4
 600 166 605 210 609 264 c 5
 608 264 608 264 607 264 c 4
 519 264 456 284 420 305 c 5
EndSplineSet
Layer: 8
SplineSet
408 300 m 5
 413 315 447 381 451 396 c 5
 486 371 525 351 595 347 c 5
 601 440 605 540 605 596 c 5
 651 603 752 608 798 609 c 5
 798 554 793 453 786 359 c 5
 824 364 856 371 873 375 c 5
 873 357 867 299 863 287 c 5
 847 282 818 276 780 271 c 5
 776 223 771 184 767 163 c 4
 741 20 550 -21 363 -21 c 4
 164 -21 33 19 33 143 c 4
 33 242 67 460 79 595 c 5
 121 596 229 601 270 606 c 5
 257 473 226 260 226 168 c 4
 226 81 272 68 416 68 c 4
 530 68 564 93 576 148 c 4
 580 167 584 207 588 258 c 5
 505 260 444 280 408 300 c 5
EndSplineSet
Layer: 9
SplineSet
25 145 m 4
 25 243 58 459 70 593 c 5
 119 594 243 600 290 606 c 5
 277 475 246 264 246 173 c 4
 246 89 285 80 420 80 c 4
 518 80 545 101 555 150 c 4
 558 168 562 206 566 253 c 5
 488 257 430 276 395 295 c 5
 401 312 438 386 443 404 c 5
 477 380 513 361 574 355 c 5
 580 444 584 540 584 594 c 5
 637 602 753 607 805 609 c 5
 805 555 800 458 794 367 c 5
 831 372 860 378 875 382 c 5
 875 361 868 295 863 281 c 5
 849 277 821 271 786 266 c 5
 782 223 778 188 775 168 c 4
 749 18 541 -22 359 -22 c 4
 160 -22 25 21 25 145 c 4
EndSplineSet
Layer: 10
SplineSet
17 146 m 4
 17 243 50 459 61 592 c 5
 116 593 256 600 309 606 c 5
 297 476 267 268 267 179 c 4
 267 99 299 91 425 91 c 4
 508 91 527 109 535 152 c 4
 538 169 541 204 545 248 c 5
 472 254 417 272 382 290 c 5
 388 309 431 392 436 412 c 5
 468 390 501 372 553 364 c 5
 558 450 562 540 562 592 c 5
 622 601 753 607 812 609 c 5
 812 557 807 463 801 374 c 5
 836 379 865 384 877 388 c 5
 877 365 869 292 864 276 c 5
 852 272 826 267 792 262 c 5
 788 223 785 191 782 173 c 4
 756 17 533 -23 355 -23 c 4
 156 -23 17 21 17 146 c 4
EndSplineSet
Layer: 11
SplineSet
10 148 m 4
 10 244 42 458 53 590 c 5
 114 591 270 599 329 606 c 5
 317 478 288 272 288 184 c 4
 288 108 313 102 430 102 c 4
 497 102 509 117 515 154 c 4
 518 169 522 202 525 243 c 5
 457 250 404 267 370 285 c 5
 377 306 424 398 430 420 c 5
 460 399 490 382 534 373 c 5
 539 455 542 540 542 590 c 5
 609 600 754 607 820 609 c 5
 820 558 816 468 810 382 c 5
 844 387 869 392 880 395 c 5
 880 369 871 288 865 270 c 5
 855 267 832 262 800 257 c 5
 797 223 794 195 791 178 c 4
 764 15 526 -24 352 -24 c 4
 153 -24 10 23 10 148 c 4
EndSplineSet
EndChar

StartChar: uni0E290E22.liga
Encoding: 1114117 -1 42
Width: 1310
VWidth: 0
Flags: HW
HStem: -24 126<233 469 798 1006.5> 510 114<738 889.5>
VStem: 10 278<65.5 258> 540 235<420 530>
LayerCount: 12
Layer: 2
SplineSet
602 462 m 0
 602 598 715 615 803 615 c 0
 852 615 900 603 924 594 c 1
 921 589 919 582 917 577 c 1
 898 586 852 599 800 599 c 0
 676 599 622 550 622 464 c 0
 622 399 651 355 687 326 c 1
 765 329 839 339 887 351 c 1
 887 349 886 337 886 336 c 0
 835 324 772 314 686 311 c 1
 678 239 672 163 668 133 c 1
 677 53 767 1 916 1 c 0
 1105 1 1174 43 1196 135 c 0
 1212 203 1230 498 1230 607 c 1
 1234 608 1247 609 1252 609 c 1
 1252 498 1234 203 1218 133 c 0
 1193 29 1115 -15 914 -15 c 0
 783 -15 685 23 657 93 c 1
 625 23 535 -15 369 -15 c 0
 170 -15 77 12 77 133 c 0
 77 237 114 463 129 605 c 1
 134 605 146 605 151 606 c 1
 136 464 99 236 99 135 c 0
 99 25 172 1 371 1 c 0
 543 1 631 43 646 135 c 0
 651 164 659 242 666 310 c 1
 657 310 648 310 638 310 c 0
 567 310 508 338 482 356 c 0
 483 358 490 370 490 372 c 1
 519 353 568 325 640 325 c 0
 648 325 655 325 663 325 c 1
 629 356 602 401 602 462 c 0
EndSplineSet
Layer: 3
SplineSet
596 460 m 4
 596 595 713 616 810 616 c 4
 860 616 907 605 931 596 c 5
 927 588 922 574 919 566 c 5
 900 575 852 589 801 589 c 4
 688 589 639 544 639 464 c 4
 639 401 664 359 697 331 c 5
 773 335 846 346 890 356 c 5
 890 351 888 332 887 329 c 4
 842 319 779 307 697 303 c 5
 690 238 684 168 680 138 c 5
 688 60 775 12 917 12 c 4
 1092 12 1156 51 1176 137 c 4
 1191 204 1210 496 1210 605 c 5
 1221 607 1248 609 1260 609 c 5
 1260 499 1242 208 1227 138 c 4
 1202 27 1106 -16 908 -16 c 4
 788 -16 693 16 656 76 c 5
 613 15 517 -16 368 -16 c 4
 169 -16 70 14 70 135 c 4
 70 238 106 462 121 603 c 5
 132 603 160 604 171 606 c 5
 156 466 120 240 120 140 c 4
 120 34 188 12 378 12 c 4
 538 12 621 51 635 137 c 4
 640 168 647 240 654 302 c 5
 648 302 642 302 635 302 c 4
 561 302 498 329 470 348 c 5
 472 352 483 373 484 377 c 5
 515 356 565 329 640 329 c 4
 644 329 648 329 652 329 c 5
 621 359 596 402 596 460 c 4
EndSplineSet
Layer: 4
SplineSet
588 458 m 0
 588 592 710 617 816 617 c 0
 867 617 913 605 937 597 c 1
 932 587 925 565 921 555 c 1
 902 565 851 579 801 579 c 0
 700 579 656 537 656 464 c 0
 656 403 679 364 707 336 c 1
 781 340 853 351 892 361 c 1
 892 354 889 326 888 321 c 1
 848 311 786 300 707 296 c 1
 701 239 696 175 692 143 c 1
 699 67 781 23 917 23 c 0
 1079 23 1138 59 1156 139 c 0
 1171 204 1188 494 1188 603 c 1
 1206 606 1248 609 1267 609 c 1
 1267 500 1249 213 1234 143 c 0
 1209 26 1095 -17 900 -17 c 0
 787 -17 696 9 654 63 c 1
 602 8 501 -17 365 -17 c 4
 166 -17 62 14 62 136 c 0
 62 238 98 462 112 602 c 1
 129 602 173 604 190 606 c 1
 176 467 141 244 141 146 c 0
 141 44 203 23 384 23 c 0
 533 23 610 59 623 139 c 0
 628 170 637 237 643 294 c 1
 639 294 636 294 632 294 c 0
 554 294 487 321 457 340 c 1
 459 346 476 377 477 383 c 1
 510 361 562 334 640 334 c 0
 641 334 l 1
 612 363 588 404 588 458 c 0
EndSplineSet
Layer: 5
SplineSet
582 455 m 0
 582 587 708 618 822 618 c 0
 874 618 921 607 945 599 c 1
 938 586 927 558 923 545 c 1
 903 555 851 569 802 569 c 0
 712 569 673 531 673 464 c 0
 673 406 693 368 718 341 c 1
 790 346 860 357 895 366 c 1
 895 356 891 321 889 314 c 1
 853 305 793 295 718 290 c 1
 713 239 707 181 704 149 c 1
 710 75 789 35 918 35 c 0
 1066 35 1119 67 1136 141 c 0
 1150 205 1168 492 1168 601 c 1
 1193 605 1250 608 1275 609 c 1
 1275 501 1257 218 1243 148 c 0
 1217 24 1086 -18 894 -18 c 0
 787 -18 698 6 652 55 c 1
 593 5 490 -18 364 -18 c 4
 165 -18 55 16 55 138 c 0
 55 239 90 461 104 600 c 1
 128 600 188 603 211 606 c 1
 197 469 162 248 162 151 c 0
 162 52 219 35 391 35 c 0
 528 35 601 67 613 141 c 0
 618 173 625 235 631 287 c 1
 630 287 630 287 629 287 c 0
 548 287 477 312 445 332 c 1
 448 340 468 379 470 388 c 1
 504 365 554 340 630 338 c 1
 604 365 582 405 582 455 c 0
EndSplineSet
Layer: 6
SplineSet
574 453 m 0
 574 584 705 619 828 619 c 0
 881 619 927 608 951 601 c 1
 943 585 930 550 925 534 c 1
 905 544 850 559 802 559 c 0
 723 559 690 524 690 464 c 0
 690 409 707 373 728 347 c 1
 798 353 865 363 897 371 c 1
 897 358 893 316 890 307 c 1
 859 299 799 289 727 283 c 1
 722 238 718 185 715 154 c 1
 720 82 795 46 918 46 c 0
 1053 46 1100 75 1115 143 c 0
 1128 205 1146 490 1146 599 c 1
 1178 604 1250 608 1282 609 c 1
 1282 502 1264 223 1250 153 c 0
 1224 23 1075 -19 886 -19 c 0
 783 -19 697 2 649 47 c 1
 584 1 479 -19 361 -19 c 4
 162 -19 47 17 47 140 c 0
 47 240 82 460 95 598 c 1
 125 598 201 602 230 606 c 1
 216 470 183 252 183 157 c 0
 183 62 234 46 397 46 c 0
 522 46 590 75 601 143 c 0
 606 175 613 231 618 279 c 1
 537 280 465 305 432 324 c 1
 436 334 460 382 463 393 c 1
 497 370 546 348 618 344 c 1
 594 370 574 406 574 453 c 0
EndSplineSet
Layer: 7
SplineSet
568 451 m 0
 568 581 703 620 835 620 c 0
 890 620 934 609 958 602 c 1
 949 584 933 541 927 523 c 1
 907 534 849 550 803 550 c 0
 736 550 707 519 707 465 c 0
 707 412 722 377 741 352 c 1
 809 358 873 368 900 375 c 1
 900 360 894 309 891 299 c 1
 864 292 808 282 739 276 c 1
 735 236 732 190 728 159 c 1
 732 90 802 57 918 57 c 0
 1039 57 1083 85 1096 146 c 0
 1109 207 1126 489 1126 598 c 1
 1165 604 1251 608 1290 609 c 1
 1290 503 1272 227 1259 158 c 0
 1233 21 1066 -20 880 -20 c 0
 781 -20 696 -1 646 40 c 1
 576 -3 470 -20 360 -20 c 4
 161 -20 40 18 40 141 c 0
 40 241 74 461 87 597 c 1
 123 598 215 602 250 606 c 1
 237 472 204 256 204 162 c 0
 204 71 251 57 404 57 c 0
 518 57 580 85 590 146 c 0
 595 177 602 228 607 271 c 1
 526 274 454 297 420 317 c 1
 424 330 454 386 457 399 c 1
 490 376 538 353 607 348 c 1
 585 373 568 408 568 451 c 0
EndSplineSet
Layer: 8
SplineSet
560 449 m 0
 560 578 700 621 841 621 c 0
 897 621 940 610 964 604 c 1
 954 583 936 533 929 512 c 1
 909 523 848 540 803 540 c 0
 747 540 724 512 724 465 c 0
 724 416 736 382 752 358 c 1
 817 364 878 374 902 380 c 1
 902 362 896 304 892 292 c 1
 869 285 814 275 748 269 c 1
 745 234 742 193 739 164 c 1
 742 97 808 68 918 68 c 0
 1026 68 1064 93 1075 148 c 0
 1087 207 1104 487 1104 596 c 1
 1150 603 1251 608 1297 609 c 1
 1297 504 1279 232 1266 163 c 0
 1240 20 1055 -21 872 -21 c 0
 776 -21 694 -3 642 35 c 1
 568 -5 461 -21 357 -21 c 4
 158 -21 32 19 32 143 c 0
 32 242 66 460 78 595 c 1
 120 596 228 601 269 606 c 1
 256 473 225 260 225 168 c 0
 225 81 266 68 410 68 c 0
 512 68 569 93 578 148 c 0
 583 178 589 224 594 264 c 1
 513 268 442 290 407 309 c 1
 412 324 446 389 450 404 c 1
 483 381 530 361 595 354 c 1
 576 378 560 410 560 449 c 0
EndSplineSet
Layer: 9
SplineSet
554 446 m 4
 554 573 698 622 847 622 c 4
 904 622 948 612 972 606 c 5
 960 582 938 526 931 502 c 5
 910 513 848 530 804 530 c 4
 759 530 741 506 741 465 c 4
 741 419 752 387 765 364 c 5
 828 371 884 380 905 385 c 5
 905 364 898 299 893 285 c 5
 873 279 823 270 760 264 c 5
 757 233 754 198 751 170 c 4
 753 105 816 80 919 80 c 4
 1013 80 1045 101 1055 150 c 4
 1066 208 1084 485 1084 594 c 5
 1137 602 1253 607 1305 609 c 5
 1305 505 1287 237 1275 168 c 4
 1248 18 1046 -22 866 -22 c 4
 773 -22 691 -6 638 30 c 5
 561 -7 455 -22 356 -22 c 4
 157 -22 25 21 25 145 c 4
 25 243 58 459 70 593 c 5
 119 594 243 600 290 606 c 5
 277 475 246 264 246 173 c 4
 246 89 282 80 417 80 c 4
 507 80 560 101 568 150 c 4
 573 180 578 221 582 257 c 5
 501 262 430 282 395 301 c 5
 401 318 438 391 443 409 c 5
 476 386 522 366 584 359 c 5
 567 382 554 411 554 446 c 4
EndSplineSet
Layer: 10
SplineSet
546 444 m 4
 546 570 695 623 853 623 c 4
 911 623 954 612 978 607 c 5
 965 581 941 517 933 491 c 5
 912 503 847 520 804 520 c 4
 771 520 758 499 758 465 c 4
 758 422 767 392 778 370 c 5
 837 377 889 385 907 390 c 5
 907 367 899 293 894 277 c 5
 877 271 829 263 769 257 c 5
 767 230 766 200 763 175 c 4
 764 112 822 91 919 91 c 4
 1000 91 1027 109 1035 152 c 4
 1046 208 1062 483 1062 592 c 5
 1122 601 1253 607 1312 609 c 5
 1312 506 1294 242 1282 173 c 4
 1255 17 1035 -23 858 -23 c 4
 767 -23 688 -8 634 26 c 5
 553 -9 447 -23 353 -23 c 4
 154 -23 17 21 17 146 c 4
 17 243 50 459 61 592 c 5
 116 593 256 600 309 606 c 5
 297 476 267 268 267 179 c 4
 267 99 297 91 423 91 c 4
 502 91 549 109 556 152 c 4
 561 180 566 216 570 249 c 5
 489 254 418 274 382 293 c 5
 388 312 431 395 436 415 c 5
 469 392 513 373 572 365 c 5
 557 386 546 413 546 444 c 4
EndSplineSet
Layer: 11
SplineSet
540 442 m 4
 540 567 693 624 860 624 c 4
 919 624 961 614 985 609 c 5
 971 580 944 509 935 480 c 5
 914 492 847 510 805 510 c 4
 783 510 775 493 775 465 c 4
 775 426 782 397 791 376 c 5
 847 383 895 391 910 395 c 5
 910 369 901 288 895 270 c 5
 881 265 837 258 781 251 c 5
 779 228 777 203 775 180 c 4
 775 119 830 102 920 102 c 4
 987 102 1009 117 1015 154 c 4
 1025 209 1042 481 1042 590 c 5
 1109 600 1254 607 1320 609 c 5
 1320 507 1302 247 1291 178 c 4
 1264 15 1026 -24 852 -24 c 4
 764 -24 684 -11 630 21 c 5
 547 -12 441 -24 352 -24 c 4
 153 -24 10 23 10 148 c 4
 10 244 42 458 53 590 c 5
 114 591 270 599 329 606 c 5
 317 478 288 272 288 184 c 4
 288 108 313 102 430 102 c 4
 497 102 539 117 545 154 c 4
 549 180 554 212 558 242 c 5
 478 248 406 266 370 285 c 5
 377 306 424 398 430 420 c 5
 462 397 504 378 561 370 c 5
 548 390 540 414 540 442 c 4
EndSplineSet
EndChar

StartChar: uni0E1A0E19.liga
Encoding: 1114118 -1 43
Width: 1280
VWidth: 0
Flags: W
HStem: -24 126<233 491.5> -24 105<1036.5 1194.5>
VStem: 10 278<65.5 258> 1180 180<60 212.5>
LayerCount: 12
Layer: 11
SplineSet
542 590 m 5xb0
 609 600 739 607 805 609 c 5
 805 532 786 327 772 200 c 5
 806 219 848 240 896 259 c 5
 906 365 928 482 955 595 c 5
 1023 601 1181 606 1235 606 c 5
 1203 496 1168 395 1151 314 c 5
 1297 306 1360 243 1360 150 c 4
 1360 19 1227 -24 1115 -24 c 4x70
 959 -24 892 49 890 146 c 5
 812 97 750 41 720 24 c 5
 636 -11 486 -24 352 -24 c 4
 153 -24 10 23 10 148 c 4
 10 244 42 458 53 590 c 5
 114 591 270 599 329 606 c 5
 317 478 288 272 288 184 c 4
 288 108 313 102 430 102 c 4
 497 102 509 117 515 154 c 4
 525 209 542 481 542 590 c 5xb0
1116 213 m 5
 1110 194 1105 173 1105 150 c 4
 1105 99 1114 81 1140 81 c 4
 1162 81 1180 101 1180 140 c 4
 1180 182 1161 207 1116 213 c 5
EndSplineSet
EndChar

StartChar: uni0E1A0E32.liga
Encoding: 1114119 -1 44
Width: 1225
VWidth: 0
Flags: W
HStem: -24 126<233 511.5> 492 126<813 875>
VStem: 10 278<65.5 258> 932 278<292 514>
LayerCount: 12
Layer: 11
SplineSet
545 570 m 5
 617 589 735 618 895 618 c 4
 1112 618 1210 536 1210 402 c 4
 1210 307 1192 158 1164 6 c 5
 1110 -2 974 -9 888 -12 c 5
 916 138 932 277 932 366 c 4
 932 492 875 492 820 492 c 4
 818 492 815 492 813 492 c 4
 808 375 799 227 791 178 c 4
 764 15 526 -24 352 -24 c 4
 153 -24 10 23 10 148 c 4
 10 244 42 458 53 590 c 5
 114 591 270 599 329 606 c 5
 317 478 288 272 288 184 c 4
 288 108 313 102 430 102 c 4
 497 102 509 117 515 154 c 4
 524 206 543 451 545 570 c 5
EndSplineSet
EndChar

StartChar: uni0E230E32.liga
Encoding: 1114120 -1 45
Width: 980
VWidth: 0
Flags: W
HStem: -24 120<181.5 328.5> 499 125<207 378.5 597.5 792>
VStem: -35 274<395 526> 300 278<66.5 204.5> 687 278<292 507.5>
LayerCount: 12
Layer: 11
SplineSet
643 -12 m 5
 671 138 687 277 687 366 c 4
 687 479 662 492 620 492 c 4
 575 492 520 447 500 430 c 5
 436 463 367 499 275 499 c 4
 250 499 239 485 239 468 c 4
 239 439 269 412 363 375 c 4
 513 316 578 241 578 168 c 4
 578 23 368 -24 235 -24 c 4
 134 -24 59 0 5 42 c 5
 37 57 149 131 174 151 c 5
 202 115 229 96 270 96 c 4
 289 96 300 110 300 133 c 4
 300 163 269 193 151 240 c 4
 25 289 -35 358 -35 432 c 4
 -35 567 164 624 325 624 c 4
 390 624 464 605 525 583 c 5
 574 602 636 618 695 618 c 4
 889 618 965 536 965 402 c 4
 965 307 947 158 919 6 c 5
 865 -2 729 -9 643 -12 c 5
EndSplineSet
EndChar

StartChar: uni0E01
Encoding: 3585 3585 46
Width: 810
VWidth: 0
Flags: HW
LayerCount: 12
Back
SplineSet
200 27 m 4
 210 98 213 145 227 260 c 4
 235 325 315 375 404 379 c 5
 390 415 317 477 269 489 c 1028
713 27 m 4
 746 184 767 298 767 390 c 4
 767 520 664 561 475 561 c 4
 339 561 206 515 155 482 c 1028
EndSplineSet
Layer: 11
SplineSet
-10 510 m 1
 75 565 229 624 428 624 c 0
 677 624 820 555 820 408 c 0
 820 279 783 92 770 12 c 1
 731 7 561 -12 490 -12 c 1
 510 117 542 277 542 375 c 0
 542 484 479 498 350 498 c 0
 299 498 255 489 222 479 c 1
 284 447 352 405 355 375 c 1
 339 250 315 112 305 -6 c 1
 289 -10 216 -12 170 -12 c 0
 117 -12 61 -5 35 0 c 5
 43 136 73 279 90 390 c 1
 78 411 18 454 0 465 c 0
 -5 469 -10 500 -10 510 c 1
EndSplineSet
EndChar

StartChar: uni0E2E
Encoding: 3630 3630 47
Width: 775
VWidth: 0
Flags: HW
LayerCount: 12
Back
SplineSet
705 615 m 4
 664 451 559 360 330 360 c 4
 212 360 120 392 120 435 c 4
 120 477 236 561 423 561 c 4
 570 561 685 462 685 316 c 4
 685 152 532 39 348 39 c 4
 197 39 105 139 105 240 c 4
 105 272 126 285 165 285 c 4
 220 285 274 279 300 275 c 1028
EndSplineSet
Layer: 2
SplineSet
414 599 m 4
 188 599 57 500 57 460 c 4
 57 419 165 374 309 374 c 4
 429 374 562 413 649 505 c 5
 593 565 509 599 414 599 c 4
662 491 m 5
 571 397 433 360 307 360 c 4
 165 360 36 397 36 457 c 4
 36 516 186 615 414 615 c 4
 514 615 602 579 662 519 c 5
 694 557 718 604 731 660 c 5
 752 657 l 5
 737 596 710 546 675 505 c 5
 718 456 743 392 743 319 c 4
 743 122 553 -15 324 -15 c 4
 134 -15 18 107 18 229 c 4
 18 271 50 291 102 291 c 4
 170 291 235 284 268 279 c 5
 263 264 l 5
 233 269 167 276 102 276 c 4
 60 276 38 262 38 229 c 4
 38 114 148 1 324 1 c 4
 541 1 721 131 721 319 c 4
 721 387 699 445 662 491 c 5
EndSplineSet
Layer: 3
SplineSet
409 588 m 4
 200 588 77 497 77 459 c 4
 77 421 178 380 311 380 c 4
 424 380 546 416 629 499 c 5
 576 555 497 588 409 588 c 4
651 473 m 5
 557 390 423 357 303 357 c 4
 159 357 28 392 28 452 c 4
 28 515 185 616 417 616 c 4
 515 616 598 585 657 532 c 5
 685 569 707 612 718 664 c 5
 762 658 l 5
 747 597 720 546 684 505 c 5
 726 456 750 393 750 321 c 4
 750 119 550 -16 320 -16 c 4
 123 -16 10 109 10 229 c 4
 10 278 51 298 107 298 c 4
 179 298 245 290 277 285 c 5
 276 282 268 262 267 259 c 4
 238 264 177 271 113 271 c 4
 83 271 64 263 56 246 c 4
 55 242 55 237 55 232 c 4
 57 117 164 12 329 12 c 4
 532 12 699 140 699 317 c 4
 699 378 681 431 651 473 c 5
EndSplineSet
Layer: 4
SplineSet
404 576 m 4
 213 576 99 494 99 459 c 4
 99 424 193 386 314 386 c 4
 420 386 531 421 609 494 c 5
 558 547 483 576 404 576 c 4
639 455 m 5
 543 382 415 353 300 353 c 4
 154 353 21 388 21 448 c 4
 21 515 186 617 422 617 c 4
 516 617 594 590 652 544 c 5
 677 579 696 620 706 668 c 5
 773 659 l 5
 758 597 730 546 693 505 c 5
 735 456 758 392 758 322 c 4
 758 116 549 -17 318 -17 c 4
 115 -17 3 111 3 228 c 4
 3 283 54 303 113 303 c 4
 189 303 256 294 287 289 c 5
 285 284 275 257 273 252 c 5
 244 257 188 264 125 264 c 4
 98 264 80 258 72 244 c 4
 72 241 72 238 72 235 c 4
 76 119 181 24 335 24 c 4
 525 24 679 148 679 314 c 4
 679 369 664 416 639 455 c 5
EndSplineSet
Layer: 5
SplineSet
399 565 m 4
 225 565 119 491 119 458 c 4
 119 425 206 393 316 393 c 4
 414 393 515 425 588 489 c 5
 540 538 471 565 399 565 c 4
625 440 m 5
 528 377 405 350 297 350 c 4
 149 350 13 382 13 443 c 4
 13 513 186 618 425 618 c 4
 515 618 590 595 646 556 c 5
 668 590 684 628 693 672 c 5
 783 660 l 5
 768 598 740 547 702 505 c 5
 743 456 765 393 765 324 c 4
 765 113 545 -18 314 -18 c 4
 104 -18 -5 113 -5 228 c 4
 -5 290 55 309 118 309 c 4
 197 309 265 300 295 295 c 5
 292 287 279 254 277 246 c 5
 249 251 184 259 121 259 c 4
 109 259 98 258 90 255 c 5
 89 238 l 5
 95 122 197 35 340 35 c 4
 516 35 657 156 657 312 c 4
 657 361 645 404 625 440 c 5
EndSplineSet
Layer: 6
SplineSet
395 553 m 4
 239 553 141 488 141 458 c 4
 141 428 220 399 319 399 c 4
 410 399 500 428 568 484 c 5
 522 529 459 553 395 553 c 4
611 425 m 5
 515 370 397 347 294 347 c 4
 144 347 6 377 6 438 c 4
 6 512 186 619 429 619 c 4
 514 619 585 599 640 566 c 5
 659 598 673 635 681 676 c 5
 794 661 l 5
 779 598 750 547 711 505 c 5
 751 456 773 394 773 326 c 4
 773 110 543 -19 311 -19 c 4
 95 -19 -12 114 -12 227 c 4
 -12 295 58 315 124 315 c 4
 207 315 276 305 305 300 c 5
 301 290 285 251 282 240 c 5
 254 245 190 253 128 253 c 4
 120 253 112 252 106 251 c 5
 106 241 l 5
 114 125 214 47 346 47 c 4
 508 47 637 165 637 310 c 4
 637 354 627 392 611 425 c 5
EndSplineSet
Layer: 7
SplineSet
388 542 m 4
 249 542 160 485 160 457 c 4
 160 430 233 405 320 405 c 4
 402 405 482 431 545 479 c 5
 502 520 444 542 388 542 c 4
593 411 m 5
 498 363 386 343 289 343 c 4
 138 343 -4 373 -4 434 c 4
 -4 512 185 620 432 620 c 4
 511 620 576 604 629 577 c 5
 646 608 659 642 666 680 c 5
 804 662 l 5
 789 599 759 547 720 504 c 5
 760 455 780 393 780 327 c 4
 780 107 540 -20 307 -20 c 4
 84 -20 -20 117 -20 227 c 4
 -20 302 58 321 128 321 c 4
 215 321 284 310 313 304 c 5
 307 291 290 247 286 234 c 5
 259 239 195 248 134 248 c 4
 130 248 126 247 122 247 c 6
 122 243 l 5
 132 126 228 58 350 58 c 4
 499 58 614 173 614 307 c 4
 614 346 606 381 593 411 c 5
EndSplineSet
Layer: 8
SplineSet
383 530 m 0
 262 530 181 482 181 457 c 0
 181 433 246 411 322 411 c 0
 396 411 467 434 524 475 c 1
 484 512 431 530 383 530 c 0
576 399 m 1
 483 358 377 340 285 340 c 0
 132 340 -12 368 -12 429 c 0
 -12 511 184 621 435 621 c 0
 508 621 570 608 620 585 c 1
 635 615 647 648 653 684 c 1
 814 663 l 1
 799 599 768 547 728 504 c 1
 767 455 787 394 787 329 c 0
 787 104 537 -21 303 -21 c 0
 74 -21 -28 118 -28 226 c 0
 -28 307 60 327 133 327 c 0
 224 327 294 315 322 309 c 1
 315 294 295 244 290 228 c 1
 263 233 200 242 140 242 c 0
 139 242 139 242 138 242 c 1
 152 128 245 70 355 70 c 0
 490 70 593 182 593 305 c 0
 593 341 587 372 576 399 c 1
EndSplineSet
Layer: 9
SplineSet
379 519 m 4
 275 519 202 479 202 456 c 4
 202 434 260 418 325 418 c 4
 391 418 452 437 503 470 c 5
 466 503 420 519 379 519 c 4
558 387 m 5
 468 352 369 337 283 337 c 4
 128 337 -19 362 -19 424 c 4
 -19 509 185 622 439 622 c 4
 507 622 564 611 612 593 c 5
 626 622 636 654 641 688 c 5
 825 664 l 5
 810 600 779 546 738 503 c 5
 776 454 795 395 795 331 c 4
 795 101 534 -22 300 -22 c 4
 64 -22 -35 120 -35 226 c 4
 -35 314 62 333 139 333 c 4
 233 333 304 321 331 315 c 5
 323 297 300 241 295 222 c 5
 271 227 215 236 158 237 c 5
 177 129 265 81 361 81 c 4
 482 81 572 190 572 303 c 4
 572 335 567 363 558 387 c 5
EndSplineSet
Layer: 10
SplineSet
244 333 m 5
 291 329 324 323 340 319 c 5
 331 299 306 236 300 215 c 5
 277 219 227 228 176 230 c 5
 200 129 283 93 366 93 c 4
 474 93 551 198 551 300 c 4
 551 329 547 354 540 376 c 5
 453 346 360 333 279 333 c 4
 267 333 256 333 244 333 c 5
166 338 m 5
 57 348 -27 373 -27 420 c 4
 -27 509 185 623 443 623 c 4
 504 623 557 614 602 600 c 5
 615 628 624 659 628 692 c 5
 835 665 l 5
 820 601 789 547 747 503 c 5
 785 454 802 394 802 332 c 4
 802 98 532 -23 297 -23 c 4
 55 -23 -43 122 -43 225 c 4
 -43 319 64 338 144 338 c 4
 151 338 159 338 166 338 c 5
373 507 m 4
 287 507 223 476 223 456 c 4
 223 437 274 424 327 424 c 4
 384 424 436 439 481 465 c 5
 447 494 406 507 373 507 c 4
EndSplineSet
Layer: 11
SplineSet
319 331 m 1
 332 329 343 327 350 325 c 1
 340 302 312 234 305 210 c 1
 285 214 243 221 197 224 c 1
 224 131 301 104 372 104 c 0
 466 104 530 207 530 298 c 0
 530 324 527 347 521 367 c 1
 454 346 383 335 319 331 c 1
97 342 m 1
 20 355 -34 378 -34 415 c 0
 -34 508 185 624 447 624 c 0
 502 624 550 617 592 606 c 1
 604 634 612 664 616 696 c 1
 846 666 l 1
 831 601 799 547 756 503 c 1
 793 454 810 395 810 334 c 0
 810 95 530 -24 294 -24 c 0
 45 -24 -50 124 -50 225 c 0
 -50 306 24 334 97 342 c 1
460 461 m 1
 430 485 395 496 369 496 c 0
 300 496 244 473 244 455 c 0
 244 439 288 430 330 430 c 0
 378 430 422 441 460 461 c 1
EndSplineSet
EndChar

StartChar: uni0E2A
Encoding: 3626 3626 48
Width: 790
VWidth: 0
Flags: HW
LayerCount: 12
Layer: 11
SplineSet
-15 435 m 1
 31 514 186 624 447 624 c 0
 486 624 521 621 554 615 c 1
 588 646 619 674 645 696 c 5
 865 636 l 1
 815 607 764 577 714 545 c 1
 767 498 795 431 795 346 c 0
 795 188 734 70 660 -4 c 1
 609 -5 531 -7 465 -12 c 1
 448 15 372 135 282 135 c 1
 279 128 278 111 278 90 c 0
 278 66 286 19 291 0 c 1
 220 0 87 -9 15 -18 c 1
 9 17 0 68 0 120 c 0
 0 275 105 315 225 315 c 0
 237 315 249 314 260 313 c 1
 307 369 363 429 421 487 c 1
 401 494 382 496 369 496 c 0
 296 496 246 435 225 390 c 1
 180 390 26 415 -15 435 c 1
504 398 m 1
 458 362 414 324 371 284 c 1
 426 259 469 223 503 188 c 1
 512 217 517 256 517 310 c 0
 517 346 512 375 504 398 c 1
EndSplineSet
EndChar

StartChar: uni0E16
Encoding: 3606 3606 49
Width: 810
VWidth: 0
Flags: HW
LayerCount: 12
Back
SplineSet
659 27 m 4
 692 184 713 298 713 390 c 4
 713 520 610 561 421 561 c 4
 235 561 144 523 96 495 c 1028
EndSplineSet
Layer: 2
SplineSet
60 135 m 4
 60 234 151 376 172 415 c 5
 166 433 79 499 60 510 c 4
 58 512 57 520 57 523 c 4
 111 554 213 615 400 615 c 4
 623 615 752 568 752 416 c 4
 752 315 724 139 697 0 c 5
 673 -3 l 5
 697 129 730 304 730 414 c 4
 730 555 619 599 398 599 c 4
 228 599 133 547 80 517 c 5
 110 497 189 435 194 415 c 5
 169 370 132 308 107 247 c 5
 127 251 156 256 193 256 c 4
 277 256 359 208 359 110 c 4
 359 30 293 -15 206 -15 c 4
 146 -15 60 19 60 135 c 4
100 230 m 5
 88 198 81 166 81 137 c 4
 81 27 157 0 208 0 c 4
 285 0 340 40 340 107 c 4
 340 196 265 241 191 241 c 4
 154 241 122 235 100 230 c 5
EndSplineSet
Layer: 3
SplineSet
54 137 m 4
 54 234 141 373 163 414 c 5
 156 432 73 494 54 505 c 4
 52 507 50 518 50 522 c 4
 107 556 216 616 404 616 c 4
 630 616 760 566 760 415 c 4
 760 311 731 133 706 1 c 4
 702 0 661 -4 653 -4 c 5
 677 128 710 301 710 410 c 4
 710 547 604 588 393 588 c 4
 235 588 144 542 93 513 c 5
 129 489 203 432 209 413 c 5
 186 372 151 314 126 256 c 5
 144 259 169 263 198 263 c 4
 291 263 372 212 372 114 c 4
 372 28 299 -16 209 -16 c 4
 138 -16 54 23 54 137 c 4
116 230 m 5
 104 198 97 167 97 138 c 4
 97 35 166 9 213 9 c 4
 284 9 335 47 335 111 c 4
 335 196 265 238 192 238 c 4
 162 238 136 234 116 230 c 5
EndSplineSet
Layer: 4
SplineSet
47 138 m 4
 47 233 130 369 153 413 c 5
 145 431 66 489 47 500 c 4
 44 502 42 515 42 520 c 5
 103 556 216 617 406 617 c 4
 635 617 767 565 767 414 c 4
 767 307 737 129 713 3 c 5
 704 2 648 -5 632 -5 c 5
 655 126 688 298 688 405 c 4
 688 539 588 577 387 577 c 4
 244 577 156 535 108 508 c 5
 148 482 218 431 223 412 c 5
 202 374 169 320 145 265 c 5
 161 267 179 269 201 269 c 4
 303 269 384 217 384 119 c 4
 384 28 303 -17 210 -17 c 4
 128 -17 47 26 47 138 c 4
131 230 m 5
 120 199 112 168 112 140 c 4
 112 43 174 18 217 18 c 4
 282 18 329 53 329 114 c 4
 329 194 265 235 193 235 c 4
 170 235 149 233 131 230 c 5
EndSplineSet
Layer: 5
SplineSet
40 140 m 0
 40 234 118 366 143 412 c 1
 133 430 59 484 40 495 c 0
 37 498 35 514 35 519 c 1
 99 558 219 618 410 618 c 0
 642 618 775 563 775 413 c 0
 775 303 744 123 722 4 c 1
 709 2 636 -6 612 -6 c 1
 635 125 668 295 668 401 c 0
 668 531 572 565 382 565 c 0
 251 565 168 529 122 503 c 1
 165 475 232 428 238 410 c 1
 219 375 189 325 165 273 c 1
 177 275 191 276 206 276 c 0
 318 276 396 221 396 123 c 0
 396 26 308 -18 213 -18 c 4
 120 -18 40 30 40 140 c 0
146 229 m 1
 135 199 128 168 128 141 c 0
 128 51 182 27 222 27 c 0
 281 27 324 60 324 118 c 0
 324 194 265 232 194 232 c 0
 177 232 160 231 146 229 c 1
EndSplineSet
Layer: 6
SplineSet
33 142 m 4
 33 234 107 363 133 411 c 5
 122 429 52 479 33 490 c 4
 30 493 27 511 27 517 c 5
 95 559 220 619 412 619 c 4
 647 619 782 562 782 412 c 4
 782 299 750 118 729 5 c 5
 712 3 623 -7 591 -7 c 5
 613 124 646 292 646 397 c 4
 646 524 556 554 376 554 c 4
 257 554 179 523 135 499 c 5
 181 470 246 426 252 408 c 5
 234 376 206 330 183 281 c 5
 191 282 200 282 209 282 c 4
 330 282 408 226 408 128 c 4
 408 25 312 -19 214 -19 c 4
 110 -19 33 34 33 142 c 4
160 227 m 5
 150 198 143 169 143 143 c 4
 143 59 190 36 226 36 c 4
 279 36 318 67 318 122 c 4
 318 193 265 229 195 229 c 4
 183 229 171 228 160 227 c 5
EndSplineSet
Layer: 7
SplineSet
27 143 m 4
 27 233 97 358 124 409 c 5
 112 426 45 474 27 485 c 4
 23 488 20 509 20 516 c 5
 91 560 222 620 416 620 c 4
 653 620 790 561 790 412 c 4
 790 295 757 113 738 7 c 5
 716 4 611 -8 572 -8 c 5
 594 122 626 289 626 392 c 4
 626 515 542 543 372 543 c 4
 268 543 195 517 152 495 c 5
 200 466 261 424 267 407 c 5
 250 378 224 335 201 289 c 5
 205 289 210 289 214 289 c 4
 344 289 421 231 421 132 c 4
 421 24 318 -20 217 -20 c 4
 103 -20 27 36 27 143 c 4
175 226 m 5
 165 198 158 170 158 144 c 4
 158 67 200 45 232 45 c 4
 278 45 312 74 312 125 c 4
 312 192 264 227 196 227 c 4
 189 227 182 226 175 226 c 5
EndSplineSet
Layer: 8
SplineSet
20 145 m 0
 20 233 86 355 114 408 c 1
 101 425 38 469 20 480 c 0
 16 483 12 506 12 514 c 1
 87 561 223 621 418 621 c 4
 658 621 797 560 797 411 c 0
 797 291 763 108 745 8 c 1
 719 5 598 -9 551 -9 c 1
 572 121 604 286 604 388 c 0
 604 508 526 532 366 532 c 0
 274 532 206 510 166 491 c 1
 215 462 275 422 281 405 c 1
 266 378 241 338 219 295 c 1
 357 294 433 236 433 137 c 0
 433 23 322 -21 218 -21 c 0
 93 -21 20 40 20 145 c 0
188 224 m 0
 179 197 173 170 173 146 c 0
 173 75 208 54 236 54 c 0
 276 54 306 81 306 129 c 0
 306 191 264 224 197 224 c 0
 194 224 191 224 188 224 c 0
EndSplineSet
Layer: 9
SplineSet
13 147 m 0
 13 234 74 352 104 407 c 1
 89 424 31 464 13 475 c 0
 9 479 5 505 5 513 c 1
 83 563 226 622 422 622 c 4
 665 622 805 558 805 410 c 0
 805 287 770 102 754 9 c 1
 724 5 586 -10 531 -10 c 1
 552 120 584 283 584 384 c 0
 584 500 510 520 361 520 c 0
 282 520 219 503 181 486 c 1
 231 457 290 419 296 403 c 1
 282 379 260 342 239 302 c 1
 377 297 445 236 445 141 c 0
 445 21 327 -22 221 -22 c 0
 85 -22 13 44 13 147 c 0
203 221 m 1
 194 195 189 170 189 147 c 0
 189 83 216 63 241 63 c 0
 275 63 301 88 301 133 c 0
 301 189 266 219 203 221 c 1
EndSplineSet
Layer: 10
SplineSet
6 148 m 4
 6 233 63 348 94 406 c 5
 78 423 24 459 6 470 c 4
 1 474 -3 502 -3 511 c 5
 79 563 226 623 424 623 c 4
 670 623 812 557 812 409 c 4
 812 283 776 98 761 11 c 5
 726 7 573 -11 510 -11 c 5
 530 118 562 280 562 379 c 4
 562 492 494 509 355 509 c 4
 289 509 235 496 199 482 c 5
 250 453 304 418 310 402 c 5
 297 379 276 345 256 307 c 5
 393 299 457 238 457 146 c 4
 457 21 331 -23 222 -23 c 4
 75 -23 6 47 6 148 c 4
216 217 m 5
 208 193 204 170 204 149 c 4
 204 91 224 72 245 72 c 4
 273 72 295 94 295 136 c 4
 295 184 269 212 216 217 c 5
EndSplineSet
Layer: 11
SplineSet
0 150 m 4
 0 233 53 345 85 405 c 5
 68 422 18 454 0 465 c 4
 -5 469 -10 500 -10 510 c 5
 75 565 229 624 428 624 c 4
 677 624 820 555 820 408 c 4
 820 279 783 92 770 12 c 5
 731 7 561 -12 490 -12 c 5
 510 117 542 277 542 375 c 4
 542 484 479 498 350 498 c 4
 296 498 249 488 216 477 c 5
 267 449 319 416 325 400 c 5
 313 380 294 348 275 313 c 5
 410 302 470 240 470 150 c 4
 470 19 337 -24 225 -24 c 4
 67 -24 0 51 0 150 c 4
231 213 m 5
 224 191 220 170 220 150 c 4
 220 99 233 81 250 81 c 4
 272 81 290 101 290 140 c 4
 290 180 273 205 231 213 c 5
EndSplineSet
EndChar

StartChar: uni0E20
Encoding: 3616 3616 50
Width: 840
VWidth: 0
Flags: HW
LayerCount: 12
Layer: 11
SplineSet
20 510 m 1
 105 565 259 624 458 624 c 0
 707 624 850 555 850 408 c 0
 850 279 813 92 800 12 c 1
 761 7 591 -12 520 -12 c 1
 540 117 572 277 572 375 c 0
 572 484 509 498 380 498 c 0
 334 498 293 491 261 482 c 1
 328 452 400 411 400 375 c 0
 400 301 399 236 390 165 c 0
 375 63 255 -24 113 -24 c 0
 -10 -24 -70 43 -70 117 c 0
 -70 254 68 303 163 313 c 1
 164 338 165 362 165 390 c 1
 153 411 51 461 30 465 c 0
 25 469 20 500 20 510 c 1
180 155 m 0
 180 177 176 196 172 215 c 0
 169 215 165 215 162 215 c 0
 126 215 108 181 108 139 c 0
 108 98 122 81 146 81 c 0
 172 81 180 115 180 155 c 0
EndSplineSet
EndChar

StartChar: uni0E24
Encoding: 3620 3620 51
Width: 810
VWidth: 0
Flags: HW
LayerCount: 12
Layer: 2
SplineSet
60 135 m 0
 60 234 151 376 172 415 c 1
 166 433 79 499 60 510 c 0
 58 512 57 520 57 523 c 0
 111 554 213 615 400 615 c 0
 623 615 752 568 752 416 c 0
 752 315 694 -111 667 -250 c 1
 643 -253 l 5
 667 -121 730 304 730 414 c 0
 730 555 619 599 398 599 c 0
 228 599 133 547 80 517 c 1
 110 497 189 435 194 415 c 1
 169 370 132 308 107 247 c 1
 127 251 156 256 193 256 c 0
 277 256 359 208 359 110 c 0
 359 30 293 -15 206 -15 c 0
 146 -15 60 19 60 135 c 0
100 230 m 1
 88 198 81 166 81 137 c 0
 81 27 157 0 208 0 c 0
 285 0 340 40 340 107 c 0
 340 196 265 241 191 241 c 0
 154 241 122 235 100 230 c 1
EndSplineSet
Layer: 3
SplineSet
54 137 m 0
 54 234 141 373 163 414 c 1
 156 432 73 494 54 505 c 0
 52 507 50 518 50 522 c 0
 107 556 216 616 404 616 c 0
 630 616 760 566 760 415 c 0
 760 311 701 -117 676 -249 c 4
 672 -250 631 -254 623 -254 c 5
 647 -122 710 301 710 410 c 0
 710 547 604 588 393 588 c 0
 235 588 144 542 93 513 c 1
 129 489 203 432 209 413 c 1
 186 372 151 314 126 256 c 1
 144 259 169 263 198 263 c 0
 291 263 372 212 372 114 c 0
 372 28 299 -16 209 -16 c 0
 138 -16 54 23 54 137 c 0
116 230 m 1
 104 198 97 167 97 138 c 0
 97 35 166 9 213 9 c 0
 284 9 335 47 335 111 c 0
 335 196 265 238 192 238 c 0
 162 238 136 234 116 230 c 1
EndSplineSet
Layer: 4
SplineSet
47 138 m 0
 47 233 130 369 153 413 c 1
 145 431 66 489 47 500 c 0
 44 502 42 515 42 520 c 1
 103 556 216 617 406 617 c 0
 635 617 767 565 767 414 c 0
 767 307 707 -121 683 -247 c 5
 674 -248 618 -255 602 -255 c 5
 625 -124 688 298 688 405 c 0
 688 539 588 577 387 577 c 0
 244 577 156 535 108 508 c 1
 148 482 218 431 223 412 c 1
 202 374 169 320 145 265 c 1
 161 267 179 269 201 269 c 0
 303 269 384 217 384 119 c 0
 384 28 303 -17 210 -17 c 0
 128 -17 47 26 47 138 c 0
131 230 m 1
 120 199 112 168 112 140 c 0
 112 43 174 18 217 18 c 0
 282 18 329 53 329 114 c 0
 329 194 265 235 193 235 c 0
 170 235 149 233 131 230 c 1
EndSplineSet
Layer: 5
SplineSet
40 140 m 0
 40 234 118 366 143 412 c 1
 133 430 59 484 40 495 c 0
 37 498 35 514 35 519 c 1
 99 558 219 618 410 618 c 0
 642 618 775 563 775 413 c 0
 775 303 714 -127 692 -246 c 5
 679 -248 606 -256 582 -256 c 5
 605 -125 668 295 668 401 c 0
 668 531 572 565 382 565 c 0
 251 565 168 529 122 503 c 1
 165 475 232 428 238 410 c 1
 219 375 189 325 165 273 c 1
 177 275 191 276 206 276 c 0
 318 276 396 221 396 123 c 0
 396 26 308 -18 213 -18 c 0
 120 -18 40 30 40 140 c 0
146 229 m 1
 135 199 128 168 128 141 c 0
 128 51 182 27 222 27 c 0
 281 27 324 60 324 118 c 0
 324 194 265 232 194 232 c 0
 177 232 160 231 146 229 c 1
EndSplineSet
Layer: 6
SplineSet
33 142 m 0
 33 234 107 363 133 411 c 1
 122 429 52 479 33 490 c 0
 30 493 27 511 27 517 c 1
 95 559 220 619 412 619 c 0
 647 619 782 562 782 412 c 0
 782 299 720 -132 699 -245 c 5
 682 -247 593 -257 561 -257 c 5
 583 -126 646 292 646 397 c 0
 646 524 556 554 376 554 c 0
 257 554 179 523 135 499 c 1
 181 470 246 426 252 408 c 1
 234 376 206 330 183 281 c 1
 191 282 200 282 209 282 c 0
 330 282 408 226 408 128 c 0
 408 25 312 -19 214 -19 c 0
 110 -19 33 34 33 142 c 0
160 227 m 1
 150 198 143 169 143 143 c 0
 143 59 190 36 226 36 c 0
 279 36 318 67 318 122 c 0
 318 193 265 229 195 229 c 0
 183 229 171 228 160 227 c 1
EndSplineSet
Layer: 7
SplineSet
27 143 m 0
 27 233 97 358 124 409 c 1
 112 426 45 474 27 485 c 0
 23 488 20 509 20 516 c 1
 91 560 222 620 416 620 c 0
 653 620 790 561 790 412 c 0
 790 295 727 -137 708 -243 c 5
 686 -246 581 -258 542 -258 c 5
 564 -128 626 289 626 392 c 0
 626 515 542 543 372 543 c 0
 268 543 195 517 152 495 c 1
 200 466 261 424 267 407 c 1
 250 378 224 335 201 289 c 1
 205 289 210 289 214 289 c 0
 344 289 421 231 421 132 c 0
 421 24 318 -20 217 -20 c 0
 103 -20 27 36 27 143 c 0
175 226 m 1
 165 198 158 170 158 144 c 0
 158 67 200 45 232 45 c 0
 278 45 312 74 312 125 c 0
 312 192 264 227 196 227 c 0
 189 227 182 226 175 226 c 1
EndSplineSet
Layer: 8
SplineSet
20 145 m 0
 20 233 86 355 114 408 c 1
 101 425 38 469 20 480 c 0
 16 483 12 506 12 514 c 1
 87 561 223 621 418 621 c 0
 658 621 797 560 797 411 c 0
 797 291 733 -142 715 -242 c 5
 689 -245 568 -259 521 -259 c 5
 542 -129 604 286 604 388 c 0
 604 508 526 532 366 532 c 0
 274 532 206 510 166 491 c 1
 215 462 275 422 281 405 c 1
 266 378 241 338 219 295 c 1
 357 294 433 236 433 137 c 0
 433 23 322 -21 218 -21 c 0
 93 -21 20 40 20 145 c 0
188 224 m 0
 179 197 173 170 173 146 c 0
 173 75 208 54 236 54 c 0
 276 54 306 81 306 129 c 0
 306 191 264 224 197 224 c 0
 194 224 191 224 188 224 c 0
EndSplineSet
Layer: 9
SplineSet
13 147 m 0
 13 234 74 352 104 407 c 1
 89 424 31 464 13 475 c 0
 9 479 5 505 5 513 c 1
 83 563 226 622 422 622 c 0
 665 622 805 558 805 410 c 0
 805 287 740 -148 724 -241 c 5
 694 -245 556 -260 501 -260 c 5
 522 -130 584 283 584 384 c 0
 584 500 510 520 361 520 c 0
 282 520 219 503 181 486 c 1
 231 457 290 419 296 403 c 1
 282 379 260 342 239 302 c 1
 377 297 445 236 445 141 c 0
 445 21 327 -22 221 -22 c 0
 85 -22 13 44 13 147 c 0
203 221 m 1
 194 195 189 170 189 147 c 0
 189 83 216 63 241 63 c 0
 275 63 301 88 301 133 c 0
 301 189 266 219 203 221 c 1
EndSplineSet
Layer: 10
SplineSet
6 148 m 0
 6 233 63 348 94 406 c 1
 78 423 24 459 6 470 c 0
 1 474 -3 502 -3 511 c 1
 79 563 226 623 424 623 c 0
 670 623 812 557 812 409 c 0
 812 283 746 -152 731 -239 c 5
 696 -243 543 -261 480 -261 c 5
 500 -132 562 280 562 379 c 0
 562 492 494 509 355 509 c 0
 289 509 235 496 199 482 c 1
 250 453 304 418 310 402 c 1
 297 379 276 345 256 307 c 1
 393 299 457 238 457 146 c 0
 457 21 331 -23 222 -23 c 0
 75 -23 6 47 6 148 c 0
216 217 m 1
 208 193 204 170 204 149 c 0
 204 91 224 72 245 72 c 0
 273 72 295 94 295 136 c 0
 295 184 269 212 216 217 c 1
EndSplineSet
Layer: 11
SplineSet
0 150 m 0
 0 233 53 345 85 405 c 1
 68 422 18 454 0 465 c 0
 -5 469 -10 500 -10 510 c 1
 75 565 229 624 428 624 c 0
 677 624 820 555 820 408 c 0
 820 279 753 -158 740 -238 c 1
 701 -243 531 -262 460 -262 c 1
 480 -133 542 277 542 375 c 0
 542 484 479 498 350 498 c 0
 296 498 249 488 216 477 c 1
 267 449 319 416 325 400 c 1
 313 380 294 348 275 313 c 1
 410 302 470 240 470 150 c 0
 470 19 337 -24 225 -24 c 0
 67 -24 0 51 0 150 c 0
231 213 m 1
 224 191 220 170 220 150 c 0
 220 99 233 81 250 81 c 0
 272 81 290 101 290 140 c 0
 290 180 273 205 231 213 c 1
EndSplineSet
EndChar

StartChar: uni0EAA
Encoding: 3754 3754 52
Width: 775
VWidth: 0
Flags: HW
LayerCount: 12
Layer: 11
SplineSet
0 120 m 4
 0 275 105 315 225 315 c 4
 352 315 444 251 503 188 c 5
 512 217 517 256 517 310 c 4
 517 328 516 344 514 359 c 5
 440 339 363 330 295 330 c 4
 136 330 -15 353 -15 415 c 4
 -15 508 195 624 447 624 c 4
 509 624 563 617 609 602 c 5
 622 631 631 663 635 696 c 5
 865 666 l 5
 848 594 811 535 761 488 c 5
 784 449 795 401 795 346 c 4
 795 188 734 70 660 -4 c 5
 609 -5 531 -7 465 -12 c 5
 448 15 372 135 282 135 c 5
 279 128 278 111 278 90 c 4
 278 66 286 19 291 0 c 5
 220 0 87 -9 15 -18 c 5
 9 17 0 68 0 120 c 4
369 496 m 4
 310 496 263 473 263 455 c 4
 263 439 307 430 349 430 c 4
 393 430 433 439 469 456 c 5
 435 490 392 496 369 496 c 4
EndSplineSet
EndChar

StartChar: uni0E04
Encoding: 3588 3588 53
Width: 870
VWidth: 0
Flags: HW
LayerCount: 12
Back
SplineSet
540 280 m 4
 528 282 516 284 504 284 c 4
 375 284 295 156 200 27 c 5
 174 105 155 296 155 360 c 4
 155 467 240 561 475 561 c 4
 664 561 767 520 767 390 c 4
 767 298 746 184 713 27 c 1028
EndSplineSet
Layer: 11
SplineSet
5 330 m 0
 5 535 191 624 488 624 c 0
 737 624 880 555 880 408 c 0
 880 279 843 92 830 12 c 1
 791 7 621 -12 550 -12 c 1
 570 117 602 277 602 375 c 0
 602 484 539 498 410 498 c 0
 330 498 255 461 255 390 c 0
 255 339 256 286 259 235 c 1
 312 306 373 350 470 350 c 0
 507 350 535 341 555 335 c 1
 546 310 511 209 505 185 c 1
 505 185 463 195 440 195 c 1
 407 179 302 53 275 12 c 1
 275 12 155 -24 95 -24 c 4
 77 -24 57 -12 51 12 c 0
 35 77 5 213 5 330 c 0
EndSplineSet
EndChar

StartChar: uni0E05
Encoding: 3589 3589 54
Width: 900
VWidth: 0
Flags: HW
LayerCount: 12
Layer: 11
SplineSet
5 315 m 4
 5 421 22 538 40 595 c 5
 108 601 271 606 325 606 c 5
 374 522 445 481 498 481 c 4
 537 481 595 498 650 596 c 5
 706 603 855 612 910 612 c 5
 894 395 858 127 840 12 c 5
 801 7 631 -12 560 -12 c 5
 579 83 608 277 628 425 c 5
 571 400 503 385 420 385 c 4
 359 385 306 400 261 422 c 5
 256 397 252 371 250 345 c 4
 248 311 246 279 245 249 c 5
 295 312 354 350 445 350 c 4
 482 350 510 341 530 335 c 5
 521 310 486 209 480 185 c 5
 480 185 438 195 415 195 c 5
 382 179 277 53 250 12 c 5
 250 12 130 -24 70 -24 c 4
 52 -24 32 -12 26 12 c 4
 10 77 5 198 5 315 c 4
EndSplineSet
EndChar

StartChar: uni0E28
Encoding: 3624 3624 55
Width: 870
VWidth: 0
Flags: HW
LayerCount: 12
Back
SplineSet
787 615 m 4
 621 473 337 189 200 27 c 1
 174 105 155 296 155 360 c 0
 155 467 240 561 475 561 c 0
 664 561 767 520 767 390 c 0
 767 298 746 184 713 27 c 1024
EndSplineSet
Fore
SplineSet
540 280 m 4
 528 282 516 284 504 284 c 4
 375 284 295 156 200 27 c 5
 174 105 155 296 155 360 c 4
 155 467 240 561 475 561 c 4
 664 561 767 520 767 390 c 4
 767 298 746 184 713 27 c 1028
787 615 m 21
 658 526 465 386 465 315 c 5
 465 299 528 271 540 270 c 1029
EndSplineSet
Layer: 2
SplineSet
780.543945312 619.478515625 m 5
 793.455078125 610.522460938 l 5
 765.419921875 585.899414062 731.118164062 558.899414062 695.370117188 531.203125 c 5
 748.502929688 503.415039062 775.95703125 457.831054688 775.956054688 390.551757812 c 4
 775.95703125 297.712890625 754.84765625 183.44921875 721.833984375 26.3837890625 c 5
 704.166015625 27.615234375 l 5
 737.153320312 184.551757812 758.043945312 298.287109375 758.043945312 389.448242188 c 4
 758.043945312 454.954101562 731.671875 495.748046875 681.817382812 520.719726562 c 5
 572.13671875 435.986328125 459.500976562 347.440429688 458.955078125 301.583007812 c 5
 459.208984375 300.490234375 463.397460938 295.735351562 471.797851562 290.62109375 c 4
 474.413085938 289.028320312 477.748046875 287.176757812 481.080078125 285.4296875 c 4
 499.631835938 280.551757812 531.422851562 266.264648438 544.3515625 261.416015625 c 4
 553.1953125 258.099609375 538.374023438 247.982421875 538.374023438 247.982421875 c 4
 527.56640625 248.8828125 497.091796875 259.975585938 472.407226562 272.447265625 c 4
 470.633789062 272.828125 469.344726562 272.944335938 469.299804688 272.944335938 c 4
 348.751953125 272.944335938 304.797851562 155.73046875 207.66015625 23.8271484375 c 4
 207.66015625 23.8271484375 195.735351562 11.4853515625 191.325195312 24.716796875 c 4
 164.8671875 104.086914062 146.043945312 294.612304688 146.043945312 359.448242188 c 4
 146.043945312 365.8671875 146.341796875 372.249023438 146.952148438 378.579101562 c 4
 156.909179688 481.80078125 250.994140625 568.055664062 475.701171875 568.055664062 c 4
 560.774414062 568.055664062 629.54296875 559.875976562 680.125 538.395507812 c 5
 716.958984375 566.907226562 752.189453125 594.575195312 780.543945312 619.478515625 c 5
666.264648438 527.680664062 m 5
 619.904296875 546.197265625 555.453125 553.944335938 474.299804688 553.944335938 c 4
 256.451171875 553.944335938 173.967773438 473.514648438 164.813476562 378.611328125 c 4
 164.23828125 372.654296875 163.956054688 366.62890625 163.956054688 360.551757812 c 4
 163.95703125 301.4609375 180.493164062 131.309570312 203.69921875 45.884765625 c 5
 284.029296875 158.979492188 333.173828125 273.844726562 450.30859375 286.032226562 c 5
 445.60546875 289.950195312 441.043945312 294.515625 441.043945312 300.448242188 c 4
 441.043945312 357.233398438 559.844726562 445.490234375 666.264648438 527.680664062 c 5
EndSplineSet
Layer: 11
SplineSet
5 330 m 0
 5 535 191 624 488 624 c 0
 519 624 549 623 577 621 c 1
 609 649 640 674 665 696 c 5
 885 636 l 1
 849 615 812 593 777 571 c 1
 844 535 880 482 880 408 c 0
 880 279 843 92 830 12 c 1
 791 7 621 -12 550 -12 c 1
 570 117 602 277 602 375 c 0
 602 405 598 428 588 445 c 1
 534 406 495 377 485 365 c 1
 493 354 544 341 565 335 c 1
 555 290 528 205 513 175 c 1
 501 180 488 185 475 191 c 0
 463 193 450 195 440 195 c 1
 407 179 302 53 275 12 c 1
 275 12 155 -24 95 -24 c 0
 77 -24 57 -12 51 12 c 0
 35 77 5 213 5 330 c 0
440 498 m 1
 430 498 421 498 410 498 c 0
 330 498 255 461 255 390 c 0
 255 339 256 286 259 235 c 1
 275 257 293 277 312 293 c 1
 307 300 305 308 305 315 c 0
 305 355 365 425 440 498 c 1
EndSplineSet
EndChar

StartChar: uni0E08
Encoding: 3592 3592 56
Width: 630
VWidth: 0
Flags: HW
LayerCount: 12
Back
SplineSet
129 244 m 0
 139 252 178 270 200 270 c 4
 230 270 264 220 294 165 c 0
 328 103 370 35 379 30 c 1
 447 59 550 194 550 328 c 0
 550 502 443 561 322 561 c 0
 218 561 104 509 36 427 c 1025
EndSplineSet
Layer: 11
SplineSet
20 268 m 5
 53 283 117 315 185 315 c 0
 267 315 314 275 351 207 c 1
 361 234 367 267 367 310 c 0
 367 479 270 496 234 496 c 0
 171 496 126 435 105 390 c 1
 60 390 -94 415 -135 435 c 1
 -89 514 66 624 312 624 c 0
 523 624 645 525 645 346 c 0
 645 183 559 65 480 -4 c 1
 429 -5 326 -7 260 -12 c 1
 235 67 196 142 150 165 c 1
 123 161 86 146 65 135 c 1
 58 159 31 241 20 268 c 5
EndSplineSet
EndChar

StartChar: uni0E02
Encoding: 3586 3586 57
Width: 750
VWidth: 0
Flags: HW
LayerCount: 12
Back
SplineSet
616 591 m 5
 614 492 599 242 593 180 c 4
 585 94 481 39 325 39 c 4
 209 39 136 95 136 195 c 4
 136 324 328 347 328 469 c 4
 328 555 268 590 207 590 c 4
 151 590 90 556 73 498 c 1029
EndSplineSet
Layer: 11
SplineSet
-20 500 m 1
 29 564 130 624 250 624 c 0
 393 624 450 566 450 480 c 0
 450 334 270 287 270 195 c 0
 270 121 322 102 360 102 c 0
 427 102 449 127 455 164 c 0
 465 219 482 481 482 590 c 1
 549 600 694 607 760 609 c 1
 760 507 742 257 731 188 c 0
 704 25 466 -24 292 -24 c 4
 77 -24 5 74 5 180 c 0
 5 331 230 400 230 470 c 0
 230 494 219 508 205 510 c 1
 186 500 130 439 115 420 c 1
 82 447 24 484 -20 500 c 1
EndSplineSet
EndChar

StartChar: uni0E07
Encoding: 3591 3591 58
Width: 535
VWidth: 0
Flags: HW
LayerCount: 12
Back
SplineSet
-60 330 m 0
 116 160 278 26 316 15 c 1
 356 24 396 356 396 455 c 4
 396 561 319 590 267 590 c 4
 207 590 133 563 133 481 c 4
 133 393 207 350 281 350 c 4
 319 350 353 353 388 359 c 1028
EndSplineSet
Layer: 11
SplineSet
-100 240 m 5
 75 345 l 5
 154 260 227 182 255 158 c 5
 267 187 277 239 284 286 c 5
 139 294 75 357 75 450 c 4
 75 581 208 624 320 624 c 4
 478 624 545 549 545 450 c 4
 545 270 493 21 425 0 c 5
 215 -9 l 5
 180 12 38 119 -100 240 c 5
315 387 m 5
 323 406 330 427 330 450 c 4
 330 501 321 519 295 519 c 4
 273 519 255 499 255 460 c 4
 255 419 273 394 315 387 c 5
EndSplineSet
EndChar

StartChar: uni0E03
Encoding: 3587 3587 59
Width: 750
VWidth: 0
Flags: HW
LayerCount: 12
Back
SplineSet
73 580 m 4
 104 537 154 489 180 465 c 5
 195 503 240 590 295 590 c 4
 339 590 358 546 358 495 c 4
 358 355 136 326 136 195 c 4
 136 95 209 39 325 39 c 4
 481 39 585 94 593 180 c 4
 599 242 614 492 616 591 c 1029
EndSplineSet
Layer: 11
SplineSet
-20 580 m 1
 6 584 92 609 115 618 c 1
 121 595 133 551 140 535 c 1
 153 554 211 624 325 624 c 4
 411 624 465 572 465 495 c 0
 465 349 270 287 270 195 c 0
 270 121 322 102 360 102 c 0
 427 102 449 127 455 164 c 0
 465 219 482 481 482 590 c 1
 549 600 694 607 760 609 c 1
 760 507 742 257 731 188 c 0
 704 25 466 -24 292 -24 c 0
 77 -24 5 74 5 180 c 0
 5 350 290 396 290 485 c 0
 290 497 284 506 275 510 c 1
 256 500 210 453 180 415 c 1
 155 403 99 395 70 395 c 1
 49 427 1 526 -20 580 c 1
EndSplineSet
EndChar

StartChar: uni0E06
Encoding: 3590 3590 60
Width: 825
VWidth: 0
Flags: HW
LayerCount: 12
Layer: 11
SplineSet
-25 580 m 5
 1 584 87 609 110 618 c 5
 116 595 128 551 135 535 c 5
 148 554 206 624 320 624 c 4
 406 624 465 572 465 495 c 4
 465 394 432 335 411 266 c 5
 451 245 490 218 527 185 c 5
 541 322 558 492 565 590 c 5
 668 603 740 604 835 606 c 5
 823 439 782 80 773 6 c 5
 713 4 569 -6 505 -12 c 5
 478 43 436 94 387 134 c 5
 356 46 255 -24 128 -24 c 4
 5 -24 -55 43 -55 117 c 4
 -55 255 86 303 181 313 c 5
 203 396 280 446 280 485 c 4
 280 497 277 506 270 510 c 5
 251 500 210 453 180 415 c 5
 155 403 99 395 70 395 c 5
 49 427 -4 526 -25 580 c 5
195 155 m 4
 195 180 191 199 186 215 c 4
 183 215 180 215 177 215 c 4
 141 215 123 181 123 139 c 4
 123 98 137 81 161 81 c 4
 187 81 195 115 195 155 c 4
EndSplineSet
EndChar

StartChar: uni0E27
Encoding: 3623 3623 61
Width: 570
VWidth: 0
Flags: HW
LayerCount: 12
Back
SplineSet
116 84 m 5
 152 53 206 39 256 39 c 4
 388 39 467 168 467 328 c 4
 467 502 376 561 273 561 c 4
 185 561 87 509 29 427 c 1029
EndSplineSet
Layer: 11
SplineSet
-105 430 m 5
 -46 514 84 624 301 624 c 4
 518 624 595 519 595 346 c 4
 595 32 390 -24 210 -24 c 4
 109 -24 18 -1 -30 40 c 5
 -3 72 65 130 110 165 c 5
 130 144 182 110 230 110 c 4
 276 110 317 223 317 310 c 4
 317 440 285 496 240 496 c 4
 190 496 130 421 105 380 c 5
 57 383 -67 407 -105 430 c 5
EndSplineSet
EndChar

StartChar: uni0E39
Encoding: 3641 3641 62
Width: 0
VWidth: 0
Flags: HW
LayerCount: 12
Back
SplineSet
-185 -105 m 4
 -187 -128 -196 -205 -202 -240 c 4
 -208 -272 -240 -291 -324 -291 c 4
 -403 -291 -431 -266 -431 -240 c 4
 -431 -223 -415 -177 -415 -146 c 4
 -415 -129 -418 -113 -426 -105 c 1028
EndSplineSet
Layer: 11
SplineSet
-525 -231 m 0
 -525 -208 -510 -165 -510 -140 c 0
 -510 -127 -516 -100 -520 -90 c 1
 -486 -88 -366 -74 -335 -66 c 5
 -325 -81 -324 -98 -324 -116 c 0
 -324 -149 -339 -195 -339 -204 c 0
 -339 -219 -326 -223 -310 -223 c 0
 -293 -223 -289 -211 -288 -203 c 0
 -283 -161 -277 -94 -275 -77 c 1
 -233 -73 -147 -72 -90 -72 c 1
 -92 -95 -99 -173 -106 -207 c 0
 -122 -289 -269 -306 -358 -306 c 0
 -485 -306 -525 -265 -525 -231 c 0
EndSplineSet
EndChar

StartChar: uni0E36
Encoding: 3638 3638 63
Width: 0
VWidth: 0
Flags: W
HStem: 650 83<-186.5 -93.5> 710 160<-517 -340> 841 79<-167 -66>
VStem: -96 116<729.5 844>
LayerCount: 12
Back
SplineSet
-645 789 m 4
 -617 800 -589 809 -550 809 c 4
 -391 809 -307 695 -218 695 c 4
 -154 695 -105 735 -105 793 c 4
 -105 845 -142 879 -192 879 c 4
 -257 879 -306 838 -306 780 c 4
 -306 742 -290 721 -285 716 c 1028
EndSplineSet
Layer: 11
SplineSet
-670 840 m 5x50
 -611 863 -536 870 -470 870 c 4x50
 -376 870 -314 839 -266 807 c 5
 -249 877 -182 920 -110 920 c 4
 -22 920 20 860 20 797 c 4
 20 694 -81 650 -154 650 c 4xb0
 -219 650 -304 710 -440 710 c 4
 -498 710 -574 705 -630 685 c 5
 -642 714 -662 793 -670 840 c 5x50
-132 841 m 4xb0
 -152 841 -165 808 -165 785 c 4
 -165 763 -157 746 -147 734 c 4
 -142 733 -137 733 -132 733 c 4
 -106 733 -96 765 -96 782 c 4
 -96 828 -116 841 -132 841 c 4xb0
EndSplineSet
EndChar

StartChar: uni0E37
Encoding: 3639 3639 64
Width: 0
VWidth: 0
Flags: HW
LayerCount: 12
Layer: 11
SplineSet
-660 835 m 1
 -601 858 -536 865 -470 865 c 0
 -431 865 -393 858 -357 846 c 1
 -356 873 -354 899 -353 915 c 1
 -323 915 -239 913 -208 910 c 1
 -214 879 -219 820 -222 780 c 1
 -205 768 -192 757 -184 750 c 1
 -184 778 -173 867 -170 905 c 1
 -136 905 -49 904 -15 900 c 1
 -32 833 -53 735 -60 680 c 1
 -101 676 -176 665 -200 660 c 1
 -248 686 -294 715 -430 715 c 0
 -488 715 -564 710 -620 690 c 1
 -632 719 -652 788 -660 835 c 1
EndSplineSet
EndChar

StartChar: uni0E43
Encoding: 3651 3651 65
Width: 420
VWidth: 0
Flags: HW
LayerCount: 12
Back
SplineSet
214 10 m 5
 222 84 237 303 262 563 c 4
 269 632 278 705 278 765 c 4
 278 838 261 893 185 893 c 4
 106 893 69 828 69 765 c 4
 69 654 160 595 279 581 c 1028
EndSplineSet
Fore
SplineSet
214 10 m 1
 222 84 241 280 266 540 c 0
 271 591 318 678 318 765 c 0
 318 838 291 893 215 893 c 0
 136 893 99 828 99 765 c 4
 99 654 219 580 338 566 c 1028
EndSplineSet
Layer: 11
SplineSet
175 777 m 0
 175 738 187 707 205 682 c 1
 211 704 215 726 215 750 c 0
 215 782 211 813 192 825 c 1
 182 819 175 795 175 777 c 0
144 550 m 1
 62 594 5 659 5 750 c 0
 5 879 119 936 245 936 c 0
 352 936 415 869 415 780 c 0
 415 719 399 647 387 586 c 1
 404 583 418 581 425 580 c 1
 395 480 l 1
 388 481 380 482 373 483 c 1
 354 261 345 62 343 12 c 1
 326 -4 241 -12 184 -12 c 0
 137 -12 85 -2 63 7 c 1
 66 66 92 304 105 450 c 0
 108 482 125 515 144 550 c 1
EndSplineSet
EndChar

StartChar: uni0E17
Encoding: 3607 3607 66
Width: 755
VWidth: 0
Flags: HW
LayerCount: 12
Back
SplineSet
610 15 m 4
 620 99 647 351 647 485 c 4
 647 543 619 593 552 593 c 4
 445 593 372 480 302 359 c 4
 233 240 158 90 133 30 c 5
 144 104 161 392 170 585 c 1028
EndSplineSet
Layer: 2
SplineSet
73 -2 m 4
 73 70 92 372 112 596 c 4
 115 596 128 597 132 598 c 5
 118 415 100 147 95 38 c 5
 139 121 217 264 275 353 c 4
 356 480 442 607 577 607 c 4
 664 607 698 549 698 487 c 4
 698 344 667 79 655 -10 c 4
 653 -10 637 -11 634 -11 c 5
 646 78 678 343 678 484 c 4
 678 544 645 593 575 593 c 4
 459 593 375 475 292 346 c 4
 211 220 122 57 93 -5 c 4
 91 -6 85 -9 80 -9 c 4
 75 -9 73 -7 73 -2 c 4
EndSplineSet
Layer: 3
SplineSet
65 3 m 4
 65 76 84 382 103 595 c 5
 111 595 143 598 151 599 c 5
 138 435 121 193 114 70 c 5
 156 152 222 272 272 353 c 4
 351 482 438 609 576 609 c 4
 672 609 705 546 705 485 c 4
 705 343 674 81 662 -8 c 5
 657 -9 621 -11 613 -11 c 5
 625 77 658 337 658 474 c 4
 658 529 628 573 565 574 c 4
 458 571 378 460 300 337 c 4
 223 216 140 62 111 -1 c 4
 107 -2 96 -10 81 -10 c 4
 71 -10 65 -5 65 3 c 4
EndSplineSet
Layer: 4
SplineSet
58 7 m 0
 58 82 77 393 95 595 c 1
 108 595 159 598 171 600 c 1
 159 454 143 236 135 105 c 1
 174 182 227 282 270 353 c 0
 347 483 436 611 577 611 c 0
 682 611 713 543 713 483 c 0
 713 341 683 82 671 -6 c 1
 662 -8 606 -11 593 -11 c 1
 605 77 639 329 639 463 c 0
 639 512 612 554 556 555 c 0
 458 550 384 444 310 328 c 0
 237 213 158 66 130 2 c 0
 125 0 106 -11 82 -11 c 0
 66 -11 58 -5 58 7 c 0
EndSplineSet
Layer: 5
SplineSet
50 12 m 0
 50 88 69 403 86 594 c 1
 103 595 173 599 189 601 c 1
 177 471 162 275 154 141 c 1
 188 210 231 291 268 353 c 0
 344 485 432 613 576 613 c 0
 690 613 720 542 720 482 c 0
 720 341 689 85 678 -3 c 1
 666 -6 591 -11 573 -11 c 1
 584 76 618 323 618 453 c 0
 618 497 595 534 546 536 c 1
 457 528 387 430 318 320 c 0
 249 210 176 71 148 6 c 1
 141 4 117 -12 83 -12 c 4
 62 -12 50 -3 50 12 c 0
EndSplineSet
Layer: 6
SplineSet
43 17 m 4
 43 94 62 414 78 594 c 5
 100 595 189 600 209 602 c 5
 198 487 185 313 176 181 c 5
 204 239 237 301 266 353 c 4
 340 486 429 615 576 615 c 4
 699 615 728 539 728 480 c 4
 728 340 698 86 687 -1 c 5
 671 -5 576 -11 553 -11 c 5
 564 75 599 317 599 443 c 4
 599 482 579 514 537 517 c 5
 457 506 392 414 328 311 c 4
 263 207 195 76 167 10 c 5
 159 8 127 -13 84 -13 c 4
 58 -13 43 -2 43 17 c 4
EndSplineSet
Layer: 7
SplineSet
35 20 m 4
 35 99 53 422 69 592 c 5
 96 593 205 599 228 602 c 5
 219 502 207 349 198 222 c 5
 219 266 241 312 263 352 c 4
 335 487 427 616 576 616 c 4
 709 616 735 535 735 477 c 4
 735 337 705 87 694 0 c 5
 675 -5 561 -12 532 -12 c 5
 543 74 579 308 579 431 c 4
 579 464 563 493 528 496 c 5
 458 483 396 398 336 301 c 4
 276 202 213 80 186 12 c 5
 176 9 138 -14 85 -14 c 4
 53 -14 35 -2 35 20 c 4
EndSplineSet
Layer: 8
SplineSet
28 25 m 4
 28 105 46 433 61 592 c 5
 93 593 221 600 248 603 c 5
 240 517 229 387 220 269 c 5
 234 298 247 326 261 352 c 4
 331 488 424 618 576 618 c 4
 718 618 743 532 743 475 c 4
 743 336 714 88 703 2 c 5
 680 -4 546 -12 512 -12 c 5
 523 73 560 302 560 421 c 4
 560 449 547 473 519 477 c 5
 458 461 401 382 346 292 c 4
 290 199 232 85 205 16 c 5
 194 13 148 -15 86 -15 c 4
 49 -15 28 -1 28 25 c 4
EndSplineSet
Layer: 9
SplineSet
20 30 m 4
 20 111 38 443 52 591 c 5
 88 593 235 601 266 604 c 5
 259 531 249 421 241 315 c 5
 247 328 253 340 259 352 c 4
 328 490 420 620 575 620 c 4
 726 620 750 531 750 474 c 4
 750 336 720 91 710 5 c 5
 684 -2 531 -12 492 -12 c 5
 502 72 539 296 539 411 c 4
 539 434 530 453 509 458 c 5
 457 439 404 368 354 284 c 4
 302 196 250 90 223 20 c 5
 210 17 159 -16 87 -16 c 4
 45 -16 20 1 20 30 c 4
EndSplineSet
Layer: 10
SplineSet
13 34 m 0
 13 117 31 454 44 591 c 1
 85 593 251 601 286 605 c 1
 280 545 272 457 264 366 c 1
 331 500 423 622 576 622 c 0
 736 622 758 528 758 472 c 0
 758 334 729 92 719 7 c 1
 689 -1 516 -12 472 -12 c 1
 482 72 520 288 520 400 c 0
 520 417 514 434 500 439 c 1
 457 418 410 352 364 275 c 0
 316 193 268 94 242 23 c 1
 228 19 169 -17 88 -17 c 4
 40 -17 13 1 13 34 c 0
EndSplineSet
Layer: 11
SplineSet
5 39 m 4
 5 123 23 464 35 590 c 5
 81 592 266 602 305 606 c 5
 300 559 293 490 286 416 c 5
 350 530 439 624 575 624 c 4
 744 624 765 525 765 470 c 4
 765 333 736 94 726 9 c 5
 693 0 500 -12 451 -12 c 5
 461 71 500 282 500 390 c 4
 500 402 497 414 490 420 c 5
 456 396 413 337 372 266 c 4
 328 189 286 99 260 27 c 5
 244 23 180 -18 89 -18 c 4
 36 -18 5 3 5 39 c 4
EndSplineSet
EndChar

StartChar: uni0E2B
Encoding: 3627 3627 67
Width: 755
VWidth: 0
Flags: HW
LayerCount: 12
Back
SplineSet
170 585 m 4
 161 392 144 104 133 30 c 5
 253 96 662 335 662 465 c 4
 662 537 626 590 553 590 c 4
 488 590 429 547 429 465 c 4
 429 338 590 113 673 17 c 1028
EndSplineSet
Layer: 11
SplineSet
5 39 m 4
 5 123 23 464 35 590 c 5
 81 592 266 602 305 606 c 5
 294 506 277 312 267 170 c 5
 306 190 345 211 382 232 c 5
 353 301 330 373 330 439 c 4
 330 577 466 624 586 624 c 4
 739 624 785 533 785 465 c 4
 785 383 722 305 638 237 c 5
 692 157 754 79 795 31 c 5
 767 22 596 -12 525 -12 c 5
 497 20 467 63 440 111 c 5
 372 77 303 49 260 27 c 4
 244 23 180 -18 89 -18 c 4
 36 -18 5 3 5 39 c 4
559 515 m 5
 537 515 523 482 523 450 c 4
 523 412 534 388 550 366 c 5
 571 393 583 420 583 450 c 4
 583 483 573 511 559 515 c 5
EndSplineSet
EndChar

StartChar: uni0E44
Encoding: 3652 3652 68
Width: 420
VWidth: 0
Flags: HW
LayerCount: 12
Back
SplineSet
18 893 m 5
 47 820 93 794 148 794 c 4
 219 794 306 837 393 878 c 5
 289 791 276 690 262 563 c 4
 237 303 222 84 214 10 c 1029
EndSplineSet
Layer: 11
SplineSet
-55 900 m 1
 -13 905 110 924 150 936 c 1
 169 889 188 845 202 840 c 1
 254 851 317 882 375 912 c 1
 421 912 494 891 515 870 c 1
 464 819 413 769 390 570 c 0
 361 311 345 67 343 10 c 1
 326 -6 241 -12 184 -12 c 0
 137 -12 85 -4 63 5 c 1
 66 64 98 289 113 435 c 0
 123 527 144 631 196 725 c 1
 178 722 159 720 140 720 c 0
 23 720 -26 828 -55 900 c 1
EndSplineSet
EndChar

StartChar: uni0E42
Encoding: 3650 3650 69
Width: 420
VWidth: 0
Flags: HW
LayerCount: 12
Back
SplineSet
217 39 m 4
 235 222 262 480 262 630 c 4
 262 750 187 829 88 878 c 5
 138 872 196 870 250 870 c 0
 311 870 407 879 462 893 c 1025
EndSplineSet
Layer: 11
SplineSet
275 796 m 5
 343 730 378 648 378 570 c 4
 378 418 361 193 343 10 c 5
 322 -4 250 -12 200 -12 c 4
 169 -12 85 -5 63 5 c 5
 79 154 118 399 118 570 c 4
 118 772 -32 787 -32 840 c 4
 -32 875 -7 912 28 912 c 4
 83 912 158 905 253 905 c 4
 345 905 460 923 508 936 c 5
 538 825 l 5
 464 808 362 798 275 796 c 5
EndSplineSet
EndChar

StartChar: zero
Encoding: 48 48 70
Width: 660
VWidth: 0
Flags: W
HStem: -24 150<142.5 459>
VStem: -30 278<217.5 607> 412 278<226.5 599.5>
LayerCount: 12
Back
SplineSet
355 771 m 4
 466 771 551 633 551 428 c 0
 551 198 436 39 298 39 c 0
 192 39 109 179 109 375 c 0
 109 601 215 771 355 771 c 4
EndSplineSet
Layer: 2
SplineSet
288 -15 m 4
 137 -15 37 155 37 370 c 4
 37 592 145 825 363 825 c 4
 521 825 622 666 622 432 c 4
 622 201 506 -15 288 -15 c 4
290 1 m 4
 490 1 599 221 599 430 c 4
 599 659 493 809 360 809 c 4
 157 809 60 571 60 372 c 4
 60 163 166 1 290 1 c 4
EndSplineSet
Layer: 3
SplineSet
285 -16 m 4
 125 -16 30 158 30 369 c 4
 30 602 146 826 367 826 c 4
 535 826 630 663 630 434 c 4
 630 200 512 -16 285 -16 c 4
295 15 m 4
 476 15 579 226 579 428 c 4
 579 648 479 795 357 795 c 4
 173 795 81 567 81 374 c 4
 81 173 181 15 295 15 c 4
EndSplineSet
Layer: 4
SplineSet
281 -17 m 4
 112 -17 22 159 22 367 c 4
 22 611 146 827 370 827 c 4
 547 827 637 659 637 435 c 4
 637 198 517 -17 281 -17 c 4
298 29 m 4
 460 29 557 231 557 426 c 4
 557 638 463 781 353 781 c 4
 188 780 102 564 102 377 c 4
 102 185 195 29 298 29 c 4
EndSplineSet
Layer: 5
SplineSet
279 -18 m 4
 101 -18 15 162 15 366 c 4
 15 621 147 828 374 828 c 4
 561 828 645 657 645 437 c 4
 645 197 525 -18 279 -18 c 4
303 43 m 4
 447 44 537 235 537 423 c 4
 537 626 450 766 351 767 c 4
 206 766 123 560 123 379 c 4
 123 195 210 43 303 43 c 4
EndSplineSet
Layer: 6
SplineSet
275 -19 m 4
 88 -19 7 164 7 364 c 4
 7 630 147 829 377 829 c 4
 573 829 652 653 652 438 c 4
 652 195 530 -19 275 -19 c 4
306 57 m 4
 431 58 516 240 516 421 c 4
 516 616 435 752 347 753 c 4
 221 751 143 556 143 381 c 4
 143 206 224 57 306 57 c 4
EndSplineSet
Layer: 7
SplineSet
272 -20 m 4
 75 -20 0 166 0 363 c 4
 0 639 148 830 380 830 c 4
 586 830 660 650 660 440 c 4
 660 194 536 -20 272 -20 c 4
311 70 m 4
 417 71 495 246 495 419 c 4
 495 605 420 739 344 740 c 4
 237 738 165 552 165 384 c 4
 165 217 239 70 311 70 c 4
EndSplineSet
Layer: 8
SplineSet
269 -21 m 4
 63 -21 -7 168 -7 361 c 4
 -7 648 149 831 384 831 c 4
 599 831 668 646 668 441 c 4
 668 192 542 -21 269 -21 c 4
315 84 m 4
 402 85 475 251 475 417 c 4
 475 595 406 725 341 726 c 4
 253 723 186 548 186 386 c 4
 186 228 254 84 315 84 c 4
EndSplineSet
Layer: 9
SplineSet
266 -22 m 4
 51 -22 -15 171 -15 360 c 4
 -15 658 149 832 387 832 c 4
 612 832 675 644 675 443 c 4
 675 191 549 -22 266 -22 c 4
319 98 m 4
 388 100 454 255 454 414 c 4
 454 583 392 710 338 712 c 5
 270 709 206 544 206 388 c 4
 206 238 268 98 319 98 c 4
EndSplineSet
Layer: 10
SplineSet
262 -23 m 4
 38 -23 -23 172 -23 358 c 4
 -23 667 149 833 390 833 c 4
 624 833 682 640 682 444 c 4
 682 189 554 -23 262 -23 c 4
322 112 m 4
 372 114 432 260 432 412 c 4
 432 573 376 696 334 698 c 5
 285 694 227 541 227 391 c 4
 227 250 282 112 322 112 c 4
EndSplineSet
Layer: 11
SplineSet
259 -24 m 0
 26 -24 -30 175 -30 357 c 0
 -30 677 150 834 394 834 c 4
 638 834 690 637 690 446 c 0
 690 188 560 -24 259 -24 c 0
327 126 m 0
 358 128 412 265 412 410 c 0
 412 562 362 682 331 684 c 1
 301 680 248 537 248 393 c 0
 248 260 297 126 327 126 c 0
EndSplineSet
EndChar

StartChar: f
Encoding: 102 102 71
Width: 480
VWidth: 0
Flags: HW
LayerCount: 12
Back
SplineSet
407 530 m 5
 269 530 163 537 87 540 c 1029
160 15 m 4
 185 181 204 389 206 630 c 4
 207 727 276 771 355 771 c 4
 412 771 444 756 469 738 c 1029
EndSplineSet
Layer: 2
SplineSet
48 574 m 4
 48 577 50 586 51 589 c 4
 86 588 126 586 170 585 c 5
 170 600 170 615 170 630 c 4
 170 740 239 825 381 825 c 4
 463 825 519 803 553 779 c 5
 551 777 542 770 540 768 c 4
 509 789 459 810 379 810 c 4
 253 810 190 731 190 630 c 4
 190 615 190 599 190 584 c 5
 274 581 372 578 483 576 c 5
 482 573 480 564 480 561 c 5
 367 565 270 569 189 571 c 5
 184 373 158 159 140 -2 c 4
 139 -2 133 -3 129 -3 c 4
 125 -3 120 -2 118 -2 c 5
 138 159 164 374 169 571 c 5
 123 572 83 573 48 574 c 4
EndSplineSet
Layer: 3
SplineSet
40 562 m 1
 41 569 44 583 46 590 c 1
 80 589 119 587 162 586 c 1
 162 600 162 614 162 628 c 0
 162 744 244 826 385 826 c 0
 470 826 526 803 560 779 c 1
 555 775 539 760 535 755 c 1
 505 775 454 797 379 797 c 0
 266 797 209 723 209 630 c 0
 209 615 209 600 209 585 c 1
 292 583 387 580 490 578 c 1
 488 572 485 555 484 550 c 1
 383 554 289 556 208 558 c 1
 203 359 180 157 161 -2 c 0
 158 -2 143 -4 134 -4 c 4
 126 -4 114 -3 110 -2 c 1
 130 156 156 363 161 560 c 1
 116 561 75 561 40 562 c 1
EndSplineSet
Layer: 4
SplineSet
33 551 m 5
 35 562 39 580 42 591 c 5
 76 590 114 588 155 587 c 5
 155 600 155 613 155 626 c 4
 155 749 249 827 390 827 c 4
 478 827 535 804 568 780 c 5
 561 774 538 750 532 742 c 5
 503 761 450 784 380 784 c 4
 279 784 229 715 229 631 c 4
 229 616 229 600 229 585 c 5
 311 583 403 581 498 579 c 5
 495 570 490 546 489 539 c 5
 398 542 309 545 228 547 c 5
 223 347 200 154 182 -3 c 4
 178 -4 155 -5 141 -5 c 4
 128 -5 109 -3 103 -2 c 5
 123 152 148 351 154 549 c 5
 109 550 68 550 33 551 c 5
EndSplineSet
Layer: 5
SplineSet
25 539 m 5
 27 554 32 579 37 593 c 5
 70 592 107 590 147 589 c 5
 147 601 147 612 147 624 c 4
 147 753 254 828 394 828 c 4
 486 828 542 803 575 780 c 5
 565 771 536 740 527 729 c 5
 499 746 444 769 380 770 c 4
 292 769 249 707 249 631 c 4
 249 616 249 601 249 586 c 5
 330 584 417 583 505 581 c 5
 502 569 495 537 493 527 c 5
 412 530 327 533 248 535 c 5
 243 336 222 152 203 -3 c 5
 197 -4 165 -6 146 -6 c 4
 129 -6 102 -3 95 -1 c 5
 115 150 140 340 146 537 c 5
 101 538 60 539 25 539 c 5
EndSplineSet
Layer: 6
SplineSet
18 528 m 5
 21 547 27 576 33 594 c 5
 65 592 102 591 140 590 c 5
 140 601 140 611 140 622 c 4
 140 758 260 829 399 829 c 4
 494 829 551 803 583 780 c 5
 571 769 534 730 523 716 c 5
 496 732 440 756 381 757 c 4
 305 756 269 699 269 632 c 4
 269 617 269 601 269 586 c 5
 348 584 431 583 513 582 c 5
 509 567 500 528 498 516 c 5
 426 519 346 521 268 523 c 5
 263 324 244 150 225 -4 c 5
 218 -5 177 -7 153 -7 c 4
 131 -7 97 -4 88 -1 c 5
 108 147 132 330 138 526 c 5
 94 527 53 528 18 528 c 5
EndSplineSet
Layer: 7
SplineSet
10 516 m 1
 14 538 21 573 28 595 c 1
 60 594 95 592 132 591 c 1
 132 601 132 610 132 620 c 0
 133 762 265 830 404 830 c 0
 502 830 558 804 590 781 c 1
 575 768 532 720 519 703 c 1
 494 718 434 743 380 744 c 0
 317 743 288 691 288 632 c 0
 288 617 288 602 288 587 c 1
 365 586 444 585 520 584 c 1
 515 567 505 519 502 505 c 1
 437 507 361 509 286 511 c 1
 281 313 264 148 245 -4 c 1
 236 -6 186 -8 158 -8 c 4
 132 -8 91 -4 80 -1 c 1
 100 143 123 320 130 514 c 1
 86 515 45 516 10 516 c 1
EndSplineSet
Layer: 8
SplineSet
3 505 m 1
 8 531 16 570 24 596 c 1
 55 594 89 593 125 592 c 1
 125 601 125 609 125 618 c 0
 126 767 271 831 409 831 c 0
 510 831 567 804 598 781 c 1
 581 766 530 710 515 690 c 1
 491 704 430 730 381 731 c 0
 330 730 308 683 308 633 c 0
 308 618 308 602 308 587 c 1
 382 586 457 585 528 585 c 1
 522 565 510 510 507 494 c 1
 450 496 379 498 306 500 c 1
 301 303 286 146 267 -5 c 1
 257 -7 198 -9 165 -9 c 4
 134 -9 86 -5 73 -1 c 1
 93 141 116 311 123 504 c 1
 79 505 38 505 3 505 c 1
EndSplineSet
Layer: 9
SplineSet
-5 493 m 1
 0 523 9 569 19 598 c 1
 49 597 82 595 117 594 c 1
 117 601 117 609 117 616 c 0
 118 771 276 832 413 832 c 0
 518 832 574 803 605 781 c 1
 585 763 528 700 510 677 c 1
 487 689 424 715 381 717 c 0
 343 715 328 675 328 633 c 0
 328 618 328 603 328 589 c 1
 399 588 470 587 535 587 c 1
 529 564 515 501 511 482 c 1
 460 484 395 486 326 488 c 1
 321 293 307 144 288 -5 c 1
 276 -7 208 -10 170 -10 c 4
 135 -10 79 -5 65 0 c 1
 85 139 106 301 114 492 c 1
 71 493 30 493 -5 493 c 1
EndSplineSet
Layer: 10
SplineSet
-12 482 m 5
 -6 516 4 566 15 599 c 5
 45 597 77 596 110 595 c 5
 110 601 110 608 110 614 c 4
 111 776 281 833 418 833 c 4
 526 833 583 804 613 782 c 5
 591 762 527 690 507 664 c 5
 485 675 420 702 382 704 c 4
 356 702 348 667 348 634 c 4
 348 619 348 604 348 589 c 5
 416 588 482 588 543 588 c 5
 536 562 520 492 516 471 c 5
 471 472 411 474 346 476 c 5
 341 284 328 141 309 -6 c 5
 296 -9 220 -11 177 -11 c 4
 137 -11 74 -5 58 0 c 5
 78 136 99 292 107 481 c 5
 64 482 23 482 -12 482 c 5
EndSplineSet
Layer: 11
SplineSet
-20 470 m 1
 -13 508 -2 563 10 600 c 1
 39 599 70 597 102 596 c 1
 102 601 102 607 102 612 c 0
 103 780 286 834 422 834 c 0
 533 834 590 804 620 782 c 1
 595 760 524 680 502 651 c 1
 481 661 415 689 382 691 c 0
 369 689 367 659 367 634 c 0
 367 619 367 605 367 591 c 1
 431 590 494 590 550 590 c 1
 542 561 525 483 520 460 c 1
 481 461 426 463 365 464 c 1
 361 275 350 140 330 -6 c 1
 315 -9 230 -12 182 -12 c 4
 138 -12 68 -6 50 0 c 1
 70 133 91 282 99 469 c 1
 56 470 15 470 -20 470 c 1
EndSplineSet
EndChar

StartChar: n
Encoding: 110 110 72
Width: 755
VWidth: 0
Flags: HW
LayerCount: 12
Back
SplineSet
610 15 m 0
 620 99 647 351 647 485 c 0
 647 543 619 593 552 593 c 0
 445 593 372 480 302 359 c 0
 233 240 158 90 133 30 c 1
 144 104 161 392 170 585 c 1024
EndSplineSet
Layer: 2
Refer: 66 3607 S 1 0 0 1 0 0 2
Layer: 3
Refer: 66 3607 S 1 0 0 1 0 0 2
Layer: 4
Refer: 66 3607 S 1 0 0 1 0 0 2
Layer: 5
Refer: 66 3607 S 1 0 0 1 0 0 2
Layer: 6
Refer: 66 3607 S 1 0 0 1 0 0 2
Layer: 7
Refer: 66 3607 S 1 0 0 1 0 0 2
Layer: 8
Refer: 66 3607 S 1 0 0 1 0 0 2
Layer: 9
Refer: 66 3607 S 1 0 0 1 0 0 2
Layer: 10
Refer: 66 3607 S 1 0 0 1 0 0 2
Layer: 11
Refer: 66 3607 S 1 0 0 1 0 0 2
EndChar

StartChar: t
Encoding: 116 116 73
Width: 480
VWidth: 0
Flags: HW
LayerCount: 12
Back
SplineSet
407 530 m 5
 269 530 163 537 87 540 c 1029
230 720 m 4
 225 497 160 323 160 148 c 4
 160 84 208 39 275 39 c 4
 332 39 367 54 396 72 c 1029
EndSplineSet
Layer: 2
SplineSet
48 574 m 4
 48 577 50 586 51 589 c 4
 91 587 139 586 193 584 c 5
 201 628 208 673 213 720 c 5
 218 721 230 723 234 723 c 5
 228 675 220 628 211 583 c 5
 290 580 381 578 483 576 c 5
 482 573 480 564 480 561 c 5
 376 565 286 568 209 570 c 5
 178 411 139 267 139 126 c 4
 139 52 205 0 306 0 c 4
 388 0 441 20 483 41 c 5
 493 27 l 5
 448 4 390 -15 302 -15 c 4
 192 -15 118 43 118 124 c 4
 118 267 159 410 190 571 c 5
 135 573 88 573 48 574 c 4
EndSplineSet
Layer: 3
SplineSet
40 562 m 1
 41 569 44 583 46 590 c 1
 86 589 132 587 183 586 c 1
 191 629 197 673 202 719 c 1
 215 721 240 724 252 724 c 1
 246 676 237 629 229 584 c 1
 307 582 396 580 490 578 c 1
 488 572 485 555 484 550 c 1
 389 554 301 556 224 558 c 1
 194 404 159 264 159 132 c 0
 159 63 219 15 310 14 c 0
 386 14 440 35 481 56 c 0
 483 53 498 34 500 32 c 1
 455 7 391 -16 297 -16 c 4
 179 -16 110 46 110 125 c 0
 110 265 149 404 178 559 c 1
 126 560 79 561 40 562 c 1
EndSplineSet
Layer: 4
SplineSet
33 551 m 5
 35 562 39 580 42 591 c 5
 81 589 125 587 174 586 c 5
 181 628 188 672 192 717 c 5
 213 721 252 725 271 725 c 5
 265 677 256 630 248 584 c 5
 325 582 410 580 498 579 c 5
 495 570 490 546 489 539 c 5
 403 542 318 544 241 546 c 5
 212 396 180 262 180 138 c 4
 180 73 234 29 315 28 c 4
 386 28 440 50 480 71 c 5
 484 65 503 41 508 37 c 5
 462 10 393 -17 294 -17 c 4
 168 -17 103 47 103 125 c 4
 103 261 139 397 167 548 c 5
 117 549 72 550 33 551 c 5
EndSplineSet
Layer: 5
SplineSet
25 539 m 5
 27 554 32 579 37 593 c 5
 75 591 118 590 165 589 c 5
 172 630 178 672 182 716 c 5
 210 721 261 726 288 726 c 5
 281 678 273 631 265 586 c 5
 341 584 423 582 505 581 c 5
 502 569 495 537 493 527 c 5
 415 530 333 532 256 534 c 5
 229 389 201 259 201 144 c 4
 201 84 247 44 319 42 c 4
 384 42 439 65 478 86 c 5
 483 77 508 47 515 41 c 5
 469 12 394 -18 289 -18 c 4
 155 -18 95 50 95 126 c 4
 95 259 129 392 156 537 c 5
 107 538 63 539 25 539 c 5
EndSplineSet
Layer: 6
SplineSet
18 528 m 5
 21 547 27 576 33 594 c 5
 70 592 111 590 156 589 c 5
 163 630 168 672 172 715 c 5
 208 721 273 727 307 727 c 5
 300 678 292 632 284 586 c 5
 358 584 436 583 513 582 c 5
 509 567 500 528 498 516 c 5
 427 519 349 521 273 523 c 5
 247 382 222 258 222 150 c 4
 222 95 262 58 324 56 c 4
 384 56 439 80 477 101 c 5
 484 89 513 54 523 46 c 5
 477 15 396 -19 286 -19 c 4
 144 -19 88 53 88 127 c 4
 88 256 119 385 145 526 c 5
 98 527 55 528 18 528 c 5
EndSplineSet
Layer: 7
SplineSet
10 516 m 5
 14 538 21 573 28 595 c 5
 64 593 104 592 147 591 c 5
 153 631 158 671 161 713 c 5
 205 721 283 728 325 728 c 5
 318 680 310 632 302 587 c 5
 374 586 449 585 520 584 c 5
 515 567 505 519 502 505 c 5
 438 507 364 509 289 511 c 5
 265 376 242 256 242 156 c 4
 242 105 277 74 329 71 c 4
 383 71 439 93 476 115 c 5
 485 99 518 61 530 51 c 5
 483 17 397 -20 281 -20 c 4
 131 -20 80 54 80 127 c 4
 80 252 110 378 134 514 c 5
 89 515 46 516 10 516 c 5
EndSplineSet
Layer: 8
SplineSet
3 505 m 5
 8 531 16 570 24 596 c 5
 59 594 97 592 137 591 c 5
 143 630 148 671 151 712 c 5
 203 721 295 729 344 729 c 5
 337 680 329 633 321 587 c 5
 391 586 461 585 528 585 c 5
 522 565 510 510 507 494 c 5
 449 496 379 498 306 500 c 5
 283 369 263 255 263 162 c 4
 263 116 292 88 334 85 c 4
 383 85 439 108 475 130 c 5
 486 111 523 68 538 56 c 5
 491 20 399 -21 278 -21 c 4
 120 -21 73 57 73 128 c 4
 73 249 100 373 123 504 c 5
 79 505 38 505 3 505 c 5
EndSplineSet
Layer: 9
SplineSet
-5 493 m 5
 0 523 9 569 19 598 c 5
 53 596 90 595 129 594 c 5
 134 632 138 671 141 711 c 5
 200 721 304 730 361 730 c 5
 354 681 346 634 338 589 c 5
 405 588 473 587 535 587 c 5
 529 564 515 501 511 482 c 5
 459 484 392 486 321 488 c 5
 300 363 284 254 284 168 c 4
 284 127 305 103 338 99 c 5
 381 99 438 123 473 145 c 5
 485 123 528 74 545 60 c 5
 498 22 400 -22 273 -22 c 4
 107 -22 65 60 65 129 c 4
 65 247 91 366 113 492 c 5
 70 493 30 493 -5 493 c 5
EndSplineSet
Layer: 10
SplineSet
-12 482 m 1
 -6 516 4 566 15 599 c 1
 48 597 83 596 120 595 c 1
 125 632 129 670 131 709 c 1
 198 721 316 731 380 731 c 1
 372 682 365 635 357 589 c 1
 422 588 485 588 543 588 c 1
 536 562 520 492 516 471 c 1
 469 472 407 474 339 476 c 1
 320 356 305 253 305 174 c 0
 305 137 320 117 343 113 c 1
 381 113 438 138 472 160 c 1
 486 135 533 81 553 65 c 1
 505 25 402 -23 270 -23 c 4
 96 -23 58 61 58 129 c 0
 58 243 81 359 102 481 c 1
 61 482 22 482 -12 482 c 1
EndSplineSet
Layer: 11
SplineSet
-20 470 m 5
 -13 508 -2 563 10 600 c 5
 41 598 75 597 110 596 c 5
 115 633 118 670 120 708 c 5
 195 721 326 732 398 732 c 5
 390 683 382 636 375 591 c 5
 437 590 496 590 550 590 c 5
 542 561 525 483 520 460 c 5
 479 461 420 463 355 465 c 5
 337 350 325 252 325 180 c 4
 325 148 334 132 347 127 c 5
 379 127 437 153 470 175 c 5
 486 147 538 88 560 70 c 5
 512 28 403 -24 265 -24 c 4
 83 -24 50 64 50 130 c 4
 50 240 72 352 91 469 c 5
 51 469 13 470 -20 470 c 5
EndSplineSet
EndChar

StartChar: uni0E1B
Encoding: 3611 3611 75
Width: 820
VWidth: 0
Flags: HW
LayerCount: 12
Back
SplineSet
681 735 m 5
 681 590 661 228 648 166 c 0
 629 78 557 39 386 39 c 0
 224 39 144 62 144 166 c 0
 144 258 174 464 186 591 c 1025
EndSplineSet
Layer: 2
SplineSet
78 133 m 0
 78 237 115 463 130 605 c 1
 135 605 147 605 152 606 c 1
 137 464 100 236 100 135 c 0
 100 25 188 1 387 1 c 0
 594 1 675 43 697 135 c 0
 713 203 736 610 736 748 c 1
 740 749 753 750 758 750 c 5
 758 610 735 203 719 133 c 0
 694 29 597 -15 385 -15 c 0
 186 -15 78 12 78 133 c 0
EndSplineSet
Layer: 3
SplineSet
70 135 m 4
 70 238 106 462 121 603 c 5
 132 603 160 604 171 606 c 5
 156 466 120 240 120 140 c 4
 120 34 201 12 391 12 c 4
 582 12 656 51 676 137 c 4
 691 204 715 607 715 746 c 5
 726 748 753 750 765 750 c 5
 765 610 742 208 727 138 c 4
 702 27 589 -16 381 -16 c 4
 182 -16 70 14 70 135 c 4
EndSplineSet
Layer: 4
SplineSet
63 136 m 4
 63 238 99 462 113 602 c 5
 130 602 174 604 191 606 c 5
 177 467 142 244 142 146 c 4
 142 44 216 23 397 23 c 4
 573 23 639 59 657 139 c 4
 672 204 694 605 694 744 c 5
 712 747 754 750 773 750 c 5
 773 611 750 213 735 143 c 4
 710 26 582 -17 378 -17 c 4
 179 -17 63 14 63 136 c 4
EndSplineSet
Layer: 5
SplineSet
55 138 m 0
 55 239 90 461 104 600 c 1
 128 600 188 603 211 606 c 1
 197 469 162 248 162 151 c 0
 162 52 229 35 401 35 c 0
 561 35 619 67 636 141 c 0
 650 205 673 602 673 742 c 1
 698 746 755 749 780 750 c 1
 780 611 757 218 743 148 c 0
 717 24 573 -18 374 -18 c 4
 175 -18 55 16 55 138 c 0
EndSplineSet
Layer: 6
SplineSet
47 140 m 0
 47 240 82 460 95 598 c 1
 125 598 201 602 230 606 c 1
 216 470 183 252 183 157 c 0
 183 62 242 46 405 46 c 0
 550 46 600 75 615 143 c 0
 628 205 651 600 651 740 c 1
 683 745 755 749 787 750 c 1
 787 612 764 223 750 153 c 0
 724 23 565 -19 370 -19 c 4
 171 -19 47 17 47 140 c 0
EndSplineSet
Layer: 7
SplineSet
40 141 m 4
 40 241 74 461 87 597 c 5
 123 598 215 602 250 606 c 5
 237 472 204 256 204 162 c 4
 204 71 258 57 411 57 c 4
 540 57 583 85 596 146 c 4
 609 207 631 597 631 738 c 5
 670 744 756 749 795 750 c 5
 795 612 772 227 759 158 c 4
 733 21 557 -20 366 -20 c 4
 167 -20 40 18 40 141 c 4
EndSplineSet
Layer: 8
SplineSet
33 143 m 0
 33 242 67 460 79 595 c 1
 121 596 229 601 270 606 c 1
 257 473 226 260 226 168 c 0
 226 81 272 68 416 68 c 0
 530 68 565 93 576 148 c 0
 588 207 610 595 610 736 c 1
 656 743 757 749 803 750 c 1
 803 613 780 232 767 163 c 0
 741 20 550 -21 363 -21 c 4
 164 -21 33 19 33 143 c 0
EndSplineSet
Layer: 9
SplineSet
25 145 m 4
 25 243 58 459 70 593 c 5
 119 594 243 600 290 606 c 5
 277 475 246 264 246 173 c 4
 246 89 285 80 420 80 c 4
 518 80 545 101 555 150 c 4
 566 208 589 592 589 734 c 5
 642 742 758 748 810 750 c 5
 810 613 787 237 775 168 c 4
 748 18 541 -22 359 -22 c 4
 160 -22 25 21 25 145 c 4
EndSplineSet
Layer: 10
SplineSet
17 146 m 4
 17 243 50 459 61 592 c 5
 116 593 256 600 309 606 c 5
 297 476 267 268 267 179 c 4
 267 99 299 91 425 91 c 4
 508 91 527 109 535 152 c 4
 546 208 567 590 567 732 c 5
 627 741 758 748 817 750 c 5
 817 614 794 242 782 173 c 4
 755 17 533 -23 355 -23 c 4
 156 -23 17 21 17 146 c 4
EndSplineSet
Layer: 11
SplineSet
10 148 m 0
 10 244 42 458 53 590 c 1
 114 591 270 599 329 606 c 1
 317 478 288 272 288 184 c 0
 288 108 313 102 430 102 c 0
 497 102 509 117 515 154 c 0
 525 209 547 587 547 730 c 1
 614 740 759 748 825 750 c 5
 825 614 802 247 791 178 c 0
 764 15 526 -24 352 -24 c 0
 153 -24 10 23 10 148 c 0
EndSplineSet
EndChar

StartChar: uni0E09
Encoding: 3593 3593 76
Width: 730
VWidth: 0
Flags: HW
LayerCount: 12
Back
SplineSet
170 306 m 4
 187 291 192 267 192 222 c 4
 192 145 177 64 169 30 c 5
 200 55 318 184 500 235 c 4
 519 240 550 245 572 245 c 4
 634 245 690 202 690 119 c 4
 690 41 628 15 579 15 c 4
 532 15 488 50 488 115 c 4
 488 231 581 268 581 408 c 4
 581 501 528 561 376 561 c 4
 265 561 155 509 94 427 c 1029
EndSplineSet
Layer: 11
SplineSet
-30 435 m 5
 16 514 161 624 407 624 c 4
 595 624 700 550 700 424 c 4
 700 379 688 332 675 297 c 5
 766 276 810 218 810 145 c 4
 810 22 678 -24 575 -24 c 4
 456 -24 390 35 377 118 c 5
 327 81 279 36 250 -6 c 5
 234 -10 176 -12 130 -12 c 4
 77 -12 41 -5 15 0 c 5
 23 40 40 106 40 195 c 4
 40 231 32 263 15 300 c 5
 62 314 206 330 260 330 c 5
 273 310 280 267 280 235 c 4
 280 212 279 190 277 169 c 5
 312 196 355 224 399 249 c 5
 416 286 435 321 435 386 c 4
 435 463 380 496 334 496 c 4
 271 496 231 435 210 390 c 5
 165 390 11 415 -30 435 c 5
599 195 m 5
 585 176 575 151 575 116 c 4
 575 95 582 81 600 81 c 4
 620 81 630 102 630 135 c 4
 630 163 624 185 599 195 c 5
EndSplineSet
EndChar

StartChar: uni0E1C
Encoding: 3612 3612 77
Width: 905
VWidth: 0
Flags: HW
LayerCount: 12
Back
SplineSet
766 585 m 4
 751 264 701 70 680 45 c 5
 625 61 452 360 452 360 c 29
 452 360 307 90 235 45 c 5
 150 86 109 187 109 296 c 4
 109 483 222 579 336 579 c 4
 364 579 390 573 410 565 c 1028
EndSplineSet
Layer: 11
SplineSet
-30 278 m 4
 -30 510 93 624 350 624 c 4
 409 624 442 616 470 609 c 5
 457 576 429 498 420 470 c 5
 399 482 352 500 305 500 c 5
 266 483 245 401 245 330 c 4
 245 284 254 233 265 207 c 5
 317 287 368 362 375 375 c 5
 410 375 505 384 535 390 c 5
 546 364 576 295 605 225 c 5
 623 323 635 457 645 596 c 5
 725 596 853 599 920 603 c 5
 892 215 822 27 795 0 c 5
 769 -6 720 -12 660 -12 c 4
 620 -12 545 -9 515 -6 c 5
 502 25 453 137 429 193 c 5
 410 163 371 102 353 75 c 4
 327 36 271 -24 180 -24 c 5
 42 -11 -30 164 -30 278 c 4
EndSplineSet
EndChar

StartChar: uni0E1D
Encoding: 3613 3613 78
Width: 910
VWidth: 0
Flags: HW
LayerCount: 12
Layer: 10
SplineSet
-30 278 m 0
 -30 510 93 624 350 624 c 0
 409 624 442 616 470 609 c 1
 457 576 429 498 420 470 c 1
 399 482 352 500 305 500 c 1
 266 483 245 401 245 330 c 0
 245 284 254 233 265 207 c 1
 317 287 368 362 375 375 c 1
 410 375 505 384 535 390 c 1
 546 364 576 295 605 225 c 1
 623 323 665 607 675 746 c 5
 755 746 883 749 950 753 c 5
 922 365 822 27 795 0 c 1
 769 -6 720 -12 660 -12 c 0
 620 -12 545 -9 515 -6 c 1
 502 25 453 137 429 193 c 1
 410 163 371 102 353 75 c 0
 327 36 271 -24 180 -24 c 1
 42 -11 -30 164 -30 278 c 0
EndSplineSet
Layer: 11
SplineSet
-30 278 m 4
 -30 510 93 624 350 624 c 4
 409 624 442 616 470 609 c 5
 457 576 429 498 420 470 c 5
 399 482 352 500 305 500 c 5
 266 483 245 401 245 330 c 4
 245 284 254 233 265 207 c 5
 317 287 368 362 375 375 c 5
 410 375 505 384 535 390 c 5
 546 364 576 295 605 225 c 5
 637 368 663 585 675 746 c 5
 755 746 883 749 950 753 c 5
 922 365 822 27 795 0 c 5
 769 -6 720 -12 660 -12 c 4
 620 -12 545 -9 515 -6 c 5
 502 25 453 137 429 193 c 5
 410 163 371 102 353 75 c 4
 327 36 271 -24 180 -24 c 5
 42 -11 -30 164 -30 278 c 4
EndSplineSet
EndChar

StartChar: uni0E30
Encoding: 3632 3632 79
Width: 540
VWidth: 0
Flags: HW
LayerCount: 12
Back
SplineSet
486 532 m 5
 247 325 113 414 150 532 c 1029
486 232 m 5
 247 25 113 114 150 232 c 1029
EndSplineSet
Layer: 2
SplineSet
82 189 m 4
 82 204 85 219 90 234 c 4
 94 234 108 234 111 235 c 5
 106 220 102 203 102 189 c 4
 102 119 164 104 217 104 c 4
 297 104 393 146 529 255 c 4
 533 254 544 251 547 249 c 5
 407 138 309 90 217 90 c 4
 145 90 82 117 82 189 c 4
82 489 m 4
 82 504 85 519 90 534 c 4
 94 534 108 534 111 535 c 5
 106 520 102 503 102 489 c 4
 102 419 164 404 217 404 c 4
 297 404 393 446 529 555 c 4
 533 554 544 551 547 549 c 5
 407 438 309 390 217 390 c 4
 145 390 82 417 82 489 c 4
EndSplineSet
Layer: 3
SplineSet
75 187 m 0
 75 202 78 218 83 233 c 1
 90 233 124 234 131 236 c 1
 126 221 122 205 122 191 c 0
 122 127 178 111 226 111 c 0
 300 112 389 154 513 255 c 1
 520 254 549 249 555 246 c 1
 424 139 320 85 217 85 c 4
 142 85 75 113 75 187 c 0
75 487 m 0
 75 502 78 518 83 533 c 1
 90 533 124 534 131 536 c 1
 126 521 122 505 122 491 c 0
 122 427 178 411 226 411 c 0
 300 412 389 454 513 555 c 1
 520 554 549 549 555 546 c 1
 424 439 320 385 217 385 c 0
 142 385 75 413 75 487 c 0
EndSplineSet
Layer: 4
SplineSet
67 184 m 0
 67 200 70 217 75 232 c 1
 85 232 139 234 150 236 c 1
 145 222 141 206 141 193 c 0
 141 135 190 119 233 119 c 0
 302 121 385 161 496 255 c 1
 505 254 553 247 562 244 c 1
 440 142 330 80 216 80 c 4
 139 80 67 107 67 184 c 0
67 484 m 0
 67 500 70 517 75 532 c 1
 85 532 139 534 150 536 c 1
 145 522 141 506 141 493 c 0
 141 435 190 419 233 419 c 0
 302 421 385 461 496 555 c 1
 505 554 553 547 562 544 c 1
 440 442 330 380 216 380 c 0
 139 380 67 407 67 484 c 0
EndSplineSet
Layer: 5
SplineSet
60 182 m 4
 60 198 64 214 69 230 c 5
 82 230 154 234 169 237 c 5
 165 223 162 209 162 196 c 4
 162 143 205 126 242 126 c 4
 305 128 381 169 480 255 c 5
 492 254 558 245 570 241 c 5
 457 143 339 75 215 75 c 4
 135 75 60 103 60 182 c 4
60 482 m 4
 60 498 64 514 69 530 c 5
 82 530 154 534 169 537 c 5
 165 523 162 509 162 496 c 4
 162 443 205 426 242 426 c 4
 305 428 381 469 480 555 c 5
 492 554 558 545 570 541 c 5
 457 443 339 375 215 375 c 4
 135 375 60 403 60 482 c 4
EndSplineSet
Layer: 6
SplineSet
52 179 m 4
 52 196 56 213 61 229 c 5
 77 229 169 235 188 238 c 5
 184 225 181 210 181 198 c 4
 181 151 218 134 250 134 c 4
 307 137 377 177 463 255 c 5
 477 254 562 242 577 238 c 5
 473 145 349 70 214 70 c 4
 131 70 52 98 52 179 c 4
52 479 m 4
 52 496 56 513 61 529 c 5
 77 529 169 535 188 538 c 5
 184 525 181 510 181 498 c 4
 181 451 218 434 250 434 c 4
 307 437 377 477 463 555 c 5
 477 554 562 542 577 538 c 5
 473 445 349 370 214 370 c 4
 131 370 52 398 52 479 c 4
EndSplineSet
Layer: 7
SplineSet
45 177 m 4
 45 194 49 212 54 228 c 5
 74 228 185 234 208 238 c 5
 204 225 201 212 201 200 c 4
 201 159 231 141 258 141 c 4
 310 145 373 184 447 255 c 5
 464 255 568 241 585 236 c 5
 490 147 360 65 214 65 c 4
 129 65 45 93 45 177 c 4
45 477 m 4
 45 494 49 512 54 528 c 5
 74 528 185 534 208 538 c 5
 204 525 201 512 201 500 c 4
 201 459 231 441 258 441 c 4
 310 445 373 484 447 555 c 5
 464 555 568 541 585 536 c 5
 490 447 360 365 214 365 c 4
 129 365 45 393 45 477 c 4
EndSplineSet
Layer: 8
SplineSet
37 174 m 0
 37 192 41 211 46 227 c 1
 69 227 200 235 227 239 c 1
 223 227 220 213 220 202 c 0
 220 167 244 149 266 149 c 0
 312 154 369 192 430 255 c 1
 449 255 572 238 592 233 c 1
 506 149 370 60 213 60 c 4
 125 60 37 88 37 174 c 0
37 474 m 0
 37 492 41 511 46 527 c 1
 69 527 200 535 227 539 c 1
 223 527 220 513 220 502 c 0
 220 467 244 449 266 449 c 0
 312 454 369 492 430 555 c 1
 449 555 572 538 592 533 c 1
 506 449 370 360 213 360 c 0
 125 360 37 388 37 474 c 0
EndSplineSet
Layer: 9
SplineSet
30 172 m 4
 30 190 35 208 40 225 c 5
 66 225 215 235 246 240 c 5
 243 228 241 216 241 205 c 4
 241 175 259 156 275 156 c 4
 315 161 365 200 414 255 c 5
 436 255 577 236 600 230 c 5
 523 150 379 55 212 55 c 4
 121 55 30 84 30 172 c 4
30 472 m 4
 30 490 35 508 40 525 c 5
 66 525 215 535 246 540 c 5
 243 528 241 516 241 505 c 4
 241 475 259 456 275 456 c 4
 315 461 365 500 414 555 c 5
 436 555 577 536 600 530 c 5
 523 450 379 355 212 355 c 4
 121 355 30 384 30 472 c 4
EndSplineSet
Layer: 10
SplineSet
22 169 m 4
 22 188 27 207 32 224 c 5
 61 224 230 235 265 240 c 5
 262 229 260 217 260 207 c 4
 260 183 271 164 282 164 c 4
 317 170 361 207 397 255 c 5
 421 255 581 234 607 228 c 5
 539 153 389 50 211 50 c 4
 118 50 22 78 22 169 c 4
22 469 m 4
 22 488 27 507 32 524 c 5
 61 524 230 535 265 540 c 5
 262 529 260 517 260 507 c 4
 260 483 271 464 282 464 c 4
 317 470 361 507 397 555 c 5
 421 555 581 534 607 528 c 5
 539 453 389 350 211 350 c 4
 118 350 22 378 22 469 c 4
EndSplineSet
Layer: 11
SplineSet
15 167 m 4
 15 186 20 206 25 223 c 5
 57 223 246 235 285 241 c 5
 282 230 280 219 280 209 c 4
 280 191 285 171 291 171 c 4
 320 178 357 215 381 255 c 5
 408 255 586 232 615 225 c 5
 556 154 400 45 211 45 c 4
 115 45 15 74 15 167 c 4
15 467 m 4
 15 486 20 506 25 523 c 5
 57 523 246 535 285 541 c 5
 282 530 280 519 280 509 c 4
 280 491 285 471 291 471 c 4
 320 478 357 515 381 555 c 5
 408 555 586 532 615 525 c 5
 556 454 400 345 211 345 c 4
 115 345 15 374 15 467 c 4
EndSplineSet
EndChar

StartChar: uni0E0A
Encoding: 3594 3594 80
Width: 765
VWidth: 0
Flags: HW
LayerCount: 12
Back
SplineSet
73 498 m 5
 90 556 151 590 207 590 c 4
 268 590 328 555 328 469 c 4
 328 347 136 324 136 195 c 4
 136 95 209 39 325 39 c 4
 481 39 585 94 593 180 c 4
 596 213 601 286 606 375 c 5
 606 421 511 461 418 470 c 5
 542 523 623 574 671 620 c 1029
EndSplineSet
Fore
SplineSet
82 497 m 5
 64 499 l 5
 82 560 147 597 208 597 c 4
 274 597 337 559 337 470 c 4
 337 341 145 318 145 196 c 4
 145 99 214 46 326 46 c 4
 480 46 577 100 584 180 c 4
 587 213 592 286 597 375 c 5
 597 414 509 454 416 463 c 4
 416 463 408 466 408 470 c 4
 408 472 409 474 414 476 c 4
 537 529 617 579 664 624 c 5
 678 616 l 5
 632 572 558 524 445 474 c 5
 529 461 615 424 615 375 c 5
 610 286 605 213 602 180 c 4
 593 88 482 32 324 32 c 4
 204 32 127 91 127 194 c 4
 127 330 319 353 319 468 c 4
 319 551 262 583 206 583 c 4
 155 583 98 552 82 497 c 5
EndSplineSet
Layer: 11
SplineSet
-20 500 m 1
 29 564 130 624 250 624 c 0
 362 624 422 588 442 531 c 1
 513 578 570 645 590 675 c 1
 654 671 764 649 820 630 c 1
 788 583 696 515 610 471 c 1
 687 448 740 407 740 370 c 0
 740 279 736 224 730 188 c 0
 703 25 466 -24 292 -24 c 0
 77 -24 5 74 5 180 c 0
 5 331 230 400 230 470 c 0
 230 494 219 508 205 510 c 1
 186 500 130 439 115 420 c 1
 82 447 24 484 -20 500 c 1
360 102 m 0
 427 102 449 127 455 164 c 0
 460 192 469 258 475 345 c 0
 475 365 463 386 429 399 c 1
 382 312 270 267 270 195 c 0
 270 121 322 102 360 102 c 0
EndSplineSet
EndChar

StartChar: uni0E4A
Encoding: 3658 3658 81
Width: 0
VWidth: 0
Flags: HW
LayerCount: 12
Back
SplineSet
-325 698 m 5
 -371 704 -410 733 -405 790 c 4
 -401 822 -369 882 -306 882 c 4
 -266 882 -250 855 -253 829 c 4
 -254 819 -257 810 -260 802 c 5
 -213 827 -158 857 -127 874 c 5
 -153 700 l 5
 -123 718 -13 774 15 790 c 1028
EndSplineSet
Layer: 11
SplineSet
-390 1016 m 4
 -390 1106 -304 1156 -214 1156 c 4
 -163 1156 -137 1129 -128 1105 c 5
 -99 1126 -68 1146 -44 1152 c 5
 -28 1150 6 1134 15 1120 c 5
 11 1095 7 1069 4 1046 c 5
 28 1064 51 1079 60 1084 c 5
 83 1072 132 1038 150 1022 c 5
 100 1002 -7 937 -66 914 c 5
 -100 914 -135 930 -142 944 c 5
 -138 963 -132 993 -128 1018 c 5
 -146 1005 -160 997 -165 994 c 4
 -184 994 -212 1001 -219 1014 c 5
 -218 1020 -216 1033 -216 1038 c 4
 -216 1049 -219 1059 -232 1059 c 4
 -242 1056 -250 1045 -250 1026 c 4
 -250 1002 -224 987 -206 979 c 5
 -220 965 -251 928 -261 914 c 5
 -325 914 -390 951 -390 1016 c 4
EndSplineSet
EndChar

